<svg width="696" height="374" viewBox="0 0 696 374" fill="none" xmlns="http://www.w3.org/2000/svg">
<g clip-path="url(#clip0_1072_2)">
<path d="M291.785 238.529C291.463 238.529 291.119 238.449 290.751 238.288C290.406 238.127 290.233 237.609 290.233 236.736V213.802C290.233 213.066 290.394 212.606 290.716 212.422C291.038 212.215 291.348 212.112 291.647 212.112C292.038 212.112 292.349 212.215 292.579 212.422C292.831 212.606 292.958 213.066 292.958 213.802V218.044C293.694 215.952 295.211 214.331 297.51 213.181C299.832 212.008 302.488 211.422 305.477 211.422C307.822 211.422 309.569 211.813 310.719 212.595C311.891 213.376 312.696 214.273 313.133 215.285C313.57 216.296 313.857 217.159 313.995 217.871C314.547 216.906 315.352 215.928 316.409 214.94C317.49 213.951 318.869 213.124 320.548 212.457C322.226 211.767 324.238 211.422 326.583 211.422C329.733 211.422 332.066 212.238 333.584 213.871C335.124 215.503 335.894 218.101 335.894 221.665V236.736C335.894 237.54 335.733 238.046 335.411 238.253C335.113 238.437 334.825 238.529 334.549 238.529C334.204 238.529 333.883 238.449 333.584 238.288C333.285 238.127 333.135 237.609 333.135 236.736V221.665C333.135 218.469 332.595 216.308 331.514 215.181C330.457 214.032 328.836 213.457 326.652 213.457C323.709 213.457 321.26 214.055 319.306 215.25C317.375 216.446 315.765 218.09 314.478 220.182V236.736C314.478 237.54 314.328 238.046 314.029 238.253C313.731 238.437 313.443 238.529 313.167 238.529C312.845 238.529 312.524 238.449 312.202 238.288C311.88 238.127 311.719 237.609 311.719 236.736V220.182C311.719 218.09 311.225 216.446 310.236 215.25C309.27 214.055 307.707 213.457 305.546 213.457C302.304 213.457 299.533 214.135 297.234 215.492C294.958 216.848 293.544 218.458 292.992 220.32V236.736C292.992 237.54 292.854 238.046 292.579 238.253C292.326 238.437 292.061 238.529 291.785 238.529ZM363.534 238.908C357.786 238.908 353.636 237.713 351.084 235.322C348.532 232.908 347.256 229.551 347.256 225.252C347.256 221.688 347.98 218.906 349.428 216.906C350.9 214.905 352.889 213.491 355.395 212.664C357.901 211.836 360.694 211.422 363.775 211.422C368.557 211.422 372.132 212.342 374.501 214.181C376.892 215.997 378.087 218.607 378.087 222.01C378.087 222.631 377.995 223.366 377.811 224.217C377.627 225.045 377.443 225.458 377.26 225.458L350.015 225.114C350.107 229.643 351.279 232.735 353.532 234.391C355.809 236.046 359.131 236.874 363.499 236.874C366.074 236.874 368.224 236.644 369.948 236.184C371.696 235.701 373.098 235.172 374.156 234.598C375.236 234 376.03 233.528 376.535 233.183C376.604 233.138 376.696 233.115 376.811 233.115C377.064 233.115 377.294 233.241 377.501 233.494C377.731 233.724 377.846 233.977 377.846 234.253C377.846 234.506 377.731 234.713 377.501 234.873C377.248 235.126 376.593 235.586 375.535 236.253C374.501 236.897 372.995 237.506 371.017 238.081C369.063 238.633 366.569 238.908 363.534 238.908ZM350.049 223.424H376.053V221.803C376.053 220.262 375.662 218.871 374.88 217.63C374.098 216.365 372.811 215.354 371.017 214.595C369.224 213.836 366.81 213.457 363.775 213.457C359.522 213.457 356.211 214.193 353.843 215.664C351.498 217.136 350.233 219.722 350.049 223.424ZM359.878 207.249C359.257 207.249 358.947 206.95 358.947 206.353C358.947 206.123 359.039 205.916 359.223 205.732L367.914 196.213C368.167 195.96 368.454 195.834 368.776 195.834C369.282 195.834 369.718 196.041 370.086 196.455C370.454 196.869 370.638 197.328 370.638 197.834C370.638 198.202 370.466 198.524 370.121 198.8L360.395 207.077C360.234 207.192 360.062 207.249 359.878 207.249ZM399.347 238.874C396.863 238.874 394.771 238.15 393.07 236.701C391.392 235.23 390.552 232.632 390.552 228.907V214.285H387.517C386.874 214.285 386.552 214.009 386.552 213.457C386.552 212.905 386.874 212.629 387.517 212.629H390.552V204.042C390.552 203.306 390.702 202.846 391.001 202.662C391.299 202.456 391.61 202.352 391.932 202.352C392.323 202.352 392.645 202.456 392.897 202.662C393.173 202.846 393.311 203.306 393.311 204.042V212.629H404.761C405.45 212.629 405.796 212.905 405.796 213.457C405.796 214.009 405.45 214.285 404.761 214.285H393.311V228.907C393.311 231.137 393.599 232.827 394.173 233.977C394.771 235.103 395.564 235.862 396.553 236.253C397.542 236.644 398.634 236.839 399.829 236.839C400.932 236.839 402.014 236.644 403.071 236.253C404.128 235.862 405.347 235.299 406.726 234.563C407.002 234.425 407.267 234.356 407.52 234.356C408.164 234.356 408.485 234.655 408.485 235.253C408.485 235.713 408.233 236.08 407.727 236.356C405.796 237.414 404.255 238.104 403.105 238.426C401.956 238.724 400.703 238.874 399.347 238.874ZM432.297 238.874C428.066 238.874 424.698 238.322 422.192 237.219C419.686 236.115 417.881 234.551 416.778 232.528C415.697 230.482 415.157 228.056 415.157 225.252C415.157 220.377 416.536 216.86 419.295 214.698C422.077 212.514 426.411 211.422 432.297 211.422C438.183 211.422 442.506 212.514 445.265 214.698C448.046 216.86 449.437 220.377 449.437 225.252C449.437 228.056 448.885 230.482 447.782 232.528C446.701 234.551 444.908 236.115 442.402 237.219C439.896 238.322 436.527 238.874 432.297 238.874ZM432.297 236.839C435.424 236.839 437.941 236.506 439.849 235.839C441.757 235.172 443.195 234.276 444.161 233.149C445.149 232.023 445.816 230.781 446.161 229.424C446.506 228.045 446.678 226.654 446.678 225.252C446.678 220.975 445.54 217.94 443.264 216.147C440.988 214.354 437.332 213.457 432.297 213.457C427.262 213.457 423.607 214.354 421.33 216.147C419.054 217.94 417.915 220.975 417.915 225.252C417.915 226.654 418.089 228.045 418.433 229.424C418.778 230.781 419.433 232.023 420.399 233.149C421.387 234.276 422.836 235.172 424.744 235.839C426.653 236.506 429.17 236.839 432.297 236.839ZM475.317 238.874C472.559 238.874 470.018 238.472 467.696 237.667C465.396 236.862 463.546 235.483 462.143 233.528C460.741 231.574 460.039 228.873 460.039 225.424C460.039 220.274 461.362 216.653 464.006 214.56C466.673 212.468 470.443 211.422 475.317 211.422C478.537 211.422 481.18 211.664 483.249 212.146C485.318 212.629 486.952 213.215 488.147 213.905C489.365 214.572 490.262 215.204 490.836 215.802V202.559C490.836 201.938 490.895 201.375 491.009 200.869C491.124 200.363 491.515 200.11 492.181 200.11C492.848 200.11 493.251 200.34 493.389 200.8C493.527 201.26 493.595 201.823 493.595 202.49V236.667C493.595 237.402 493.446 237.897 493.147 238.15C492.871 238.403 492.572 238.529 492.251 238.529C491.86 238.529 491.526 238.414 491.25 238.184C490.974 237.954 490.836 237.471 490.836 236.736V231.942C490.469 233.413 489.675 234.609 488.457 235.529C487.262 236.448 485.87 237.15 484.284 237.632C482.697 238.115 481.1 238.437 479.49 238.598C477.881 238.782 476.49 238.874 475.317 238.874ZM475.317 236.839C476.697 236.839 478.191 236.747 479.8 236.563C481.434 236.356 483.008 236 484.526 235.494C486.043 234.988 487.365 234.287 488.491 233.391C489.641 232.471 490.422 231.287 490.836 229.838V217.423C490.146 216.848 489.17 216.262 487.905 215.664C486.663 215.043 485.02 214.526 482.973 214.112C480.95 213.675 478.399 213.457 475.317 213.457C470.903 213.457 467.707 214.411 465.73 216.319C463.776 218.205 462.798 221.239 462.798 225.424C462.798 228.321 463.362 230.608 464.488 232.287C465.615 233.942 467.121 235.115 469.006 235.805C470.914 236.494 473.019 236.839 475.317 236.839ZM522.615 238.874C518.384 238.874 515.016 238.322 512.51 237.219C510.003 236.115 508.199 234.551 507.095 232.528C506.015 230.482 505.474 228.056 505.474 225.252C505.474 220.377 506.854 216.86 509.613 214.698C512.395 212.514 516.729 211.422 522.615 211.422C528.5 211.422 532.823 212.514 535.582 214.698C538.363 216.86 539.755 220.377 539.755 225.252C539.755 228.056 539.203 230.482 538.1 232.528C537.019 234.551 535.226 236.115 532.72 237.219C530.213 238.322 526.845 238.874 522.615 238.874ZM522.615 236.839C525.742 236.839 528.259 236.506 530.167 235.839C532.075 235.172 533.513 234.276 534.479 233.149C535.466 232.023 536.134 230.781 536.478 229.424C536.824 228.045 536.996 226.654 536.996 225.252C536.996 220.975 535.858 217.94 533.581 216.147C531.306 214.354 527.65 213.457 522.615 213.457C517.579 213.457 513.924 214.354 511.648 216.147C509.372 217.94 508.233 220.975 508.233 225.252C508.233 226.654 508.406 228.045 508.751 229.424C509.096 230.781 509.751 232.023 510.716 233.149C511.705 234.276 513.154 235.172 515.062 235.839C516.97 236.506 519.487 236.839 522.615 236.839Z" fill="#D0972D"/>
<mask id="mask0_1072_2" style="mask-type:luminance" maskUnits="userSpaceOnUse" x="288" y="194" width="254" height="47">
<path d="M541.886 194.386H288.061V240.736H541.886V194.386Z" fill="white"/>
<path d="M291.785 238.529C291.463 238.529 291.119 238.449 290.751 238.288C290.406 238.127 290.233 237.609 290.233 236.736V213.802C290.233 213.066 290.394 212.606 290.716 212.422C291.038 212.215 291.348 212.112 291.647 212.112C292.038 212.112 292.349 212.215 292.579 212.422C292.831 212.606 292.958 213.066 292.958 213.802V218.044C293.694 215.952 295.211 214.331 297.51 213.181C299.832 212.008 302.488 211.422 305.477 211.422C307.822 211.422 309.569 211.813 310.719 212.595C311.891 213.376 312.696 214.273 313.133 215.285C313.57 216.296 313.857 217.159 313.995 217.871C314.547 216.906 315.352 215.928 316.409 214.94C317.49 213.951 318.869 213.124 320.548 212.457C322.226 211.767 324.238 211.422 326.583 211.422C329.733 211.422 332.066 212.238 333.584 213.871C335.124 215.503 335.894 218.101 335.894 221.665V236.736C335.894 237.54 335.733 238.046 335.411 238.253C335.113 238.437 334.825 238.529 334.549 238.529C334.204 238.529 333.883 238.449 333.584 238.288C333.285 238.127 333.135 237.609 333.135 236.736V221.665C333.135 218.469 332.595 216.308 331.514 215.181C330.457 214.032 328.836 213.457 326.652 213.457C323.709 213.457 321.26 214.055 319.306 215.25C317.375 216.446 315.765 218.09 314.478 220.182V236.736C314.478 237.54 314.328 238.046 314.029 238.253C313.731 238.437 313.443 238.529 313.167 238.529C312.845 238.529 312.524 238.449 312.202 238.288C311.88 238.127 311.719 237.609 311.719 236.736V220.182C311.719 218.09 311.225 216.446 310.236 215.25C309.27 214.055 307.707 213.457 305.546 213.457C302.304 213.457 299.533 214.135 297.234 215.492C294.958 216.848 293.544 218.458 292.992 220.32V236.736C292.992 237.54 292.854 238.046 292.579 238.253C292.326 238.437 292.061 238.529 291.785 238.529ZM363.534 238.908C357.786 238.908 353.636 237.713 351.084 235.322C348.532 232.908 347.256 229.551 347.256 225.252C347.256 221.688 347.98 218.906 349.428 216.906C350.9 214.905 352.889 213.491 355.395 212.664C357.901 211.836 360.694 211.422 363.775 211.422C368.557 211.422 372.132 212.342 374.501 214.181C376.892 215.997 378.087 218.607 378.087 222.01C378.087 222.631 377.995 223.366 377.811 224.217C377.627 225.045 377.443 225.458 377.26 225.458L350.015 225.114C350.107 229.643 351.279 232.735 353.532 234.391C355.809 236.046 359.131 236.874 363.499 236.874C366.074 236.874 368.224 236.644 369.948 236.184C371.696 235.701 373.098 235.172 374.156 234.598C375.236 234 376.03 233.528 376.535 233.183C376.604 233.138 376.696 233.115 376.811 233.115C377.064 233.115 377.294 233.241 377.501 233.494C377.731 233.724 377.846 233.977 377.846 234.253C377.846 234.506 377.731 234.713 377.501 234.873C377.248 235.126 376.593 235.586 375.535 236.253C374.501 236.897 372.995 237.506 371.017 238.081C369.063 238.633 366.569 238.908 363.534 238.908ZM350.049 223.424H376.053V221.803C376.053 220.262 375.662 218.871 374.88 217.63C374.098 216.365 372.811 215.354 371.017 214.595C369.224 213.836 366.81 213.457 363.775 213.457C359.522 213.457 356.211 214.193 353.843 215.664C351.498 217.136 350.233 219.722 350.049 223.424ZM359.878 207.249C359.257 207.249 358.947 206.95 358.947 206.353C358.947 206.123 359.039 205.916 359.223 205.732L367.914 196.213C368.167 195.96 368.454 195.834 368.776 195.834C369.282 195.834 369.718 196.041 370.086 196.455C370.454 196.869 370.638 197.328 370.638 197.834C370.638 198.202 370.466 198.524 370.121 198.8L360.395 207.077C360.234 207.192 360.062 207.249 359.878 207.249ZM399.347 238.874C396.863 238.874 394.771 238.15 393.07 236.701C391.392 235.23 390.552 232.632 390.552 228.907V214.285H387.517C386.874 214.285 386.552 214.009 386.552 213.457C386.552 212.905 386.874 212.629 387.517 212.629H390.552V204.042C390.552 203.306 390.702 202.846 391.001 202.662C391.299 202.456 391.61 202.352 391.932 202.352C392.323 202.352 392.645 202.456 392.897 202.662C393.173 202.846 393.311 203.306 393.311 204.042V212.629H404.761C405.45 212.629 405.796 212.905 405.796 213.457C405.796 214.009 405.45 214.285 404.761 214.285H393.311V228.907C393.311 231.137 393.599 232.827 394.173 233.977C394.771 235.103 395.564 235.862 396.553 236.253C397.542 236.644 398.634 236.839 399.829 236.839C400.932 236.839 402.014 236.644 403.071 236.253C404.128 235.862 405.347 235.299 406.726 234.563C407.002 234.425 407.267 234.356 407.52 234.356C408.164 234.356 408.485 234.655 408.485 235.253C408.485 235.713 408.233 236.08 407.727 236.356C405.796 237.414 404.255 238.104 403.105 238.426C401.956 238.724 400.703 238.874 399.347 238.874ZM432.297 238.874C428.066 238.874 424.698 238.322 422.192 237.219C419.686 236.115 417.881 234.551 416.778 232.528C415.697 230.482 415.157 228.056 415.157 225.252C415.157 220.377 416.536 216.86 419.295 214.698C422.077 212.514 426.411 211.422 432.297 211.422C438.183 211.422 442.506 212.514 445.265 214.698C448.046 216.86 449.437 220.377 449.437 225.252C449.437 228.056 448.885 230.482 447.782 232.528C446.701 234.551 444.908 236.115 442.402 237.219C439.896 238.322 436.527 238.874 432.297 238.874ZM432.297 236.839C435.424 236.839 437.941 236.506 439.849 235.839C441.757 235.172 443.195 234.276 444.161 233.149C445.149 232.023 445.816 230.781 446.161 229.424C446.506 228.045 446.678 226.654 446.678 225.252C446.678 220.975 445.54 217.94 443.264 216.147C440.988 214.354 437.332 213.457 432.297 213.457C427.262 213.457 423.607 214.354 421.33 216.147C419.054 217.94 417.915 220.975 417.915 225.252C417.915 226.654 418.089 228.045 418.433 229.424C418.778 230.781 419.433 232.023 420.399 233.149C421.387 234.276 422.836 235.172 424.744 235.839C426.653 236.506 429.17 236.839 432.297 236.839ZM475.317 238.874C472.559 238.874 470.018 238.472 467.696 237.667C465.396 236.862 463.546 235.483 462.143 233.528C460.741 231.574 460.039 228.873 460.039 225.424C460.039 220.274 461.362 216.653 464.006 214.56C466.673 212.468 470.443 211.422 475.317 211.422C478.537 211.422 481.18 211.664 483.249 212.146C485.318 212.629 486.952 213.215 488.147 213.905C489.365 214.572 490.262 215.204 490.836 215.802V202.559C490.836 201.938 490.895 201.375 491.009 200.869C491.124 200.363 491.515 200.11 492.181 200.11C492.848 200.11 493.251 200.34 493.389 200.8C493.527 201.26 493.595 201.823 493.595 202.49V236.667C493.595 237.402 493.446 237.897 493.147 238.15C492.871 238.403 492.572 238.529 492.251 238.529C491.86 238.529 491.526 238.414 491.25 238.184C490.974 237.954 490.836 237.471 490.836 236.736V231.942C490.469 233.413 489.675 234.609 488.457 235.529C487.262 236.448 485.87 237.15 484.284 237.632C482.697 238.115 481.1 238.437 479.49 238.598C477.881 238.782 476.49 238.874 475.317 238.874ZM475.317 236.839C476.697 236.839 478.191 236.747 479.8 236.563C481.434 236.356 483.008 236 484.526 235.494C486.043 234.988 487.365 234.287 488.491 233.391C489.641 232.471 490.422 231.287 490.836 229.838V217.423C490.146 216.848 489.17 216.262 487.905 215.664C486.663 215.043 485.02 214.526 482.973 214.112C480.95 213.675 478.399 213.457 475.317 213.457C470.903 213.457 467.707 214.411 465.73 216.319C463.776 218.205 462.798 221.239 462.798 225.424C462.798 228.321 463.362 230.608 464.488 232.287C465.615 233.942 467.121 235.115 469.006 235.805C470.914 236.494 473.019 236.839 475.317 236.839ZM522.615 238.874C518.384 238.874 515.016 238.322 512.51 237.219C510.003 236.115 508.199 234.551 507.095 232.528C506.015 230.482 505.474 228.056 505.474 225.252C505.474 220.377 506.854 216.86 509.613 214.698C512.395 212.514 516.729 211.422 522.615 211.422C528.5 211.422 532.823 212.514 535.582 214.698C538.363 216.86 539.755 220.377 539.755 225.252C539.755 228.056 539.203 230.482 538.1 232.528C537.019 234.551 535.226 236.115 532.72 237.219C530.213 238.322 526.845 238.874 522.615 238.874ZM522.615 236.839C525.742 236.839 528.259 236.506 530.167 235.839C532.075 235.172 533.513 234.276 534.479 233.149C535.466 232.023 536.134 230.781 536.478 229.424C536.824 228.045 536.996 226.654 536.996 225.252C536.996 220.975 535.858 217.94 533.581 216.147C531.306 214.354 527.65 213.457 522.615 213.457C517.579 213.457 513.924 214.354 511.648 216.147C509.372 217.94 508.233 220.975 508.233 225.252C508.233 226.654 508.406 228.045 508.751 229.424C509.096 230.781 509.751 232.023 510.716 233.149C511.705 234.276 513.154 235.172 515.062 235.839C516.97 236.506 519.487 236.839 522.615 236.839Z" fill="black"/>
</mask>
<g mask="url(#mask0_1072_2)">
<path d="M290.751 238.288L290.284 239.288L290.296 239.293L290.308 239.299L290.751 238.288ZM290.716 212.422L291.264 213.381L291.289 213.366L291.313 213.351L290.716 212.422ZM292.579 212.422L291.84 213.243L291.883 213.281L291.929 213.315L292.579 212.422ZM292.958 218.044H291.854L293.999 218.41L292.958 218.044ZM297.51 213.181L298.004 214.168L298.008 214.166L297.51 213.181ZM310.719 212.595L310.098 213.507L310.107 213.513L310.719 212.595ZM313.995 217.871L312.912 218.081L313.477 221.002L314.953 218.419L313.995 217.871ZM316.409 214.94L315.664 214.126L315.656 214.134L316.409 214.94ZM320.548 212.457L320.955 213.483L320.967 213.478L320.548 212.457ZM333.584 213.871L332.776 214.622L332.781 214.628L333.584 213.871ZM335.412 238.253L335.99 239.193L335.999 239.187L336.008 239.182L335.412 238.253ZM331.515 215.181L330.702 215.929L330.71 215.937L330.718 215.945L331.515 215.181ZM319.306 215.25L318.73 214.309L318.725 214.312L319.306 215.25ZM314.478 220.182L313.538 219.604L313.374 219.87V220.182H314.478ZM314.03 238.253L314.608 239.193L314.633 239.177L314.658 239.161L314.03 238.253ZM310.236 215.25L309.377 215.944L309.386 215.954L310.236 215.25ZM297.234 215.492L296.674 214.541L296.669 214.544L297.234 215.492ZM292.992 220.32L291.934 220.006L291.889 220.16V220.32H292.992ZM292.579 238.253L293.228 239.146L293.234 239.141L293.241 239.136L292.579 238.253ZM291.785 237.426C291.648 237.426 291.455 237.391 291.193 237.277L290.308 239.299C290.782 239.506 291.279 239.633 291.785 239.633V237.426ZM291.217 237.288C291.421 237.382 291.442 237.528 291.41 237.43C291.377 237.331 291.337 237.116 291.337 236.736H289.13C289.13 237.229 289.176 237.71 289.316 238.128C289.456 238.548 289.736 239.032 290.284 239.288L291.217 237.288ZM291.337 236.736V213.802H289.13V236.736H291.337ZM291.337 213.802C291.337 213.501 291.372 213.339 291.396 213.27C291.417 213.211 291.398 213.304 291.264 213.381L290.169 211.464C289.713 211.725 289.453 212.14 289.313 212.541C289.176 212.931 289.13 213.367 289.13 213.802H291.337ZM291.313 213.351C291.506 213.226 291.612 213.216 291.647 213.216V211.008C291.085 211.008 290.57 211.205 290.12 211.494L291.313 213.351ZM291.647 213.216C291.747 213.216 291.801 213.229 291.824 213.237C291.844 213.243 291.845 213.246 291.84 213.243L293.317 211.602C292.835 211.168 292.236 211.008 291.647 211.008V213.216ZM291.929 213.315C291.772 213.2 291.769 213.089 291.799 213.198C291.826 213.296 291.854 213.486 291.854 213.802H294.062C294.062 213.382 294.027 212.975 293.927 212.613C293.831 212.262 293.639 211.829 293.228 211.53L291.929 213.315ZM291.854 213.802V218.044H294.062V213.802H291.854ZM293.999 218.41C294.625 216.631 295.917 215.212 298.004 214.168L297.017 212.194C294.505 213.45 292.763 215.272 291.917 217.678L293.999 218.41ZM298.008 214.166C300.154 213.082 302.635 212.526 305.477 212.526V210.319C302.341 210.319 299.511 210.935 297.013 212.196L298.008 214.166ZM305.477 212.526C307.737 212.526 309.219 212.909 310.098 213.507L311.339 211.682C309.92 210.717 307.907 210.319 305.477 210.319V212.526ZM310.107 213.513C311.151 214.209 311.788 214.954 312.12 215.722L314.146 214.847C313.604 213.592 312.632 212.544 311.331 211.677L310.107 213.513ZM312.12 215.722C312.539 216.694 312.795 217.476 312.912 218.081L315.079 217.662C314.92 216.842 314.6 215.899 314.146 214.847L312.12 215.722ZM314.953 218.419C315.437 217.573 316.163 216.681 317.163 215.746L315.656 214.134C314.54 215.176 313.657 216.238 313.037 217.324L314.953 218.419ZM317.154 215.754C318.116 214.874 319.373 214.111 320.955 213.483L320.14 211.431C318.365 212.136 316.864 213.028 315.664 214.126L317.154 215.754ZM320.967 213.478C322.48 212.856 324.341 212.526 326.583 212.526V210.319C324.134 210.319 321.972 210.678 320.128 211.436L320.967 213.478ZM326.583 212.526C329.556 212.526 331.541 213.294 332.776 214.622L334.392 213.119C332.591 211.182 329.91 210.319 326.583 210.319V212.526ZM332.781 214.628C334.042 215.964 334.791 218.224 334.791 221.665H336.998C336.998 217.978 336.207 215.042 334.386 213.113L332.781 214.628ZM334.791 221.665V236.736H336.998V221.665H334.791ZM334.791 236.736C334.791 237.077 334.755 237.28 334.722 237.384C334.69 237.486 334.689 237.406 334.815 237.325L336.008 239.182C336.456 238.894 336.697 238.457 336.825 238.053C336.953 237.652 336.998 237.199 336.998 236.736H334.791ZM334.833 237.313C334.662 237.419 334.572 237.426 334.549 237.426V239.633C335.078 239.633 335.564 239.455 335.99 239.193L334.833 237.313ZM334.549 237.426C334.384 237.426 334.242 237.389 334.107 237.316L333.061 239.259C333.523 239.508 334.025 239.633 334.549 239.633V237.426ZM334.107 237.316C334.337 237.44 334.347 237.608 334.308 237.473C334.274 237.356 334.239 237.125 334.239 236.736H332.032C332.032 237.22 332.072 237.685 332.187 238.085C332.298 238.467 332.532 238.975 333.061 239.259L334.107 237.316ZM334.239 236.736V221.665H332.032V236.736H334.239ZM334.239 221.665C334.239 218.439 333.713 215.879 332.311 214.417L330.718 215.945C331.477 216.736 332.032 218.5 332.032 221.665H334.239ZM332.327 214.434C330.988 212.979 329.018 212.353 326.652 212.353V214.561C328.654 214.561 329.926 215.085 330.702 215.929L332.327 214.434ZM326.652 212.353C323.563 212.353 320.901 212.981 318.73 214.309L319.882 216.192C321.62 215.128 323.855 214.561 326.652 214.561V212.353ZM318.725 214.312C316.636 215.605 314.908 217.377 313.538 219.604L315.418 220.76C316.623 218.802 318.113 217.287 319.887 216.189L318.725 214.312ZM313.374 220.182V236.736H315.582V220.182H313.374ZM313.374 236.736C313.374 237.082 313.341 237.293 313.307 237.406C313.273 237.523 313.268 237.438 313.401 237.346L314.658 239.161C315.09 238.862 315.309 238.42 315.424 238.031C315.54 237.639 315.582 237.195 315.582 236.736H313.374ZM313.451 237.313C313.28 237.419 313.19 237.426 313.167 237.426V239.633C313.696 239.633 314.182 239.455 314.608 239.193L313.451 237.313ZM313.167 237.426C313.036 237.426 312.882 237.394 312.695 237.301L311.708 239.275C312.165 239.503 312.655 239.633 313.167 239.633V237.426ZM312.695 237.301C312.913 237.41 312.929 237.567 312.893 237.451C312.86 237.343 312.823 237.121 312.823 236.736H310.615C310.615 237.225 310.659 237.697 310.786 238.107C310.911 238.508 311.168 239.005 311.708 239.275L312.695 237.301ZM312.823 236.736V220.182H310.615V236.736H312.823ZM312.823 220.182C312.823 217.923 312.288 216 311.086 214.547L309.386 215.954C310.161 216.892 310.615 218.257 310.615 220.182H312.823ZM311.095 214.557C309.844 213.009 307.898 212.353 305.546 212.353V214.561C307.516 214.561 308.697 215.101 309.377 215.944L311.095 214.557ZM305.546 212.353C302.149 212.353 299.176 213.065 296.674 214.541L297.795 216.442C299.891 215.205 302.459 214.561 305.546 214.561V212.353ZM296.669 214.544C294.243 215.99 292.59 217.794 291.934 220.006L294.051 220.633C294.499 219.121 295.674 217.707 297.799 216.44L296.669 214.544ZM291.889 220.32V236.736H294.096V220.32H291.889ZM291.889 236.736C291.889 237.086 291.858 237.306 291.824 237.428C291.788 237.561 291.779 237.473 291.916 237.37L293.241 239.136C293.654 238.826 293.852 238.382 293.954 238.009C294.058 237.625 294.096 237.19 294.096 236.736H291.889ZM291.929 237.361C291.839 237.427 291.798 237.426 291.785 237.426V239.633C292.325 239.633 292.812 239.448 293.228 239.146L291.929 237.361ZM351.084 235.322L350.326 236.124L350.329 236.127L351.084 235.322ZM349.429 216.906L348.54 216.252L348.535 216.258L349.429 216.906ZM374.501 214.181L373.824 215.053L373.833 215.06L374.501 214.181ZM377.811 224.217L378.889 224.456L378.89 224.45L377.811 224.217ZM377.26 225.458L377.246 226.562H377.26V225.458ZM350.015 225.114L350.029 224.01L348.888 223.996L348.912 225.136L350.015 225.114ZM353.532 234.391L352.879 235.28L352.883 235.283L353.532 234.391ZM369.948 236.184L370.233 237.25L370.242 237.248L369.948 236.184ZM374.156 234.598L374.683 235.567L374.69 235.563L374.156 234.598ZM376.535 233.184L375.923 232.265L375.914 232.272L376.535 233.184ZM377.501 233.494L376.647 234.193L376.682 234.235L376.721 234.274L377.501 233.494ZM377.501 234.873L376.868 233.969L376.789 234.025L376.721 234.093L377.501 234.873ZM375.535 236.253L376.118 237.19L376.124 237.186L375.535 236.253ZM371.017 238.081L371.317 239.143L371.325 239.141L371.017 238.081ZM350.049 223.424L348.947 223.369L348.89 224.527H350.049V223.424ZM376.053 223.424V224.527H377.156V223.424H376.053ZM374.88 217.63L373.941 218.21L373.946 218.218L374.88 217.63ZM353.843 215.664L353.26 214.727L353.256 214.729L353.843 215.664ZM359.223 205.732L360.003 206.512L360.021 206.494L360.038 206.476L359.223 205.732ZM367.914 196.213L367.133 195.433L367.116 195.451L367.099 195.469L367.914 196.213ZM370.121 198.8L369.431 197.938L369.418 197.949L369.406 197.96L370.121 198.8ZM360.395 207.077L361.037 207.975L361.075 207.948L361.111 207.917L360.395 207.077ZM363.534 237.805C357.896 237.805 354.089 236.625 351.838 234.516L350.329 236.127C353.183 238.801 357.676 240.012 363.534 240.012V237.805ZM351.842 234.52C349.558 232.36 348.359 229.321 348.359 225.252H346.152C346.152 229.781 347.505 233.456 350.326 236.124L351.842 234.52ZM348.359 225.252C348.359 221.821 349.059 219.298 350.322 217.553L348.535 216.258C346.902 218.514 346.152 221.554 346.152 225.252H348.359ZM350.317 217.56C351.645 215.756 353.438 214.472 355.741 213.712L355.049 211.616C352.34 212.511 350.155 214.055 348.54 216.252L350.317 217.56ZM355.741 213.712C358.118 212.926 360.793 212.526 363.775 212.526V210.319C360.596 210.319 357.683 210.746 355.049 211.616L355.741 213.712ZM363.775 212.526C368.448 212.526 371.734 213.43 373.824 215.053L375.178 213.31C372.531 211.254 368.667 210.319 363.775 210.319V212.526ZM373.833 215.06C375.91 216.638 376.984 218.9 376.984 222.01H379.191C379.191 218.314 377.873 215.357 375.168 213.302L373.833 215.06ZM376.984 222.01C376.984 222.528 376.906 223.182 376.733 223.984L378.89 224.45C379.085 223.551 379.191 222.733 379.191 222.01H376.984ZM376.734 223.978C376.647 224.37 376.574 224.595 376.527 224.7C376.502 224.757 376.511 224.718 376.573 224.648C376.63 224.584 376.86 224.355 377.26 224.355V226.562C377.752 226.562 378.073 226.282 378.222 226.114C378.377 225.941 378.477 225.746 378.544 225.596C378.681 225.287 378.792 224.891 378.889 224.456L376.734 223.978ZM377.274 224.355L350.029 224.01L350.001 226.217L377.246 226.562L377.274 224.355ZM348.912 225.136C349.006 229.796 350.214 233.322 352.879 235.28L354.186 233.501C352.345 232.149 351.208 229.49 351.118 225.091L348.912 225.136ZM352.883 235.283C355.427 237.133 359.018 237.977 363.499 237.977V235.77C359.244 235.77 356.191 234.959 354.182 233.498L352.883 235.283ZM363.499 237.977C366.132 237.977 368.385 237.743 370.233 237.25L369.664 235.118C368.063 235.544 366.017 235.77 363.499 235.77V237.977ZM370.242 237.248C372.034 236.753 373.524 236.197 374.683 235.567L373.629 233.628C372.672 234.148 371.357 234.65 369.654 235.12L370.242 237.248ZM374.69 235.563C375.777 234.962 376.607 234.47 377.157 234.095L375.914 232.272C375.452 232.587 374.696 233.038 373.622 233.632L374.69 235.563ZM377.148 234.102C376.978 234.215 376.833 234.218 376.811 234.218V232.011C376.56 232.011 376.231 232.06 375.923 232.265L377.148 234.102ZM376.811 234.218C376.781 234.218 376.749 234.214 376.717 234.206C376.685 234.198 376.66 234.186 376.642 234.176C376.607 234.157 376.612 234.15 376.647 234.193L378.355 232.795C378.005 232.367 377.487 232.011 376.811 232.011V234.218ZM376.721 234.274C376.758 234.311 376.761 234.325 376.755 234.313C376.752 234.307 376.749 234.297 376.746 234.285C376.743 234.272 376.742 234.261 376.742 234.253H378.95C378.95 233.632 378.678 233.111 378.281 232.714L376.721 234.274ZM376.742 234.253C376.742 234.205 376.755 234.133 376.795 234.062C376.833 233.994 376.871 233.967 376.868 233.969L378.134 235.778C378.621 235.437 378.95 234.909 378.95 234.253H376.742ZM376.721 234.093C376.573 234.241 376.034 234.634 374.947 235.319L376.124 237.186C377.152 236.539 377.924 236.012 378.281 235.654L376.721 234.093ZM374.952 235.316C374.042 235.882 372.647 236.458 370.709 237.021L371.325 239.141C373.343 238.554 374.959 237.911 376.118 237.19L374.952 235.316ZM370.718 237.019C368.896 237.533 366.512 237.805 363.534 237.805V240.012C366.625 240.012 369.23 239.732 371.317 239.143L370.718 237.019ZM350.049 224.527H376.053V222.32H350.049V224.527ZM377.156 223.424V221.803H374.949V223.424H377.156ZM377.156 221.803C377.156 220.065 376.712 218.469 375.814 217.042L373.946 218.218C374.611 219.274 374.949 220.46 374.949 221.803H377.156ZM375.819 217.05C374.884 215.538 373.387 214.399 371.447 213.579L370.588 215.611C372.235 216.308 373.312 217.193 373.941 218.21L375.819 217.05ZM371.447 213.579C369.464 212.739 366.884 212.353 363.775 212.353V214.561C366.736 214.561 368.985 214.933 370.588 215.611L371.447 213.579ZM363.775 212.353C359.416 212.353 355.873 213.104 353.26 214.727L354.425 216.601C356.55 215.282 359.627 214.561 363.775 214.561V212.353ZM353.256 214.729C350.508 216.454 349.142 219.441 348.947 223.369L351.152 223.478C351.324 220.003 352.488 217.817 354.429 216.599L353.256 214.729ZM359.878 206.146C359.728 206.146 359.819 206.109 359.945 206.23C360.005 206.288 360.036 206.348 360.048 206.384C360.058 206.414 360.051 206.41 360.051 206.353H357.843C357.843 206.832 357.97 207.392 358.414 207.82C358.851 208.24 359.408 208.353 359.878 208.353V206.146ZM360.051 206.353C360.051 206.39 360.042 206.433 360.024 206.473C360.008 206.51 359.993 206.522 360.003 206.512L358.443 204.952C358.081 205.313 357.843 205.791 357.843 206.353H360.051ZM360.038 206.476L368.729 196.958L367.099 195.469L358.408 204.988L360.038 206.476ZM368.694 196.994C368.737 196.951 368.761 196.94 368.763 196.939C368.764 196.939 368.765 196.938 368.765 196.938C368.765 196.938 368.765 196.938 368.765 196.938C368.765 196.938 368.766 196.938 368.767 196.938C368.769 196.938 368.772 196.938 368.776 196.938V194.73C368.127 194.73 367.568 194.998 367.133 195.433L368.694 196.994ZM368.776 196.938C368.934 196.938 369.081 196.985 369.261 197.188L370.911 195.722C370.356 195.097 369.629 194.73 368.776 194.73V196.938ZM369.261 197.188C369.468 197.421 369.534 197.625 369.534 197.834H371.742C371.742 197.032 371.44 196.317 370.911 195.722L369.261 197.188ZM369.534 197.834C369.533 197.839 369.534 197.839 369.534 197.834C369.536 197.83 369.537 197.828 369.536 197.83C369.533 197.835 369.511 197.874 369.431 197.938L370.81 199.662C371.358 199.223 371.742 198.606 371.742 197.834H369.534ZM369.406 197.96L359.68 206.236L361.111 207.917L370.836 199.64L369.406 197.96ZM359.754 206.179C359.755 206.178 359.769 206.168 359.796 206.159C359.824 206.15 359.853 206.146 359.878 206.146V208.353C360.31 208.353 360.704 208.213 361.037 207.975L359.754 206.179ZM393.07 236.701L392.342 237.531L392.348 237.536L392.355 237.542L393.07 236.701ZM390.552 214.285H391.656V213.181H390.552V214.285ZM390.552 212.629V213.733H391.656V212.629H390.552ZM391.001 202.663L391.579 203.602L391.604 203.587L391.629 203.57L391.001 202.663ZM392.897 202.663L392.199 203.517L392.24 203.551L392.285 203.581L392.897 202.663ZM393.311 212.629H392.208V213.733H393.311V212.629ZM393.311 214.285V213.181H392.208V214.285H393.311ZM394.174 233.977L393.186 234.47L393.192 234.482L393.199 234.494L394.174 233.977ZM406.726 234.563L406.233 233.576L406.221 233.583L406.208 233.589L406.726 234.563ZM407.727 236.356L407.199 235.388L407.196 235.389L407.727 236.356ZM403.105 238.426L403.384 239.494L403.393 239.491L403.403 239.488L403.105 238.426ZM399.347 237.77C397.094 237.77 395.265 237.12 393.785 235.861L392.355 237.542C394.278 239.179 396.633 239.978 399.347 239.978V237.77ZM393.797 235.871C392.478 234.715 391.656 232.519 391.656 228.907H389.449C389.449 232.745 390.305 235.745 392.342 237.531L393.797 235.871ZM391.656 228.907V214.285H389.449V228.907H391.656ZM390.552 213.181H387.517V215.388H390.552V213.181ZM387.517 213.181C387.432 213.181 387.397 213.172 387.398 213.172C387.402 213.173 387.451 213.188 387.511 213.24C387.575 213.295 387.618 213.362 387.641 213.419C387.661 213.47 387.655 213.49 387.655 213.457H385.448C385.448 213.951 385.6 214.509 386.075 214.916C386.517 215.295 387.064 215.388 387.517 215.388V213.181ZM387.655 213.457C387.655 213.424 387.661 213.444 387.641 213.495C387.618 213.552 387.575 213.619 387.511 213.674C387.451 213.726 387.402 213.741 387.398 213.742C387.397 213.742 387.432 213.733 387.517 213.733V211.526C387.064 211.526 386.517 211.619 386.075 211.998C385.6 212.405 385.448 212.963 385.448 213.457H387.655ZM387.517 213.733H390.552V211.526H387.517V213.733ZM391.656 212.629V204.042H389.449V212.629H391.656ZM391.656 204.042C391.656 203.736 391.689 203.565 391.714 203.486C391.738 203.412 391.725 203.513 391.579 203.602L390.422 201.723C389.978 201.996 389.74 202.419 389.615 202.804C389.491 203.186 389.449 203.612 389.449 204.042H391.656ZM391.629 203.57C391.768 203.474 391.863 203.456 391.932 203.456V201.249C391.357 201.249 390.831 201.438 390.373 201.755L391.629 203.57ZM391.932 203.456C392.12 203.456 392.18 203.501 392.199 203.517L393.596 201.808C393.109 201.41 392.525 201.249 391.932 201.249V203.456ZM392.285 203.581C392.132 203.478 392.123 203.371 392.151 203.462C392.177 203.55 392.208 203.731 392.208 204.042H394.415C394.415 203.617 394.377 203.2 394.265 202.828C394.154 202.46 393.939 202.031 393.51 201.744L392.285 203.581ZM392.208 204.042V212.629H394.415V204.042H392.208ZM393.311 213.733H404.761V211.526H393.311V213.733ZM404.761 213.733C404.863 213.733 404.915 213.744 404.93 213.747C404.942 213.751 404.903 213.743 404.848 213.698C404.787 213.649 404.74 213.584 404.712 213.519C404.688 213.461 404.692 213.432 404.692 213.457H406.9C406.9 212.937 406.725 212.373 406.226 211.974C405.775 211.613 405.224 211.526 404.761 211.526V213.733ZM404.692 213.457C404.692 213.482 404.688 213.453 404.712 213.395C404.74 213.33 404.787 213.265 404.848 213.216C404.903 213.171 404.942 213.163 404.93 213.167C404.915 213.17 404.863 213.181 404.761 213.181V215.388C405.224 215.388 405.775 215.301 406.226 214.939C406.725 214.541 406.9 213.976 406.9 213.457H404.692ZM404.761 213.181H393.311V215.388H404.761V213.181ZM392.208 214.285V228.907H394.415V214.285H392.208ZM392.208 228.907C392.208 231.2 392.498 233.093 393.186 234.47L395.161 233.483C394.699 232.561 394.415 231.075 394.415 228.907H392.208ZM393.199 234.494C393.894 235.804 394.868 236.773 396.147 237.279L396.959 235.227C396.261 234.951 395.649 234.403 395.148 233.46L393.199 234.494ZM396.147 237.279C397.28 237.727 398.512 237.943 399.829 237.943V235.736C398.756 235.736 397.803 235.56 396.959 235.227L396.147 237.279ZM399.829 237.943C401.066 237.943 402.277 237.723 403.454 237.288L402.688 235.218C401.751 235.564 400.8 235.736 399.829 235.736V237.943ZM403.454 237.288C404.572 236.875 405.838 236.288 407.246 235.537L406.208 233.589C404.857 234.31 403.685 234.85 402.688 235.218L403.454 237.288ZM407.221 235.55C407.376 235.472 407.472 235.46 407.52 235.46V233.253C407.062 233.253 406.629 233.378 406.233 233.576L407.221 235.55ZM407.52 235.46C407.599 235.46 407.626 235.469 407.616 235.466C407.603 235.462 407.552 235.443 407.493 235.389C407.434 235.334 407.401 235.273 407.386 235.233C407.374 235.2 407.382 235.199 407.382 235.253H409.589C409.589 234.762 409.453 234.197 408.995 233.772C408.553 233.361 407.992 233.253 407.52 233.253V235.46ZM407.382 235.253C407.382 235.265 407.381 235.265 407.383 235.258C407.385 235.25 407.388 235.246 407.386 235.248C407.383 235.254 407.342 235.309 407.199 235.388L408.256 237.325C409.011 236.914 409.589 236.224 409.589 235.253H407.382ZM407.196 235.389C405.288 236.434 403.836 237.075 402.809 237.363L403.403 239.488C404.675 239.132 406.302 238.395 408.257 237.324L407.196 235.389ZM402.828 237.358C401.781 237.63 400.622 237.77 399.347 237.77V239.978C400.783 239.978 402.131 239.819 403.384 239.494L402.828 237.358ZM416.778 232.528L415.802 233.044L415.809 233.057L416.778 232.528ZM419.295 214.698L419.976 215.567L419.977 215.567L419.295 214.698ZM445.265 214.698L444.579 215.564L444.587 215.57L445.265 214.698ZM447.782 232.528L446.811 232.004L446.809 232.008L447.782 232.528ZM444.161 233.149L443.331 232.421L443.322 232.431L444.161 233.149ZM446.161 229.425L447.23 229.696L447.231 229.692L446.161 229.425ZM418.433 229.425L417.363 229.692L417.364 229.696L418.433 229.425ZM420.399 233.149L419.561 233.867L419.57 233.877L420.399 233.149ZM432.298 237.77C428.145 237.77 424.948 237.226 422.637 236.209L421.747 238.229C424.449 239.418 427.988 239.978 432.298 239.978V237.77ZM422.637 236.209C420.31 235.184 418.712 233.771 417.747 232L415.809 233.057C417.05 235.332 419.062 237.046 421.747 238.229L422.637 236.209ZM417.753 232.013C416.773 230.156 416.26 227.915 416.26 225.252H414.053C414.053 228.198 414.621 230.808 415.802 233.044L417.753 232.013ZM416.26 225.252C416.26 220.576 417.578 217.446 419.976 215.567L418.615 213.83C415.495 216.274 414.053 220.179 414.053 225.252H416.26ZM419.977 215.567C422.472 213.607 426.508 212.526 432.298 212.526V210.319C426.314 210.319 421.682 211.421 418.614 213.83L419.977 215.567ZM432.298 212.526C438.087 212.526 442.108 213.608 444.579 215.564L445.949 213.833C442.902 211.421 438.279 210.319 432.298 210.319V212.526ZM444.587 215.57C447.006 217.45 448.334 220.579 448.334 225.252H450.541C450.541 220.176 449.085 216.27 445.941 213.827L444.587 215.57ZM448.334 225.252C448.334 227.911 447.811 230.149 446.811 232.004L448.753 233.052C449.959 230.815 450.541 228.202 450.541 225.252H448.334ZM446.809 232.008C445.865 233.774 444.282 235.185 441.957 236.209L442.847 238.229C445.533 237.045 447.537 235.329 448.755 233.048L446.809 232.008ZM441.957 236.209C439.646 237.226 436.449 237.77 432.298 237.77V239.978C436.606 239.978 440.145 239.418 442.847 238.229L441.957 236.209ZM432.298 237.943C435.488 237.943 438.142 237.605 440.214 236.881L439.485 234.797C437.74 235.407 435.36 235.736 432.298 235.736V237.943ZM440.214 236.881C442.242 236.172 443.869 235.186 444.999 233.867L443.322 232.431C442.521 233.366 441.274 234.172 439.485 234.797L440.214 236.881ZM444.99 233.877C446.086 232.629 446.839 231.234 447.23 229.696L445.091 229.153C444.792 230.328 444.213 231.416 443.331 232.421L444.99 233.877ZM447.231 229.692C447.598 228.226 447.782 226.746 447.782 225.252H445.575C445.575 226.563 445.414 227.864 445.09 229.157L447.231 229.692ZM447.782 225.252C447.782 220.803 446.597 217.368 443.947 215.28L442.581 217.014C444.483 218.513 445.575 221.147 445.575 225.252H447.782ZM443.947 215.28C441.378 213.256 437.416 212.353 432.298 212.353V214.561C437.248 214.561 440.598 215.451 442.581 217.014L443.947 215.28ZM432.298 212.353C427.178 212.353 423.216 213.256 420.647 215.28L422.013 217.014C423.996 215.451 427.346 214.561 432.298 214.561V212.353ZM420.647 215.28C417.997 217.368 416.812 220.803 416.812 225.252H419.019C419.019 221.147 420.111 218.513 422.013 217.014L420.647 215.28ZM416.812 225.252C416.812 226.746 416.996 228.226 417.363 229.692L419.504 229.157C419.18 227.864 419.019 226.563 419.019 225.252H416.812ZM417.364 229.696C417.753 231.227 418.492 232.62 419.561 233.867L421.237 232.431C420.374 231.425 419.803 230.335 419.503 229.153L417.364 229.696ZM419.57 233.877C420.72 235.188 422.353 236.173 424.38 236.881L425.109 234.797C423.32 234.172 422.055 233.363 421.229 232.421L419.57 233.877ZM424.38 236.881C426.452 237.605 429.106 237.943 432.298 237.943V235.736C429.234 235.736 426.854 235.407 425.109 234.797L424.38 236.881ZM467.696 237.667L467.331 238.709L467.334 238.71L467.696 237.667ZM464.006 214.561L463.325 213.692L463.32 213.695L464.006 214.561ZM488.147 213.905L487.595 214.861L487.606 214.867L487.617 214.873L488.147 213.905ZM490.836 215.802L490.042 216.567L491.94 218.542V215.802H490.836ZM493.147 238.15L492.434 237.307L492.418 237.321L492.402 237.336L493.147 238.15ZM490.836 231.942H491.94L489.766 231.674L490.836 231.942ZM488.457 235.529L487.793 234.648L487.785 234.654L488.457 235.529ZM479.49 238.598L479.381 237.5L479.366 237.502L479.49 238.598ZM479.8 236.563L479.926 237.66L479.939 237.658L479.8 236.563ZM488.491 233.391L489.179 234.254L489.181 234.252L488.491 233.391ZM490.836 229.838L491.898 230.142L491.94 229.993V229.838H490.836ZM490.836 217.423H491.94V216.906L491.544 216.575L490.836 217.423ZM487.905 215.664L487.412 216.651L487.423 216.657L487.434 216.662L487.905 215.664ZM482.973 214.112L482.74 215.191L482.755 215.194L482.973 214.112ZM464.488 232.287L463.572 232.902L463.577 232.908L464.488 232.287ZM469.006 235.805L468.628 236.841L468.631 236.843L469.006 235.805ZM475.318 237.77C472.667 237.77 470.25 237.384 468.057 236.624L467.334 238.71C469.786 239.559 472.45 239.978 475.318 239.978V237.77ZM468.06 236.625C465.972 235.895 464.308 234.653 463.04 232.885L461.247 234.172C462.783 236.313 464.821 237.83 467.331 238.709L468.06 236.625ZM463.04 232.885C461.82 231.184 461.143 228.738 461.143 225.424H458.936C458.936 229.007 459.663 231.965 461.247 234.172L463.04 232.885ZM461.143 225.424C461.143 220.43 462.427 217.218 464.691 215.426L463.32 213.695C460.297 216.088 458.936 220.118 458.936 225.424H461.143ZM464.687 215.429C467.09 213.543 470.585 212.526 475.318 212.526V210.319C470.302 210.319 466.255 211.393 463.325 213.692L464.687 215.429ZM475.318 212.526C478.49 212.526 481.042 212.765 482.999 213.221L483.501 211.072C481.319 210.563 478.582 210.319 475.318 210.319V212.526ZM482.999 213.221C485.013 213.691 486.53 214.247 487.595 214.861L488.699 212.949C487.373 212.185 485.625 211.567 483.501 211.072L482.999 213.221ZM487.617 214.873C488.795 215.517 489.579 216.086 490.042 216.567L491.632 215.037C490.944 214.322 489.937 213.627 488.677 212.937L487.617 214.873ZM491.94 215.802V202.559H489.733V215.802H491.94ZM491.94 202.559C491.94 202.005 491.992 201.525 492.085 201.114L489.933 200.625C489.797 201.225 489.733 201.872 489.733 202.559H491.94ZM492.085 201.114C492.089 201.101 492.087 201.118 492.066 201.149C492.044 201.183 492.014 201.21 491.988 201.227C491.965 201.242 491.96 201.238 491.991 201.231C492.021 201.224 492.083 201.214 492.181 201.214V199.007C491.724 199.007 491.225 199.092 490.789 199.374C490.323 199.675 490.046 200.126 489.933 200.625L492.085 201.114ZM492.181 201.214C492.286 201.214 492.357 201.223 492.4 201.232C492.442 201.242 492.45 201.249 492.436 201.241C492.42 201.232 492.392 201.212 492.367 201.179C492.342 201.147 492.333 201.122 492.332 201.117L494.446 200.483C494.299 199.993 493.988 199.586 493.531 199.325C493.106 199.082 492.628 199.007 492.181 199.007V201.214ZM492.332 201.117C492.43 201.443 492.492 201.892 492.492 202.49H494.699C494.699 201.754 494.624 201.077 494.446 200.483L492.332 201.117ZM492.492 202.49V236.667H494.699V202.49H492.492ZM492.492 236.667C492.492 236.968 492.461 237.16 492.428 237.27C492.394 237.377 492.377 237.356 492.434 237.307L493.86 238.992C494.554 238.405 494.699 237.465 494.699 236.667H492.492ZM492.402 237.336C492.343 237.39 492.303 237.411 492.286 237.418C492.272 237.424 492.263 237.426 492.251 237.426V239.633C492.893 239.633 493.45 239.37 493.893 238.963L492.402 237.336ZM492.251 237.426C492.093 237.426 492.017 237.386 491.957 237.336L490.544 239.032C491.036 239.442 491.626 239.633 492.251 239.633V237.426ZM491.957 237.336C492.045 237.41 492.033 237.457 492.002 237.347C491.971 237.238 491.94 237.044 491.94 236.736H489.733C489.733 237.163 489.772 237.579 489.879 237.953C489.985 238.325 490.181 238.729 490.544 239.032L491.957 237.336ZM491.94 236.736V231.942H489.733V236.736H491.94ZM489.766 231.674C489.46 232.899 488.811 233.879 487.793 234.648L489.122 236.41C490.54 235.339 491.477 233.928 491.908 232.21L489.766 231.674ZM487.785 234.654C486.704 235.485 485.435 236.129 483.963 236.577L484.605 238.688C486.306 238.171 487.819 237.412 489.13 236.403L487.785 234.654ZM483.963 236.577C482.443 237.039 480.916 237.346 479.381 237.5L479.601 239.696C481.284 239.528 482.952 239.191 484.605 238.688L483.963 236.577ZM479.366 237.502C477.783 237.682 476.435 237.77 475.318 237.77V239.978C476.545 239.978 477.979 239.882 479.616 239.695L479.366 237.502ZM475.318 237.943C476.746 237.943 478.282 237.848 479.926 237.66L479.676 235.467C478.101 235.647 476.648 235.736 475.318 235.736V237.943ZM479.939 237.658C481.641 237.442 483.287 237.07 484.875 236.541L484.177 234.447C482.729 234.93 481.225 235.27 479.662 235.469L479.939 237.658ZM484.875 236.541C486.501 235.999 487.94 235.24 489.179 234.254L487.805 232.527C486.789 233.335 485.585 233.978 484.177 234.447L484.875 236.541ZM489.181 234.252C490.514 233.186 491.422 231.805 491.898 230.142L489.776 229.535C489.424 230.769 488.768 231.756 487.802 232.529L489.181 234.252ZM491.94 229.838V217.423H489.733V229.838H491.94ZM491.544 216.575C490.753 215.917 489.684 215.285 488.377 214.666L487.434 216.662C488.656 217.239 489.541 217.779 490.13 218.271L491.544 216.575ZM488.398 214.677C487.039 213.997 485.292 213.455 483.193 213.03L482.755 215.194C484.749 215.597 486.289 216.09 487.412 216.651L488.398 214.677ZM483.207 213.033C481.079 212.574 478.443 212.353 475.318 212.353V214.561C478.355 214.561 480.821 214.777 482.74 215.191L483.207 213.033ZM475.318 212.353C470.783 212.353 467.242 213.327 464.964 215.525L466.497 217.114C468.174 215.495 471.024 214.561 475.318 214.561V212.353ZM464.964 215.525C462.701 217.708 461.695 221.099 461.695 225.424H463.902C463.902 221.38 464.85 218.702 466.497 217.114L464.964 215.525ZM461.695 225.424C461.695 228.449 462.281 230.979 463.572 232.902L465.405 231.672C464.443 230.238 463.902 228.192 463.902 225.424H461.695ZM463.577 232.908C464.833 234.755 466.525 236.072 468.628 236.841L469.386 234.768C467.716 234.158 466.397 233.13 465.401 231.666L463.577 232.908ZM468.631 236.843C470.675 237.581 472.907 237.943 475.318 237.943V235.736C473.129 235.736 471.155 235.408 469.381 234.767L468.631 236.843ZM507.095 232.528L506.12 233.044L506.126 233.057L507.095 232.528ZM509.613 214.698L510.294 215.567L510.295 215.567L509.613 214.698ZM535.582 214.698L534.897 215.564L534.905 215.57L535.582 214.698ZM538.1 232.528L537.128 232.004L537.126 232.008L538.1 232.528ZM534.479 233.149L533.649 232.421L533.64 232.431L534.479 233.149ZM536.478 229.425L537.548 229.696L537.549 229.692L536.478 229.425ZM508.751 229.425L507.68 229.692L507.681 229.696L508.751 229.425ZM510.716 233.149L509.879 233.867L509.887 233.877L510.716 233.149ZM522.615 237.77C518.462 237.77 515.265 237.226 512.954 236.209L512.065 238.229C514.766 239.418 518.306 239.978 522.615 239.978V237.77ZM512.954 236.209C510.628 235.184 509.03 233.771 508.064 232L506.126 233.057C507.368 235.332 509.38 237.046 512.065 238.229L512.954 236.209ZM508.071 232.013C507.091 230.156 506.578 227.915 506.578 225.252H504.371C504.371 228.198 504.939 230.808 506.12 233.044L508.071 232.013ZM506.578 225.252C506.578 220.576 507.895 217.446 510.294 215.567L508.933 213.83C505.813 216.274 504.371 220.179 504.371 225.252H506.578ZM510.295 215.567C512.79 213.607 516.826 212.526 522.615 212.526V210.319C516.631 210.319 512 211.421 508.932 213.83L510.295 215.567ZM522.615 212.526C528.405 212.526 532.426 213.608 534.897 215.564L536.267 213.833C533.22 211.421 528.597 210.319 522.615 210.319V212.526ZM534.905 215.57C537.324 217.45 538.651 220.579 538.651 225.252H540.859C540.859 220.176 539.403 216.27 536.259 213.827L534.905 215.57ZM538.651 225.252C538.651 227.911 538.128 230.149 537.128 232.004L539.071 233.052C540.277 230.815 540.859 228.202 540.859 225.252H538.651ZM537.126 232.008C536.183 233.774 534.6 235.185 532.275 236.209L533.164 238.229C535.85 237.045 537.855 235.329 539.073 233.048L537.126 232.008ZM532.275 236.209C529.964 237.226 526.767 237.77 522.615 237.77V239.978C526.924 239.978 530.463 239.418 533.164 238.229L532.275 236.209ZM522.615 237.943C525.806 237.943 528.46 237.605 530.531 236.881L529.803 234.797C528.058 235.407 525.678 235.736 522.615 235.736V237.943ZM530.531 236.881C532.56 236.172 534.186 235.186 535.316 233.867L533.64 232.431C532.839 233.366 531.592 234.172 529.803 234.797L530.531 236.881ZM535.308 233.877C536.403 232.629 537.157 231.234 537.548 229.696L535.409 229.153C535.11 230.328 534.531 231.416 533.649 232.421L535.308 233.877ZM537.549 229.692C537.915 228.226 538.1 226.746 538.1 225.252H535.892C535.892 226.563 535.731 227.864 535.408 229.157L537.549 229.692ZM538.1 225.252C538.1 220.803 536.914 217.368 534.265 215.28L532.898 217.014C534.801 218.513 535.892 221.147 535.892 225.252H538.1ZM534.265 215.28C531.695 213.256 527.734 212.353 522.615 212.353V214.561C527.566 214.561 530.915 215.451 532.898 217.014L534.265 215.28ZM522.615 212.353C517.496 212.353 513.534 213.256 510.965 215.28L512.331 217.014C514.314 215.451 517.663 214.561 522.615 214.561V212.353ZM510.965 215.28C508.315 217.368 507.13 220.803 507.13 225.252H509.337C509.337 221.147 510.428 218.513 512.331 217.014L510.965 215.28ZM507.13 225.252C507.13 226.746 507.314 228.226 507.68 229.692L509.821 229.157C509.498 227.864 509.337 226.563 509.337 225.252H507.13ZM507.681 229.696C508.071 231.227 508.809 232.62 509.879 233.867L511.555 232.431C510.692 231.425 510.12 230.335 509.82 229.153L507.681 229.696ZM509.887 233.877C511.037 235.188 512.671 236.173 514.698 236.881L515.426 234.797C513.637 234.172 512.373 233.363 511.546 232.421L509.887 233.877ZM514.698 236.881C516.769 237.605 519.424 237.943 522.615 237.943V235.736C519.552 235.736 517.171 235.407 515.426 234.797L514.698 236.881Z" fill="#D0972D"/>
</g>
</g>
<g clip-path="url(#clip1_1072_2)">
<path d="M682.868 286.263H655.278L673.488 242.396H695.007L682.868 286.263Z" fill="url(#paint0_linear_1072_2)"/>
</g>
<g clip-path="url(#clip2_1072_2)">
<path d="M324.756 373.059C313.168 373.059 303.144 372.323 294.683 370.852C286.222 369.197 279.141 366.346 273.439 362.299C267.737 358.069 263.507 352.275 260.748 344.918C257.989 337.376 256.609 327.812 256.609 316.224C256.609 304.637 257.989 295.164 260.748 287.807C263.507 280.266 267.737 274.472 273.439 270.425C279.141 266.195 286.222 263.344 294.683 261.873C303.144 260.217 313.168 259.39 324.756 259.39C336.16 259.39 346 260.217 354.277 261.873C362.738 263.344 369.727 266.195 375.245 270.425C380.763 274.472 384.901 280.266 387.66 287.807C390.604 295.164 392.075 304.637 392.075 316.224C392.075 327.812 390.604 337.376 387.66 344.918C384.901 352.275 380.671 358.069 374.969 362.299C369.451 366.346 362.462 369.197 354.001 370.852C345.724 372.323 335.976 373.059 324.756 373.059ZM324.756 349.056C328.986 349.056 332.297 348.137 334.688 346.297C337.263 344.457 339.103 341.239 340.206 336.641C341.494 331.858 342.137 325.053 342.137 316.224C342.137 307.396 341.494 300.59 340.206 295.808C339.103 291.026 337.263 287.807 334.688 286.152C332.297 284.312 328.986 283.393 324.756 283.393C320.709 283.393 317.307 284.312 314.548 286.152C311.789 287.807 309.674 291.026 308.202 295.808C306.915 300.59 306.271 307.396 306.271 316.224C306.271 325.053 306.915 331.858 308.202 336.641C309.674 341.239 311.789 344.457 314.548 346.297C317.307 348.137 320.709 349.056 324.756 349.056ZM422.665 371.128C414.571 371.128 410.526 366.989 410.526 358.712V267.115C416.227 265.459 424.964 263.896 436.736 262.424C448.507 260.953 461.474 260.217 475.637 260.217C490.903 260.217 502.951 261.045 511.78 262.7C520.609 264.356 527.137 267.207 531.369 271.253C535.599 275.3 538.266 280.726 539.37 287.531C540.656 294.337 541.301 302.981 541.301 313.465V352.919C541.301 357.7 540.932 361.471 540.197 364.23C539.645 366.805 537.99 368.645 535.231 369.748C532.655 370.852 528.425 371.404 522.54 371.404L492.191 371.128V301.602C492.191 296.084 490.536 292.221 487.225 290.014C484.097 287.807 480.235 286.703 475.637 286.703C473.982 286.703 472.142 286.887 470.119 287.255C468.095 287.623 466.164 288.083 464.326 288.635C462.486 289.186 461.015 289.922 459.911 290.842V371.128H422.665ZM610.529 372.231C599.126 372.231 590.297 371.128 584.043 368.921C577.79 366.713 573.376 362.942 570.8 357.609C568.225 352.275 566.937 344.918 566.937 335.537V286.427H554.798V261.045H566.937V249.181C566.937 243.847 567.306 239.985 568.041 237.594C568.777 235.019 570.341 233.455 572.731 232.903C575.307 232.168 579.169 231.8 584.319 231.8H616.599C616.599 232.719 616.507 233.731 616.323 234.835C616.323 235.938 616.323 237.134 616.323 238.421V261.045H643.637V286.427H616.599V331.95C616.599 339.308 617.243 344.733 618.53 348.228C620.002 351.539 623.956 353.194 630.394 353.194C632.049 353.194 634.256 353.01 637.015 352.643C639.958 352.275 641.981 351.907 643.085 351.539V369.197C641.798 369.381 638.211 369.933 632.325 370.852C626.439 371.771 619.174 372.231 610.529 372.231Z" fill="url(#paint1_linear_1072_2)"/>
</g>
<g clip-path="url(#clip3_1072_2)">
<path d="M127.527 373.55L80.9307 208.012H134.884L179.028 373.55H127.527Z" fill="url(#paint2_linear_1072_2)"/>
<path d="M254.807 373.55L208.211 208.012H262.164L289.14 312.24L254.807 373.55Z" fill="url(#paint3_linear_1072_2)"/>
<path d="M51.5008 373.55L134.883 208.012H80.9297L0 373.55H51.5008Z" fill="url(#paint4_linear_1072_2)"/>
<path d="M179.025 373.55L262.408 208.012H208.455L127.525 373.55H179.025Z" fill="url(#paint5_linear_1072_2)"/>
</g>
<path fill-rule="evenodd" clip-rule="evenodd" d="M444.364 90.4876C449.308 89.8517 461.483 83.6042 465.844 83.2906C469.813 83.0121 469.175 82.4661 472.169 84.2072C475.672 86.229 463.353 92.9743 470.069 104.458C474.464 112.013 496.24 136.371 497.395 137.488C484.08 132.593 447.768 107.118 441.747 98.3206C439.085 94.437 438.165 91.2968 444.364 90.4898M547.928 175.315C470.069 170.221 436.107 161.55 366.38 175.315C341.764 175.315 340.842 154.91 352.05 137.814C363.18 120.822 377.779 105.344 378.105 91.7463C378.288 83.6919 356.175 71.4951 356.881 59.6338C357.177 54.6297 344.455 63.9121 338.183 72.8766C307.737 116.287 287.752 129.155 289.352 124.324C292.479 116.021 300.487 108.98 305.327 99.3753C309.552 90.9393 310.265 90.5973 305.677 89.0074C299.081 86.7268 310.124 72.3657 297.358 84.8453C288.929 93.1015 282.777 97.3732 277.956 100.792C271.208 105.548 237.847 124.99 229.418 130.242C228.462 130.834 238.276 135.014 246.629 140.362C248.755 141.731 256.946 135.093 259.208 136.51C261.44 137.924 256.272 147.452 258.41 148.805C262.042 151.118 268.62 154.849 272.643 157.943C278.311 162.296 329.056 126.843 336.99 120.964C338.099 120.131 317.63 156.526 291.562 170.221C282.544 174.929 274.541 175.317 264.452 175.317C233.674 166.7 215.262 175.317 183.744 175.317C194.055 169.348 196.238 164.745 183.307 152.923C183.307 152.3 175.54 148.614 175.095 144.437C174.551 139.354 178.946 130.416 181.077 127.339C184.065 123.08 184.578 120.844 177.885 123.08C127.698 148.599 130.479 175.315 81.3955 175.315C91.4194 170.903 101.587 165.945 108.641 161.344C131.172 146.595 164.483 115.386 182.233 109.063C190.12 106.246 204.803 119.021 217.138 121.745C228.051 124.122 299.732 70.7649 303.952 66.0853C313.785 61.6118 318.156 63.956 326.635 61.0066C335.942 57.7589 350.98 44.7135 356.335 44.5293C367.933 44.1565 396.096 70.5938 414.93 80.6175C418.76 82.6261 425.673 83.0121 430.779 82.9946C437.443 82.9639 458.681 76.4861 461.175 76.315C475.643 75.3458 472.929 69.1772 482.425 79.032C492.488 89.4438 523.694 125.503 536.236 129.948C544.304 132.81 551.612 126.466 556.584 129.668C562.187 133.257 571.97 142.693 581.202 151.16C592.609 161.655 604.029 168.322 616.706 175.315C603.94 175.315 591.605 168.664 574.465 156.684C559.928 146.513 555.481 141.805 553.855 143.112C545.407 149.921 574.321 164.346 547.925 175.315H547.928Z" fill="url(#paint6_linear_1072_2)"/>
<path d="M334.23 36.512L336.234 25.3704L347.049 23.3064L336.234 21.2403L334.23 10.0986L332.225 21.2403L321.412 23.3064L332.225 25.3704L334.23 36.512Z" fill="#E0B246"/>
<path d="M393.525 35.5467L396.38 51.2758L399.235 35.5467L414.637 32.6311L399.235 29.7154L396.38 13.9863L393.525 29.7154L378.124 32.6311L393.525 35.5467Z" fill="#E0B246"/>
<path d="M371.519 15.5373L372.674 8.9839L378.9 7.76969L372.674 6.55338L371.519 0L370.365 6.55338L364.14 7.76969L370.365 8.9839L371.519 15.5373Z" fill="#E0B246"/>
<defs>
<linearGradient id="paint0_linear_1072_2" x1="679.281" y1="160.178" x2="679.281" y2="436.075" gradientUnits="userSpaceOnUse">
<stop stop-color="#CF962C"/>
<stop offset="1" stop-color="#E1B448"/>
</linearGradient>
<linearGradient id="paint1_linear_1072_2" x1="450.123" y1="276.193" x2="450.123" y2="373.059" gradientUnits="userSpaceOnUse">
<stop stop-color="#FCFCFC"/>
<stop offset="1" stop-color="#BFBFBE"/>
</linearGradient>
<linearGradient id="paint2_linear_1072_2" x1="129.979" y1="208.012" x2="129.979" y2="373.55" gradientUnits="userSpaceOnUse">
<stop stop-color="#F1F1F1"/>
<stop offset="1" stop-color="#999999"/>
</linearGradient>
<linearGradient id="paint3_linear_1072_2" x1="248.675" y1="208.012" x2="248.675" y2="373.55" gradientUnits="userSpaceOnUse">
<stop stop-color="#E4B94C"/>
<stop offset="1" stop-color="#CB8F25"/>
</linearGradient>
<linearGradient id="paint4_linear_1072_2" x1="67.4415" y1="208.012" x2="67.4415" y2="373.55" gradientUnits="userSpaceOnUse">
<stop stop-color="#BBBBBB"/>
<stop offset="1" stop-color="white"/>
</linearGradient>
<linearGradient id="paint5_linear_1072_2" x1="194.967" y1="208.012" x2="194.967" y2="373.55" gradientUnits="userSpaceOnUse">
<stop stop-color="#BBBBBB"/>
<stop offset="1" stop-color="white"/>
</linearGradient>
<linearGradient id="paint6_linear_1072_2" x1="81.3955" y1="109.921" x2="616.706" y2="109.921" gradientUnits="userSpaceOnUse">
<stop stop-color="#C3C3C3"/>
<stop offset="1" stop-color="#FBFBFB"/>
</linearGradient>
<clipPath id="clip0_1072_2">
<rect width="251.618" height="44.1435" fill="white" transform="translate(289.164 195.489)"/>
</clipPath>
<clipPath id="clip1_1072_2">
<rect width="40.8328" height="45.2471" fill="white" transform="translate(654.45 241.844)"/>
</clipPath>
<clipPath id="clip2_1072_2">
<rect width="387.359" height="142.363" fill="white" transform="translate(256.609 230.972)"/>
</clipPath>
<clipPath id="clip3_1072_2">
<rect width="289.14" height="165.538" fill="white" transform="translate(0 208.012)"/>
</clipPath>
</defs>
</svg>
