<svg width="696" height="179" viewBox="0 0 696 179" fill="none" xmlns="http://www.w3.org/2000/svg">
<g clip-path="url(#clip0_1073_57)">
<path d="M291.785 43.0398C291.463 43.0398 291.119 42.9593 290.751 42.7983C290.406 42.6374 290.233 42.1202 290.233 41.2465V18.3126C290.233 17.5768 290.394 17.1169 290.716 16.9331C291.038 16.7261 291.348 16.6226 291.647 16.6226C292.038 16.6226 292.349 16.7261 292.579 16.9331C292.831 17.1169 292.958 17.5768 292.958 18.3126V22.5544C293.694 20.4623 295.211 18.8413 297.51 17.6917C299.832 16.5192 302.488 15.9329 305.477 15.9329C307.822 15.9329 309.569 16.3238 310.719 17.1055C311.891 17.8871 312.696 18.7838 313.133 19.7955C313.57 20.8071 313.857 21.6692 313.995 22.3819C314.547 21.4163 315.352 20.4392 316.409 19.4506C317.49 18.462 318.869 17.6343 320.548 16.9675C322.226 16.2778 324.238 15.9329 326.583 15.9329C329.733 15.9329 332.066 16.7491 333.584 18.3814C335.124 20.0139 335.894 22.6119 335.894 26.1756V41.2465C335.894 42.0512 335.733 42.557 335.411 42.7639C335.113 42.9479 334.825 43.0398 334.549 43.0398C334.204 43.0398 333.883 42.9593 333.584 42.7983C333.285 42.6374 333.135 42.1202 333.135 41.2465V26.1756C333.135 22.9798 332.595 20.8186 331.514 19.6921C330.457 18.5424 328.836 17.9676 326.652 17.9676C323.709 17.9676 321.26 18.5654 319.306 19.7609C317.375 20.9565 315.765 22.6005 314.478 24.6926V41.2465C314.478 42.0512 314.328 42.557 314.029 42.7639C313.731 42.9479 313.443 43.0398 313.167 43.0398C312.845 43.0398 312.524 42.9593 312.202 42.7983C311.88 42.6374 311.719 42.1202 311.719 41.2465V24.6926C311.719 22.6005 311.225 20.9565 310.236 19.7609C309.27 18.5654 307.707 17.9676 305.546 17.9676C302.304 17.9676 299.533 18.6459 297.234 20.0024C294.958 21.3589 293.544 22.9683 292.992 24.8306V41.2465C292.992 42.0512 292.854 42.557 292.579 42.7639C292.326 42.9479 292.061 43.0398 291.785 43.0398ZM363.534 43.4192C357.786 43.4192 353.636 42.2236 351.084 39.8325C348.532 37.4183 347.256 34.0617 347.256 29.7623C347.256 26.1986 347.98 23.4167 349.428 21.4163C350.9 19.4162 352.889 18.0021 355.395 17.1744C357.901 16.3468 360.694 15.9329 363.775 15.9329C368.557 15.9329 372.132 16.8525 374.501 18.6919C376.892 20.5082 378.087 23.1177 378.087 26.5204C378.087 27.1413 377.995 27.8769 377.811 28.7276C377.627 29.5553 377.443 29.9691 377.26 29.9691L350.015 29.6243C350.107 34.1536 351.279 37.2459 353.532 38.9013C355.809 40.5567 359.131 41.3844 363.499 41.3844C366.074 41.3844 368.224 41.1545 369.948 40.6947C371.696 40.2118 373.098 39.683 374.156 39.1083C375.236 38.5104 376.03 38.0392 376.535 37.6942C376.604 37.6483 376.696 37.6254 376.811 37.6254C377.064 37.6254 377.294 37.7517 377.501 38.0047C377.731 38.2345 377.846 38.4875 377.846 38.7634C377.846 39.0163 377.731 39.2232 377.501 39.3841C377.248 39.6371 376.593 40.0968 375.535 40.7636C374.501 41.4074 372.995 42.0166 371.017 42.5915C369.063 43.1433 366.569 43.4192 363.534 43.4192ZM350.049 27.9344H376.053V26.3136C376.053 24.7731 375.662 23.3821 374.88 22.1406C374.098 20.8761 372.811 19.8644 371.017 19.1057C369.224 18.347 366.81 17.9676 363.775 17.9676C359.522 17.9676 356.211 18.7034 353.843 20.1748C351.498 21.6463 350.233 24.2328 350.049 27.9344ZM359.878 11.7599C359.257 11.7599 358.947 11.4611 358.947 10.8633C358.947 10.6334 359.039 10.4265 359.223 10.2425L367.914 0.724085C368.167 0.471179 368.454 0.344727 368.776 0.344727C369.282 0.344727 369.718 0.551649 370.086 0.965495C370.454 1.37934 370.638 1.83917 370.638 2.34498C370.638 2.71284 370.466 3.03472 370.121 3.31062L360.395 11.5875C360.234 11.7025 360.062 11.7599 359.878 11.7599ZM399.347 43.3847C396.863 43.3847 394.771 42.6604 393.07 41.212C391.392 39.7405 390.552 37.1424 390.552 33.4178V18.7953H387.517C386.874 18.7953 386.552 18.5194 386.552 17.9676C386.552 17.4158 386.874 17.1399 387.517 17.1399H390.552V8.55266C390.552 7.81693 390.702 7.35711 391.001 7.17318C391.299 6.96625 391.61 6.86279 391.932 6.86279C392.323 6.86279 392.645 6.96625 392.897 7.17318C393.173 7.35711 393.311 7.81693 393.311 8.55266V17.1399H404.761C405.45 17.1399 405.796 17.4158 405.796 17.9676C405.796 18.5194 405.45 18.7953 404.761 18.7953H393.311V33.4178C393.311 35.6481 393.599 37.3379 394.173 38.4875C394.771 39.614 395.564 40.3727 396.553 40.7636C397.542 41.1545 398.634 41.35 399.829 41.35C400.932 41.35 402.014 41.1545 403.071 40.7636C404.128 40.3727 405.347 39.8095 406.726 39.0737C407.002 38.9358 407.267 38.8669 407.52 38.8669C408.164 38.8669 408.485 39.1657 408.485 39.7635C408.485 40.2233 408.233 40.5911 407.727 40.867C405.796 41.9247 404.255 42.6145 403.105 42.9363C401.956 43.2352 400.703 43.3847 399.347 43.3847ZM432.297 43.3847C428.066 43.3847 424.698 42.8329 422.192 41.7293C419.686 40.6257 417.881 39.0622 416.778 37.039C415.697 34.9928 415.157 32.5672 415.157 29.7623C415.157 24.8881 416.536 21.3704 419.295 19.2091C422.077 17.025 426.411 15.9329 432.297 15.9329C438.183 15.9329 442.506 17.025 445.265 19.2091C448.046 21.3704 449.437 24.8881 449.437 29.7623C449.437 32.5672 448.885 34.9928 447.782 37.039C446.701 39.0622 444.908 40.6257 442.402 41.7293C439.896 42.8329 436.527 43.3847 432.297 43.3847ZM432.297 41.35C435.424 41.35 437.941 41.0166 439.849 40.3498C441.757 39.683 443.195 38.7863 444.161 37.6598C445.149 36.5332 445.816 35.2917 446.161 33.9352C446.506 32.5557 446.678 31.1647 446.678 29.7623C446.678 25.4859 445.54 22.451 443.264 20.6577C440.988 18.8644 437.332 17.9676 432.297 17.9676C427.262 17.9676 423.607 18.8644 421.33 20.6577C419.054 22.451 417.915 25.4859 417.915 29.7623C417.915 31.1647 418.089 32.5557 418.433 33.9352C418.778 35.2917 419.433 36.5332 420.399 37.6598C421.387 38.7863 422.836 39.683 424.744 40.3498C426.653 41.0166 429.17 41.35 432.297 41.35ZM475.317 43.3847C472.559 43.3847 470.018 42.9823 467.696 42.1777C465.396 41.3729 463.546 39.9934 462.143 38.0392C460.741 36.0849 460.039 33.3834 460.039 29.9347C460.039 24.7846 461.362 21.1635 464.006 19.0712C466.673 16.979 470.443 15.9329 475.317 15.9329C478.537 15.9329 481.18 16.1743 483.249 16.6572C485.318 17.1399 486.952 17.7262 488.147 18.416C489.365 19.0828 490.262 19.715 490.836 20.3127V7.06972C490.836 6.44895 490.895 5.88565 491.009 5.37985C491.124 4.87404 491.515 4.62113 492.181 4.62113C492.848 4.62113 493.251 4.85104 493.389 5.31087C493.527 5.7707 493.595 6.33399 493.595 7.00074V41.1775C493.595 41.9132 493.446 42.4075 493.147 42.6604C492.871 42.9133 492.572 43.0398 492.251 43.0398C491.86 43.0398 491.526 42.9248 491.25 42.6949C490.974 42.465 490.836 41.9822 490.836 41.2465V36.4527C490.469 37.9242 489.675 39.1197 488.457 40.0393C487.262 40.9591 485.87 41.6603 484.284 42.1431C482.697 42.6259 481.1 42.9479 479.49 43.1088C477.881 43.2927 476.49 43.3847 475.317 43.3847ZM475.317 41.35C476.697 41.35 478.191 41.2579 479.8 41.0741C481.434 40.867 483.008 40.5107 484.526 40.0049C486.043 39.4991 487.365 38.7978 488.491 37.9013C489.641 36.9815 490.422 35.7975 490.836 34.349V21.9337C490.146 21.3589 489.17 20.7726 487.905 20.1748C486.663 19.5541 485.02 19.0367 482.973 18.6229C480.95 18.1861 478.399 17.9676 475.317 17.9676C470.903 17.9676 467.707 18.9218 465.73 20.8301C463.776 22.7153 462.798 25.7502 462.798 29.9347C462.798 32.8316 463.362 35.1192 464.488 36.7977C465.615 38.453 467.121 39.6255 469.006 40.3152C470.914 41.005 473.019 41.35 475.317 41.35ZM522.615 43.3847C518.384 43.3847 515.016 42.8329 512.51 41.7293C510.003 40.6257 508.199 39.0622 507.095 37.039C506.015 34.9928 505.474 32.5672 505.474 29.7623C505.474 24.8881 506.854 21.3704 509.613 19.2091C512.395 17.025 516.729 15.9329 522.615 15.9329C528.5 15.9329 532.823 17.025 535.582 19.2091C538.363 21.3704 539.755 24.8881 539.755 29.7623C539.755 32.5672 539.203 34.9928 538.1 37.039C537.019 39.0622 535.226 40.6257 532.72 41.7293C530.213 42.8329 526.845 43.3847 522.615 43.3847ZM522.615 41.35C525.742 41.35 528.259 41.0166 530.167 40.3498C532.075 39.683 533.513 38.7863 534.479 37.6598C535.466 36.5332 536.134 35.2917 536.478 33.9352C536.824 32.5557 536.996 31.1647 536.996 29.7623C536.996 25.4859 535.858 22.451 533.581 20.6577C531.306 18.8644 527.65 17.9676 522.615 17.9676C517.579 17.9676 513.924 18.8644 511.648 20.6577C509.372 22.451 508.233 25.4859 508.233 29.7623C508.233 31.1647 508.406 32.5557 508.751 33.9352C509.096 35.2917 509.751 36.5332 510.716 37.6598C511.705 38.7863 513.154 39.683 515.062 40.3498C516.97 41.0166 519.487 41.35 522.615 41.35Z" fill="#D0972D"/>
<mask id="mask0_1073_57" style="mask-type:luminance" maskUnits="userSpaceOnUse" x="288" y="-2" width="254" height="48">
<path d="M541.886 -1.10352H288.061V45.2472H541.886V-1.10352Z" fill="white"/>
<path d="M291.785 43.0398C291.463 43.0398 291.119 42.9593 290.751 42.7983C290.406 42.6374 290.233 42.1202 290.233 41.2465V18.3126C290.233 17.5768 290.394 17.1169 290.716 16.9331C291.038 16.7261 291.348 16.6226 291.647 16.6226C292.038 16.6226 292.349 16.7261 292.579 16.9331C292.831 17.1169 292.958 17.5768 292.958 18.3126V22.5544C293.694 20.4623 295.211 18.8413 297.51 17.6917C299.832 16.5192 302.488 15.9329 305.477 15.9329C307.822 15.9329 309.569 16.3238 310.719 17.1055C311.891 17.8871 312.696 18.7838 313.133 19.7955C313.57 20.8071 313.857 21.6692 313.995 22.3819C314.547 21.4163 315.352 20.4392 316.409 19.4506C317.49 18.462 318.869 17.6343 320.548 16.9675C322.226 16.2778 324.238 15.9329 326.583 15.9329C329.733 15.9329 332.066 16.7491 333.584 18.3814C335.124 20.0139 335.894 22.6119 335.894 26.1756V41.2465C335.894 42.0512 335.733 42.557 335.411 42.7639C335.113 42.9479 334.825 43.0398 334.549 43.0398C334.204 43.0398 333.883 42.9593 333.584 42.7983C333.285 42.6374 333.135 42.1202 333.135 41.2465V26.1756C333.135 22.9798 332.595 20.8186 331.514 19.6921C330.457 18.5424 328.836 17.9676 326.652 17.9676C323.709 17.9676 321.26 18.5654 319.306 19.7609C317.375 20.9565 315.765 22.6005 314.478 24.6926V41.2465C314.478 42.0512 314.328 42.557 314.029 42.7639C313.731 42.9479 313.443 43.0398 313.167 43.0398C312.845 43.0398 312.524 42.9593 312.202 42.7983C311.88 42.6374 311.719 42.1202 311.719 41.2465V24.6926C311.719 22.6005 311.225 20.9565 310.236 19.7609C309.27 18.5654 307.707 17.9676 305.546 17.9676C302.304 17.9676 299.533 18.6459 297.234 20.0024C294.958 21.3589 293.544 22.9683 292.992 24.8306V41.2465C292.992 42.0512 292.854 42.557 292.579 42.7639C292.326 42.9479 292.061 43.0398 291.785 43.0398ZM363.534 43.4192C357.786 43.4192 353.636 42.2236 351.084 39.8325C348.532 37.4183 347.256 34.0617 347.256 29.7623C347.256 26.1986 347.98 23.4167 349.428 21.4163C350.9 19.4162 352.889 18.0021 355.395 17.1744C357.901 16.3468 360.694 15.9329 363.775 15.9329C368.557 15.9329 372.132 16.8525 374.501 18.6919C376.892 20.5082 378.087 23.1177 378.087 26.5204C378.087 27.1413 377.995 27.8769 377.811 28.7276C377.627 29.5553 377.443 29.9691 377.26 29.9691L350.015 29.6243C350.107 34.1536 351.279 37.2459 353.532 38.9013C355.809 40.5567 359.131 41.3844 363.499 41.3844C366.074 41.3844 368.224 41.1545 369.948 40.6947C371.696 40.2118 373.098 39.683 374.156 39.1083C375.236 38.5104 376.03 38.0392 376.535 37.6942C376.604 37.6483 376.696 37.6254 376.811 37.6254C377.064 37.6254 377.294 37.7517 377.501 38.0047C377.731 38.2345 377.846 38.4875 377.846 38.7634C377.846 39.0163 377.731 39.2232 377.501 39.3841C377.248 39.6371 376.593 40.0968 375.535 40.7636C374.501 41.4074 372.995 42.0166 371.017 42.5915C369.063 43.1433 366.569 43.4192 363.534 43.4192ZM350.049 27.9344H376.053V26.3136C376.053 24.7731 375.662 23.3821 374.88 22.1406C374.098 20.8761 372.811 19.8644 371.017 19.1057C369.224 18.347 366.81 17.9676 363.775 17.9676C359.522 17.9676 356.211 18.7034 353.843 20.1748C351.498 21.6463 350.233 24.2328 350.049 27.9344ZM359.878 11.7599C359.257 11.7599 358.947 11.4611 358.947 10.8633C358.947 10.6334 359.039 10.4265 359.223 10.2425L367.914 0.724085C368.167 0.471179 368.454 0.344727 368.776 0.344727C369.282 0.344727 369.718 0.551649 370.086 0.965495C370.454 1.37934 370.638 1.83917 370.638 2.34498C370.638 2.71284 370.466 3.03472 370.121 3.31062L360.395 11.5875C360.234 11.7025 360.062 11.7599 359.878 11.7599ZM399.347 43.3847C396.863 43.3847 394.771 42.6604 393.07 41.212C391.392 39.7405 390.552 37.1424 390.552 33.4178V18.7953H387.517C386.874 18.7953 386.552 18.5194 386.552 17.9676C386.552 17.4158 386.874 17.1399 387.517 17.1399H390.552V8.55266C390.552 7.81693 390.702 7.35711 391.001 7.17318C391.299 6.96625 391.61 6.86279 391.932 6.86279C392.323 6.86279 392.645 6.96625 392.897 7.17318C393.173 7.35711 393.311 7.81693 393.311 8.55266V17.1399H404.761C405.45 17.1399 405.796 17.4158 405.796 17.9676C405.796 18.5194 405.45 18.7953 404.761 18.7953H393.311V33.4178C393.311 35.6481 393.599 37.3379 394.173 38.4875C394.771 39.614 395.564 40.3727 396.553 40.7636C397.542 41.1545 398.634 41.35 399.829 41.35C400.932 41.35 402.014 41.1545 403.071 40.7636C404.128 40.3727 405.347 39.8095 406.726 39.0737C407.002 38.9358 407.267 38.8669 407.52 38.8669C408.164 38.8669 408.485 39.1657 408.485 39.7635C408.485 40.2233 408.233 40.5911 407.727 40.867C405.796 41.9247 404.255 42.6145 403.105 42.9363C401.956 43.2352 400.703 43.3847 399.347 43.3847ZM432.297 43.3847C428.066 43.3847 424.698 42.8329 422.192 41.7293C419.686 40.6257 417.881 39.0622 416.778 37.039C415.697 34.9928 415.157 32.5672 415.157 29.7623C415.157 24.8881 416.536 21.3704 419.295 19.2091C422.077 17.025 426.411 15.9329 432.297 15.9329C438.183 15.9329 442.506 17.025 445.265 19.2091C448.046 21.3704 449.437 24.8881 449.437 29.7623C449.437 32.5672 448.885 34.9928 447.782 37.039C446.701 39.0622 444.908 40.6257 442.402 41.7293C439.896 42.8329 436.527 43.3847 432.297 43.3847ZM432.297 41.35C435.424 41.35 437.941 41.0166 439.849 40.3498C441.757 39.683 443.195 38.7863 444.161 37.6598C445.149 36.5332 445.816 35.2917 446.161 33.9352C446.506 32.5557 446.678 31.1647 446.678 29.7623C446.678 25.4859 445.54 22.451 443.264 20.6577C440.988 18.8644 437.332 17.9676 432.297 17.9676C427.262 17.9676 423.607 18.8644 421.33 20.6577C419.054 22.451 417.915 25.4859 417.915 29.7623C417.915 31.1647 418.089 32.5557 418.433 33.9352C418.778 35.2917 419.433 36.5332 420.399 37.6598C421.387 38.7863 422.836 39.683 424.744 40.3498C426.653 41.0166 429.17 41.35 432.297 41.35ZM475.317 43.3847C472.559 43.3847 470.018 42.9823 467.696 42.1777C465.396 41.3729 463.546 39.9934 462.143 38.0392C460.741 36.0849 460.039 33.3834 460.039 29.9347C460.039 24.7846 461.362 21.1635 464.006 19.0712C466.673 16.979 470.443 15.9329 475.317 15.9329C478.537 15.9329 481.18 16.1743 483.249 16.6572C485.318 17.1399 486.952 17.7262 488.147 18.416C489.365 19.0828 490.262 19.715 490.836 20.3127V7.06972C490.836 6.44895 490.895 5.88565 491.009 5.37985C491.124 4.87404 491.515 4.62113 492.181 4.62113C492.848 4.62113 493.251 4.85104 493.389 5.31087C493.527 5.7707 493.595 6.33399 493.595 7.00074V41.1775C493.595 41.9132 493.446 42.4075 493.147 42.6604C492.871 42.9133 492.572 43.0398 492.251 43.0398C491.86 43.0398 491.526 42.9248 491.25 42.6949C490.974 42.465 490.836 41.9822 490.836 41.2465V36.4527C490.469 37.9242 489.675 39.1197 488.457 40.0393C487.262 40.9591 485.87 41.6603 484.284 42.1431C482.697 42.6259 481.1 42.9479 479.49 43.1088C477.881 43.2927 476.49 43.3847 475.317 43.3847ZM475.317 41.35C476.697 41.35 478.191 41.2579 479.8 41.0741C481.434 40.867 483.008 40.5107 484.526 40.0049C486.043 39.4991 487.365 38.7978 488.491 37.9013C489.641 36.9815 490.422 35.7975 490.836 34.349V21.9337C490.146 21.3589 489.17 20.7726 487.905 20.1748C486.663 19.5541 485.02 19.0367 482.973 18.6229C480.95 18.1861 478.399 17.9676 475.317 17.9676C470.903 17.9676 467.707 18.9218 465.73 20.8301C463.776 22.7153 462.798 25.7502 462.798 29.9347C462.798 32.8316 463.362 35.1192 464.488 36.7977C465.615 38.453 467.121 39.6255 469.006 40.3152C470.914 41.005 473.019 41.35 475.317 41.35ZM522.615 43.3847C518.384 43.3847 515.016 42.8329 512.51 41.7293C510.003 40.6257 508.199 39.0622 507.095 37.039C506.015 34.9928 505.474 32.5672 505.474 29.7623C505.474 24.8881 506.854 21.3704 509.613 19.2091C512.395 17.025 516.729 15.9329 522.615 15.9329C528.5 15.9329 532.823 17.025 535.582 19.2091C538.363 21.3704 539.755 24.8881 539.755 29.7623C539.755 32.5672 539.203 34.9928 538.1 37.039C537.019 39.0622 535.226 40.6257 532.72 41.7293C530.213 42.8329 526.845 43.3847 522.615 43.3847ZM522.615 41.35C525.742 41.35 528.259 41.0166 530.167 40.3498C532.075 39.683 533.513 38.7863 534.479 37.6598C535.466 36.5332 536.134 35.2917 536.478 33.9352C536.824 32.5557 536.996 31.1647 536.996 29.7623C536.996 25.4859 535.858 22.451 533.581 20.6577C531.306 18.8644 527.65 17.9676 522.615 17.9676C517.579 17.9676 513.924 18.8644 511.648 20.6577C509.372 22.451 508.233 25.4859 508.233 29.7623C508.233 31.1647 508.406 32.5557 508.751 33.9352C509.096 35.2917 509.751 36.5332 510.716 37.6598C511.705 38.7863 513.154 39.683 515.062 40.3498C516.97 41.0166 519.487 41.35 522.615 41.35Z" fill="black"/>
</mask>
<g mask="url(#mask0_1073_57)">
<path d="M290.751 42.7984L290.284 43.7985L290.296 43.8042L290.308 43.8095L290.751 42.7984ZM290.716 16.9332L291.264 17.8913L291.289 17.877L291.313 17.8614L290.716 16.9332ZM292.579 16.9332L291.84 17.7533L291.883 17.7919L291.929 17.8256L292.579 16.9332ZM292.958 22.5545H291.854L293.999 22.9206L292.958 22.5545ZM297.51 17.6918L298.004 18.6789L298.008 18.6769L297.51 17.6918ZM310.719 17.1055L310.098 18.0182L310.107 18.0238L310.719 17.1055ZM313.995 22.382L312.912 22.5918L313.477 25.513L314.953 22.9296L313.995 22.382ZM316.409 19.4507L315.664 18.6364L315.656 18.6445L316.409 19.4507ZM320.548 16.9676L320.955 17.9933L320.967 17.9883L320.548 16.9676ZM333.584 18.3815L332.776 19.1329L332.781 19.139L333.584 18.3815ZM335.412 42.764L335.99 43.7039L335.999 43.6982L336.008 43.6923L335.412 42.764ZM331.515 19.6921L330.702 20.4393L330.71 20.4478L330.718 20.456L331.515 19.6921ZM319.306 19.761L318.73 18.8196L318.725 18.8227L319.306 19.761ZM314.478 24.6927L313.538 24.1143L313.374 24.3804V24.6927H314.478ZM314.03 42.764L314.608 43.7039L314.633 43.6882L314.658 43.6713L314.03 42.764ZM310.236 19.761L309.377 20.4545L309.386 20.4643L310.236 19.761ZM297.234 20.0025L296.674 19.0519L296.669 19.0545L297.234 20.0025ZM292.992 24.8307L291.934 24.5171L291.889 24.6706V24.8307H292.992ZM292.579 42.764L293.228 43.6564L293.234 43.6517L293.241 43.6468L292.579 42.764ZM291.785 41.9363C291.648 41.9363 291.455 41.902 291.193 41.7874L290.308 43.8095C290.782 44.0169 291.279 44.1435 291.785 44.1435V41.9363ZM291.217 41.7984C291.421 41.8931 291.442 42.0382 291.41 41.9408C291.377 41.8416 291.337 41.6272 291.337 41.2465H289.13C289.13 41.7396 289.176 42.2207 289.316 42.6387C289.456 43.0586 289.736 43.5428 290.284 43.7985L291.217 41.7984ZM291.337 41.2465V18.3126H289.13V41.2465H291.337ZM291.337 18.3126C291.337 18.0121 291.372 17.8496 291.396 17.7805C291.417 17.7213 291.398 17.8146 291.264 17.8913L290.169 15.9749C289.713 16.2356 289.453 16.6506 289.313 17.0514C289.176 17.4421 289.13 17.8774 289.13 18.3126H291.337ZM291.313 17.8614C291.506 17.7371 291.612 17.7263 291.647 17.7263V15.5191C291.085 15.5191 290.57 15.7152 290.12 16.0048L291.313 17.8614ZM291.647 17.7263C291.747 17.7263 291.801 17.7396 291.824 17.7473C291.844 17.7538 291.845 17.7572 291.84 17.7533L293.317 16.1129C292.835 15.6792 292.236 15.5191 291.647 15.5191V17.7263ZM291.929 17.8256C291.772 17.7108 291.769 17.5994 291.799 17.7085C291.826 17.8063 291.854 17.9962 291.854 18.3126H294.062C294.062 17.8932 294.027 17.4854 293.927 17.1233C293.831 16.7727 293.639 16.3394 293.228 16.0406L291.929 17.8256ZM291.854 18.3126V22.5545H294.062V18.3126H291.854ZM293.999 22.9206C294.625 21.1416 295.917 19.7223 298.004 18.6789L297.017 16.7047C294.505 17.9605 292.763 19.783 291.917 22.1885L293.999 22.9206ZM298.008 18.6769C300.154 17.5931 302.635 17.0366 305.477 17.0366V14.8294C302.341 14.8294 299.511 15.4454 297.013 16.7067L298.008 18.6769ZM305.477 17.0366C307.737 17.0366 309.219 17.4202 310.098 18.0182L311.339 16.193C309.92 15.2276 307.907 14.8294 305.477 14.8294V17.0366ZM310.107 18.0238C311.151 18.72 311.788 19.4649 312.12 20.233L314.146 19.3581C313.604 18.103 312.632 17.0546 311.331 16.1872L310.107 18.0238ZM312.12 20.233C312.539 21.2049 312.795 21.9864 312.912 22.5918L315.079 22.1723C314.92 21.3523 314.6 20.4094 314.146 19.3581L312.12 20.233ZM314.953 22.9296C315.437 22.0838 316.163 21.1915 317.163 20.2568L315.656 18.6445C314.54 19.6872 313.657 20.749 313.037 21.8345L314.953 22.9296ZM317.154 20.2649C318.116 19.3849 319.373 18.6217 320.955 17.9933L320.14 15.9419C318.365 16.647 316.864 17.5391 315.664 18.6364L317.154 20.2649ZM320.967 17.9883C322.48 17.3668 324.341 17.0366 326.583 17.0366V14.8294C324.134 14.8294 321.972 15.1889 320.128 15.9469L320.967 17.9883ZM326.583 17.0366C329.556 17.0366 331.541 17.8051 332.776 19.1329L334.392 17.6302C332.591 15.6932 329.91 14.8294 326.583 14.8294V17.0366ZM332.781 19.139C334.042 20.4748 334.791 22.7352 334.791 26.1757H336.998C336.998 22.4888 336.207 19.5532 334.386 17.6241L332.781 19.139ZM334.791 26.1757V41.2465H336.998V26.1757H334.791ZM334.791 41.2465C334.791 41.5875 334.755 41.7906 334.722 41.8948C334.69 41.9969 334.689 41.9164 334.815 41.8356L336.008 43.6923C336.456 43.4046 336.697 42.9678 336.825 42.564C336.953 42.1624 336.998 41.7102 336.998 41.2465H334.791ZM334.833 41.824C334.662 41.9298 334.572 41.9363 334.549 41.9363V44.1435C335.078 44.1435 335.564 43.966 335.99 43.7039L334.833 41.824ZM334.549 41.9363C334.384 41.9363 334.242 41.8997 334.107 41.8268L333.061 43.7701C333.523 44.0191 334.025 44.1435 334.549 44.1435V41.9363ZM334.107 41.8268C334.337 41.9505 334.347 42.119 334.308 41.9835C334.274 41.8666 334.239 41.6355 334.239 41.2465H332.032C332.032 41.7311 332.072 42.1956 332.187 42.5961C332.298 42.9778 332.532 43.4854 333.061 43.7701L334.107 41.8268ZM334.239 41.2465V26.1757H332.032V41.2465H334.239ZM334.239 26.1757C334.239 22.9493 333.713 20.39 332.311 18.9281L330.718 20.456C331.477 21.2472 332.032 23.0104 332.032 26.1757H334.239ZM332.327 18.9449C330.988 17.4894 329.018 16.8641 326.652 16.8641V19.0713C328.654 19.0713 329.926 19.5957 330.702 20.4393L332.327 18.9449ZM326.652 16.8641C323.563 16.8641 320.901 17.4918 318.73 18.8196L319.882 20.7025C321.62 19.6392 323.855 19.0713 326.652 19.0713V16.8641ZM318.725 18.8227C316.636 20.1159 314.908 21.8879 313.538 24.1143L315.418 25.2711C316.623 23.313 318.113 21.7973 319.887 20.6994L318.725 18.8227ZM313.374 24.6927V41.2465H315.582V24.6927H313.374ZM313.374 41.2465C313.374 41.5924 313.341 41.8037 313.307 41.9167C313.273 42.0338 313.268 41.9486 313.401 41.8566L314.658 43.6713C315.09 43.3724 315.309 42.9307 315.424 42.5421C315.54 42.1493 315.582 41.7054 315.582 41.2465H313.374ZM313.451 41.824C313.28 41.9298 313.19 41.9363 313.167 41.9363V44.1435C313.696 44.1435 314.182 43.966 314.608 43.7039L313.451 41.824ZM313.167 41.9363C313.036 41.9363 312.882 41.9048 312.695 41.8113L311.708 43.7856C312.165 44.014 312.655 44.1435 313.167 44.1435V41.9363ZM312.695 41.8113C312.913 41.9204 312.929 42.0776 312.893 41.9619C312.86 41.8541 312.823 41.6315 312.823 41.2465H310.615C310.615 41.7353 310.659 42.2081 310.786 42.6176C310.911 43.0191 311.168 43.5156 311.708 43.7856L312.695 41.8113ZM312.823 41.2465V24.6927H310.615V41.2465H312.823ZM312.823 24.6927C312.823 22.4333 312.288 20.5107 311.086 19.0578L309.386 20.4643C310.161 21.4025 310.615 22.7676 310.615 24.6927H312.823ZM311.095 19.0676C309.844 17.5193 307.898 16.8641 305.546 16.8641V19.0713C307.516 19.0713 308.697 19.6117 309.377 20.4545L311.095 19.0676ZM305.546 16.8641C302.149 16.8641 299.176 17.5758 296.674 19.0519L297.795 20.953C299.891 19.7162 302.459 19.0713 305.546 19.0713V16.8641ZM296.669 19.0545C294.243 20.5006 292.59 22.3049 291.934 24.5171L294.051 25.1442C294.499 23.6318 295.674 22.2174 297.799 20.9504L296.669 19.0545ZM291.889 24.8307V41.2465H294.096V24.8307H291.889ZM291.889 41.2465C291.889 41.5971 291.858 41.817 291.824 41.939C291.788 42.0721 291.779 41.9841 291.916 41.8811L293.241 43.6468C293.654 43.3369 293.852 42.8925 293.954 42.5197C294.058 42.136 294.096 41.7007 294.096 41.2465H291.889ZM291.929 41.8715C291.839 41.9373 291.798 41.9363 291.785 41.9363V44.1435C292.325 44.1435 292.812 43.9585 293.228 43.6564L291.929 41.8715ZM351.084 39.8326L350.326 40.6343L350.329 40.6379L351.084 39.8326ZM349.429 21.4164L348.54 20.7625L348.535 20.7691L349.429 21.4164ZM374.501 18.692L373.824 19.5636L373.833 19.5707L374.501 18.692ZM377.811 28.7277L378.889 28.9671L378.89 28.9609L377.811 28.7277ZM377.26 29.9692L377.246 31.0728H377.26V29.9692ZM350.015 29.6244L350.029 28.5208L348.888 28.5064L348.912 29.6468L350.015 29.6244ZM353.532 38.9014L352.879 39.7908L352.883 39.7939L353.532 38.9014ZM369.948 40.6947L370.233 41.7611L370.242 41.7585L369.948 40.6947ZM374.156 39.1083L374.683 40.0779L374.69 40.074L374.156 39.1083ZM376.535 37.6943L375.923 36.7761L375.914 36.7825L376.535 37.6943ZM377.501 38.0047L376.647 38.7035L376.682 38.7461L376.721 38.7851L377.501 38.0047ZM377.501 39.3842L376.868 38.4802L376.789 38.5356L376.721 38.6039L377.501 39.3842ZM375.535 40.7637L376.118 41.7008L376.124 41.6972L375.535 40.7637ZM371.017 42.5916L371.317 43.6537L371.325 43.6513L371.017 42.5916ZM350.049 27.9345L348.947 27.8798L348.89 29.0381H350.049V27.9345ZM376.053 27.9345V29.0381H377.156V27.9345H376.053ZM374.88 22.1407L373.941 22.7209L373.946 22.7287L374.88 22.1407ZM353.843 20.1748L353.26 19.2376L353.256 19.2401L353.843 20.1748ZM359.223 10.2426L360.003 11.023L360.021 11.0052L360.038 10.9867L359.223 10.2426ZM367.914 0.724157L367.133 -0.0561972L367.116 -0.038471L367.099 -0.0199582L367.914 0.724157ZM370.121 3.31069L369.431 2.44893L369.418 2.45941L369.406 2.47027L370.121 3.31069ZM360.395 11.5876L361.037 12.4856L361.075 12.4584L361.111 12.428L360.395 11.5876ZM363.534 42.3157C357.896 42.3157 354.089 41.1356 351.838 39.0272L350.329 40.6379C353.183 43.3117 357.676 44.5229 363.534 44.5229V42.3157ZM351.842 39.0309C349.558 36.8705 348.359 33.8313 348.359 29.7624H346.152C346.152 34.2922 347.505 37.9665 350.326 40.6343L351.842 39.0309ZM348.359 29.7624C348.359 26.3322 349.059 23.8088 350.322 22.0637L348.535 20.7691C346.902 23.0245 346.152 26.0651 346.152 29.7624H348.359ZM350.317 22.0704C351.645 20.2666 353.438 18.9831 355.741 18.2225L355.049 16.1266C352.34 17.0213 350.155 18.5658 348.54 20.7625L350.317 22.0704ZM355.741 18.2225C358.118 17.4372 360.793 17.0366 363.775 17.0366V14.8294C360.596 14.8294 357.683 15.2565 355.049 16.1266L355.741 18.2225ZM363.775 17.0366C368.448 17.0366 371.734 17.9407 373.824 19.5636L375.178 17.8203C372.531 15.7645 368.667 14.8294 363.775 14.8294V17.0366ZM373.833 19.5707C375.91 21.1485 376.984 23.4103 376.984 26.5205H379.191C379.191 22.8252 377.873 19.8679 375.168 17.8132L373.833 19.5707ZM376.984 26.5205C376.984 27.0386 376.906 27.6924 376.733 28.4945L378.89 28.9609C379.085 28.0616 379.191 27.244 379.191 26.5205H376.984ZM376.734 28.4883C376.647 28.8809 376.574 29.1057 376.527 29.2107C376.502 29.2674 376.511 29.2283 376.573 29.1585C376.63 29.0943 376.86 28.8656 377.26 28.8656V31.0728C377.752 31.0728 378.073 30.7925 378.222 30.6248C378.377 30.4515 378.477 30.2572 378.544 30.107C378.681 29.7981 378.792 29.4022 378.889 28.9671L376.734 28.4883ZM377.274 28.8657L350.029 28.5208L350.001 30.7279L377.246 31.0728L377.274 28.8657ZM348.912 29.6468C349.006 34.3065 350.214 37.8327 352.879 39.7908L354.186 38.012C352.345 36.6594 351.208 34.0008 351.118 29.6019L348.912 29.6468ZM352.883 39.7939C355.427 41.6435 359.018 42.4881 363.499 42.4881V40.2809C359.244 40.2809 356.191 39.4701 354.182 38.0089L352.883 39.7939ZM363.499 42.4881C366.132 42.4881 368.385 42.254 370.233 41.7611L369.664 39.6285C368.063 40.0552 366.017 40.2809 363.499 40.2809V42.4881ZM370.242 41.7585C372.034 41.2633 373.524 40.7077 374.683 40.0779L373.629 38.1387C372.672 38.6586 371.357 39.1605 369.654 39.631L370.242 41.7585ZM374.69 40.074C375.777 39.4727 376.607 38.9812 377.157 38.6062L375.914 36.7825C375.452 37.0973 374.696 37.5484 373.622 38.1427L374.69 40.074ZM377.148 38.6126C376.978 38.7258 376.833 38.729 376.811 38.729V36.5219C376.56 36.5219 376.231 36.5709 375.923 36.7761L377.148 38.6126ZM376.811 38.729C376.781 38.729 376.749 38.7251 376.717 38.7167C376.685 38.7083 376.66 38.6971 376.642 38.6872C376.607 38.668 376.612 38.6604 376.647 38.7035L378.355 37.3059C378.005 36.8776 377.487 36.5219 376.811 36.5219V38.729ZM376.721 38.7851C376.758 38.8222 376.761 38.8362 376.755 38.8235C376.752 38.8174 376.749 38.8077 376.746 38.7952C376.743 38.7829 376.742 38.7717 376.742 38.7635H378.95C378.95 38.143 378.678 37.6215 378.281 37.2244L376.721 38.7851ZM376.742 38.7635C376.742 38.7156 376.755 38.6441 376.795 38.5724C376.833 38.5048 376.871 38.478 376.868 38.4802L378.134 40.2883C378.621 39.9473 378.95 39.4202 378.95 38.7635H376.742ZM376.721 38.6039C376.573 38.7519 376.034 39.1446 374.947 39.8302L376.124 41.6972C377.152 41.0493 377.924 40.5225 378.281 40.1646L376.721 38.6039ZM374.952 39.8267C374.042 40.393 372.647 40.9686 370.709 41.5318L371.325 43.6513C373.343 43.0648 374.959 42.4219 376.118 41.7008L374.952 39.8267ZM370.718 41.5295C368.896 42.0438 366.512 42.3157 363.534 42.3157V44.5229C366.625 44.5229 369.23 44.243 371.317 43.6537L370.718 41.5295ZM350.049 29.0381H376.053V26.8309H350.049V29.0381ZM377.156 27.9345V26.3137H374.949V27.9345H377.156ZM377.156 26.3137C377.156 24.576 376.712 22.9793 375.814 21.5527L373.946 22.7287C374.611 23.7851 374.949 24.9704 374.949 26.3137H377.156ZM375.819 21.5604C374.884 20.0489 373.387 18.9099 371.447 18.0894L370.588 20.1222C372.235 20.8191 373.312 21.7033 373.941 22.7209L375.819 21.5604ZM371.447 18.0894C369.464 17.2501 366.884 16.8641 363.775 16.8641V19.0713C366.736 19.0713 368.985 19.444 370.588 20.1222L371.447 18.0894ZM363.775 16.8641C359.416 16.8641 355.873 17.6145 353.26 19.2376L354.425 21.1122C356.55 19.7923 359.627 19.0713 363.775 19.0713V16.8641ZM353.256 19.2401C350.508 20.9647 349.142 23.9519 348.947 27.8798L351.152 27.9892C351.324 24.5139 352.488 22.3281 354.429 21.1097L353.256 19.2401ZM359.878 10.6565C359.728 10.6565 359.819 10.6197 359.945 10.7409C360.005 10.7988 360.036 10.8591 360.048 10.8947C360.058 10.9244 360.051 10.9205 360.051 10.8634H357.843C357.843 11.3432 357.97 11.9031 358.414 12.3308C358.851 12.751 359.408 12.8636 359.878 12.8636V10.6565ZM360.051 10.8634C360.051 10.9004 360.042 10.9441 360.024 10.984C360.008 11.0212 359.993 11.0332 360.003 11.023L358.443 9.46225C358.081 9.82352 357.843 10.3014 357.843 10.8634H360.051ZM360.038 10.9867L368.729 1.46827L367.099 -0.0199582L358.408 9.49849L360.038 10.9867ZM368.694 1.50452C368.737 1.46148 368.761 1.45077 368.763 1.44977C368.764 1.44928 368.765 1.44913 368.765 1.44912C368.765 1.44914 368.765 1.4491 368.765 1.44912C368.765 1.44908 368.766 1.44889 368.767 1.44874C368.769 1.44859 368.772 1.44839 368.776 1.44839V-0.758789C368.127 -0.758789 367.568 -0.490861 367.133 -0.0561972L368.694 1.50452ZM368.776 1.44839C368.934 1.44839 369.081 1.49549 369.261 1.69875L370.911 0.232383C370.356 -0.392045 369.629 -0.758789 368.776 -0.758789V1.44839ZM369.261 1.69875C369.468 1.93126 369.534 2.13597 369.534 2.34505H371.742C371.742 1.54251 371.44 0.827566 370.911 0.232383L369.261 1.69875ZM369.534 2.34505C369.533 2.34938 369.534 2.34994 369.534 2.34505C369.536 2.34069 369.537 2.3387 369.536 2.34122C369.533 2.34613 369.511 2.38511 369.431 2.44893L370.81 4.17245C371.358 3.7338 371.742 3.11636 371.742 2.34505H369.534ZM369.406 2.47027L359.68 10.7472L361.111 12.428L370.836 4.15112L369.406 2.47027ZM359.754 10.6896C359.755 10.6887 359.769 10.6789 359.796 10.67C359.824 10.6608 359.853 10.6565 359.878 10.6565V12.8636C360.31 12.8636 360.704 12.7236 361.037 12.4856L359.754 10.6896ZM393.07 41.2121L392.342 42.0419L392.348 42.0472L392.355 42.0524L393.07 41.2121ZM390.552 18.7954H391.656V17.6918H390.552V18.7954ZM390.552 17.14V18.2436H391.656V17.14H390.552ZM391.001 7.17325L391.579 8.11313L391.604 8.09754L391.629 8.08061L391.001 7.17325ZM392.897 7.17325L392.199 8.02738L392.24 8.06155L392.285 8.09149L392.897 7.17325ZM393.311 17.14H392.208V18.2436H393.311V17.14ZM393.311 18.7954V17.6918H392.208V18.7954H393.311ZM394.174 38.4876L393.186 38.9811L393.192 38.993L393.199 39.0048L394.174 38.4876ZM406.726 39.0738L406.233 38.0867L406.221 38.0933L406.208 38.1001L406.726 39.0738ZM407.727 40.8671L407.199 39.8984L407.196 39.8993L407.727 40.8671ZM403.105 42.9363L403.384 44.0045L403.393 44.0019L403.403 43.9991L403.105 42.9363ZM399.347 42.2811C397.094 42.2811 395.265 41.631 393.785 40.3717L392.355 42.0524C394.278 43.69 396.633 44.4883 399.347 44.4883V42.2811ZM393.797 40.3822C392.478 39.2254 391.656 37.0297 391.656 33.4179H389.449C389.449 37.2554 390.305 40.2557 392.342 42.0419L393.797 40.3822ZM391.656 33.4179V18.7954H389.449V33.4179H391.656ZM390.552 17.6918H387.517V19.8989H390.552V17.6918ZM387.517 17.6918C387.432 17.6918 387.397 17.6823 387.398 17.6826C387.402 17.6838 387.451 17.6988 387.511 17.7506C387.575 17.8054 387.618 17.8723 387.641 17.9298C387.661 17.9807 387.655 18.0009 387.655 17.9677H385.448C385.448 18.462 385.6 19.0195 386.075 19.4264C386.517 19.8054 387.064 19.8989 387.517 19.8989V17.6918ZM387.655 17.9677C387.655 17.9346 387.661 17.9548 387.641 18.0056C387.618 18.0631 387.575 18.13 387.511 18.1849C387.451 18.2366 387.402 18.2516 387.398 18.2528C387.397 18.2532 387.432 18.2436 387.517 18.2436V16.0364C387.064 16.0364 386.517 16.1301 386.075 16.5091C385.6 16.9159 385.448 17.4735 385.448 17.9677H387.655ZM387.517 18.2436H390.552V16.0364H387.517V18.2436ZM391.656 17.14V8.55274H389.449V17.14H391.656ZM391.656 8.55274C391.656 8.24687 391.689 8.07531 391.714 7.99718C391.738 7.92259 391.725 8.02364 391.579 8.11313L390.422 6.23337C389.978 6.50679 389.74 6.92973 389.615 7.31496C389.491 7.69665 389.449 8.12289 389.449 8.55274H391.656ZM391.629 8.08061C391.768 7.9843 391.863 7.96645 391.932 7.96645V5.75928C391.357 5.75928 390.831 5.94836 390.373 6.26589L391.629 8.08061ZM391.932 7.96645C392.12 7.96645 392.18 8.01189 392.199 8.02738L393.596 6.31912C393.109 5.92077 392.525 5.75928 391.932 5.75928V7.96645ZM392.285 8.09149C392.132 7.98914 392.123 7.88184 392.151 7.97319C392.177 8.0609 392.208 8.24158 392.208 8.55274H394.415C394.415 8.12816 394.377 7.71107 394.265 7.33895C394.154 6.97048 393.939 6.54129 393.51 6.25501L392.285 8.09149ZM392.208 8.55274V17.14H394.415V8.55274H392.208ZM393.311 18.2436H404.761V16.0364H393.311V18.2436ZM404.761 18.2436C404.863 18.2436 404.915 18.2543 404.93 18.2581C404.942 18.2613 404.903 18.2533 404.848 18.2087C404.787 18.16 404.74 18.095 404.712 18.03C404.688 17.9719 404.692 17.9428 404.692 17.9677H406.9C406.9 17.4482 406.725 16.8838 406.226 16.4852C405.775 16.1241 405.224 16.0364 404.761 16.0364V18.2436ZM404.692 17.9677C404.692 17.9926 404.688 17.9636 404.712 17.9054C404.74 17.8404 404.787 17.7754 404.848 17.7268C404.903 17.6822 404.942 17.6741 404.93 17.6773C404.915 17.6812 404.863 17.6918 404.761 17.6918V19.8989C405.224 19.8989 405.775 19.8113 406.226 19.4502C406.725 19.0516 406.9 18.4872 406.9 17.9677H404.692ZM404.761 17.6918H393.311V19.8989H404.761V17.6918ZM392.208 18.7954V33.4179H394.415V18.7954H392.208ZM392.208 33.4179C392.208 35.7108 392.498 37.6041 393.186 38.9811L395.161 37.994C394.699 37.0719 394.415 35.5853 394.415 33.4179H392.208ZM393.199 39.0048C393.894 40.315 394.868 41.2842 396.147 41.7901L396.959 39.7374C396.261 39.4615 395.649 38.9133 395.148 37.9703L393.199 39.0048ZM396.147 41.7901C397.28 42.2379 398.512 42.4536 399.829 42.4536V40.2465C398.756 40.2465 397.803 40.0712 396.959 39.7374L396.147 41.7901ZM399.829 42.4536C401.066 42.4536 402.277 42.234 403.454 41.7989L402.688 39.7285C401.751 40.0752 400.8 40.2465 399.829 40.2465V42.4536ZM403.454 41.7989C404.572 41.3855 405.838 40.7986 407.246 40.0476L406.208 38.1001C404.857 38.8205 403.685 39.3603 402.688 39.7285L403.454 41.7989ZM407.221 40.0609C407.376 39.983 407.472 39.9706 407.52 39.9706V37.7634C407.062 37.7634 406.629 37.8888 406.233 38.0867L407.221 40.0609ZM407.52 39.9706C407.599 39.9706 407.626 39.9801 407.616 39.9772C407.603 39.973 407.552 39.9536 407.493 39.8998C407.434 39.8444 407.401 39.7839 407.386 39.7441C407.374 39.7106 407.382 39.7102 407.382 39.7635H409.589C409.589 39.2728 409.453 38.7077 408.995 38.2824C408.553 37.8713 407.992 37.7634 407.52 37.7634V39.9706ZM407.382 39.7635C407.382 39.7761 407.381 39.7761 407.383 39.7687C407.385 39.761 407.388 39.757 407.386 39.7591C407.383 39.7649 407.342 39.82 407.199 39.8984L408.256 41.836C409.011 41.4243 409.589 40.7347 409.589 39.7635H407.382ZM407.196 39.8993C405.288 40.9443 403.836 41.586 402.809 41.8737L403.403 43.9991C404.675 43.6431 406.302 42.9053 408.257 41.8351L407.196 39.8993ZM402.828 41.8683C401.781 42.1406 400.622 42.2811 399.347 42.2811V44.4883C400.783 44.4883 402.131 44.33 403.384 44.0045L402.828 41.8683ZM416.778 37.0391L415.802 37.5545L415.809 37.5676L416.778 37.0391ZM419.295 19.2092L419.976 20.0781L419.977 20.0773L419.295 19.2092ZM445.265 19.2092L444.579 20.0745L444.587 20.0808L445.265 19.2092ZM447.782 37.0391L446.811 36.5152L446.809 36.5192L447.782 37.0391ZM444.161 37.6599L443.331 36.9319L443.322 36.9417L444.161 37.6599ZM446.161 33.9353L447.23 34.2072L447.231 34.2029L446.161 33.9353ZM418.433 33.9353L417.363 34.2029L417.364 34.2072L418.433 33.9353ZM420.399 37.6599L419.561 38.3781L419.57 38.3878L420.399 37.6599ZM432.298 42.2811C428.145 42.2811 424.948 41.7369 422.637 40.7193L421.747 42.7394C424.449 43.929 427.988 44.4883 432.298 44.4883V42.2811ZM422.637 40.7193C420.31 39.6949 418.712 38.2816 417.747 36.5106L415.809 37.5676C417.05 39.843 419.062 41.5566 421.747 42.7394L422.637 40.7193ZM417.753 36.5237C416.773 34.6667 416.26 32.4254 416.26 29.7624H414.053C414.053 32.7092 414.621 35.3191 415.802 37.5545L417.753 36.5237ZM416.26 29.7624C416.26 25.0869 417.578 21.9565 419.976 20.0781L418.615 18.3405C415.495 20.7844 414.053 24.6894 414.053 29.7624H416.26ZM419.977 20.0773C422.472 18.118 426.508 17.0366 432.298 17.0366V14.8294C426.314 14.8294 421.682 15.9322 418.614 18.3412L419.977 20.0773ZM432.298 17.0366C438.087 17.0366 442.108 18.1184 444.579 20.0745L445.949 18.344C442.902 15.9317 438.279 14.8294 432.298 14.8294V17.0366ZM444.587 20.0808C447.006 21.9603 448.334 25.0899 448.334 29.7624H450.541C450.541 24.6863 449.085 20.7806 445.941 18.3377L444.587 20.0808ZM448.334 29.7624C448.334 32.4219 447.811 34.6601 446.811 36.5152L448.753 37.563C449.959 35.3257 450.541 32.7126 450.541 29.7624H448.334ZM446.809 36.5192C445.865 38.2845 444.282 39.6953 441.957 40.7193L442.847 42.7394C445.533 41.5562 447.537 39.8402 448.755 37.559L446.809 36.5192ZM441.957 40.7193C439.646 41.7369 436.449 42.2811 432.298 42.2811V44.4883C436.606 44.4883 440.145 43.929 442.847 42.7394L441.957 40.7193ZM432.298 42.4536C435.488 42.4536 438.142 42.1153 440.214 41.3917L439.485 39.3081C437.74 39.9179 435.36 40.2465 432.298 40.2465V42.4536ZM440.214 41.3917C442.242 40.683 443.869 39.6965 444.999 38.3781L443.322 36.9417C442.521 37.8764 441.274 38.6831 439.485 39.3081L440.214 41.3917ZM444.99 38.3878C446.086 37.1397 446.839 35.7444 447.23 34.2072L445.091 33.6633C444.792 34.8392 444.213 35.9268 443.331 36.9319L444.99 38.3878ZM447.231 34.2029C447.598 32.7371 447.782 31.2563 447.782 29.7624H445.575C445.575 31.0733 445.414 32.3745 445.09 33.6676L447.231 34.2029ZM447.782 29.7624C447.782 25.3141 446.597 21.8785 443.947 19.7909L442.581 21.5245C444.483 23.0236 445.575 25.6577 445.575 29.7624H447.782ZM443.947 19.7909C441.378 17.7666 437.416 16.8641 432.298 16.8641V19.0713C437.248 19.0713 440.598 19.9622 442.581 21.5245L443.947 19.7909ZM432.298 16.8641C427.178 16.8641 423.216 17.7666 420.647 19.7909L422.013 21.5245C423.996 19.9622 427.346 19.0713 432.298 19.0713V16.8641ZM420.647 19.7909C417.997 21.8785 416.812 25.3141 416.812 29.7624H419.019C419.019 25.6577 420.111 23.0236 422.013 21.5245L420.647 19.7909ZM416.812 29.7624C416.812 31.2563 416.996 32.7371 417.363 34.2029L419.504 33.6676C419.18 32.3745 419.019 31.0733 419.019 29.7624H416.812ZM417.364 34.2072C417.753 35.7381 418.492 37.1305 419.561 38.3781L421.237 36.9417C420.374 35.9361 419.803 34.8454 419.503 33.6633L417.364 34.2072ZM419.57 38.3878C420.72 39.6986 422.353 40.6833 424.38 41.3917L425.109 39.3081C423.32 38.683 422.055 37.8742 421.229 36.9319L419.57 38.3878ZM424.38 41.3917C426.452 42.1153 429.106 42.4536 432.298 42.4536V40.2465C429.234 40.2465 426.854 39.9179 425.109 39.3081L424.38 41.3917ZM467.696 42.1777L467.331 43.2193L467.334 43.2204L467.696 42.1777ZM464.006 19.0713L463.325 18.2031L463.32 18.2059L464.006 19.0713ZM488.147 18.4161L487.595 19.372L487.606 19.3782L487.617 19.3842L488.147 18.4161ZM490.836 20.3128L490.042 21.0778L491.94 23.0528V20.3128H490.836ZM493.147 42.6605L492.434 41.8181L492.418 41.8322L492.402 41.847L493.147 42.6605ZM490.836 36.4528H491.94L489.766 36.1851L490.836 36.4528ZM488.457 40.0394L487.793 39.1585L487.785 39.1647L488.457 40.0394ZM479.49 43.1088L479.381 42.0107L479.366 42.0124L479.49 43.1088ZM479.8 41.0742L479.926 42.1707L479.939 42.1689L479.8 41.0742ZM488.491 37.9013L489.179 38.7648L489.181 38.763L488.491 37.9013ZM490.836 34.3491L491.898 34.6523L491.94 34.5037V34.3491H490.836ZM490.836 21.9337H491.94V21.4168L491.544 21.086L490.836 21.9337ZM487.905 20.1748L487.412 21.162L487.423 21.1674L487.434 21.1726L487.905 20.1748ZM482.973 18.623L482.74 19.7018L482.755 19.7047L482.973 18.623ZM464.488 36.7977L463.572 37.4128L463.577 37.4186L464.488 36.7977ZM469.006 40.3153L468.628 41.3518L468.631 41.3532L469.006 40.3153ZM475.318 42.2811C472.667 42.2811 470.25 41.8948 468.057 41.135L467.334 43.2204C469.786 44.0701 472.45 44.4883 475.318 44.4883V42.2811ZM468.06 41.1361C465.972 40.4053 464.308 39.1633 463.04 37.3958L461.247 38.6827C462.783 40.8236 464.821 42.3407 467.331 43.2193L468.06 41.1361ZM463.04 37.3958C461.82 35.6945 461.143 33.2489 461.143 29.9348H458.936C458.936 33.518 459.663 36.4754 461.247 38.6827L463.04 37.3958ZM461.143 29.9348C461.143 24.9407 462.427 21.7284 464.691 19.9367L463.32 18.2059C460.297 20.5987 458.936 24.6287 458.936 29.9348H461.143ZM464.687 19.9396C467.09 18.054 470.585 17.0366 475.318 17.0366V14.8294C470.302 14.8294 466.255 15.9042 463.325 18.2031L464.687 19.9396ZM475.318 17.0366C478.49 17.0366 481.042 17.2754 482.999 17.7319L483.501 15.5825C481.319 15.0734 478.582 14.8294 475.318 14.8294V17.0366ZM482.999 17.7319C485.013 18.2018 486.53 18.7573 487.595 19.372L488.699 17.4601C487.373 16.6953 485.625 16.0782 483.501 15.5825L482.999 17.7319ZM487.617 19.3842C488.795 20.0282 489.579 20.5971 490.042 21.0778L491.632 19.5479C490.944 18.8331 489.937 18.1374 488.677 17.4479L487.617 19.3842ZM491.94 20.3128V7.06979H489.733V20.3128H491.94ZM491.94 7.06979C491.94 6.51577 491.992 6.0362 492.085 5.6245L489.933 5.13534C489.797 5.73526 489.733 6.38228 489.733 7.06979H491.94ZM492.085 5.6245C492.089 5.61129 492.087 5.62879 492.066 5.66014C492.044 5.69346 492.014 5.7205 491.988 5.73743C491.965 5.75257 491.96 5.74922 491.991 5.74195C492.021 5.73436 492.083 5.72479 492.181 5.72479V3.51761C491.724 3.51761 491.225 3.60253 490.789 3.88434C490.323 4.18568 490.046 4.63661 489.933 5.13534L492.085 5.6245ZM492.181 5.72479C492.286 5.72479 492.357 5.73399 492.4 5.74323C492.442 5.75233 492.45 5.7596 492.436 5.75182C492.42 5.74257 492.392 5.72239 492.367 5.68972C492.342 5.65766 492.333 5.63227 492.332 5.62806L494.446 4.99383C494.299 4.5036 493.988 4.09635 493.531 3.83546C493.106 3.5924 492.628 3.51761 492.181 3.51761V5.72479ZM492.332 5.62806C492.43 5.95375 492.492 6.40306 492.492 7.00081H494.699C494.699 6.26506 494.624 5.58779 494.446 4.99383L492.332 5.62806ZM492.492 7.00081V41.1776H494.699V7.00081H492.492ZM492.492 41.1776C492.492 41.4791 492.461 41.6708 492.428 41.7807C492.394 41.8878 492.377 41.8666 492.434 41.8181L493.86 43.5029C494.554 42.9158 494.699 41.9759 494.699 41.1776H492.492ZM492.402 41.847C492.343 41.9012 492.303 41.9214 492.286 41.9287C492.272 41.9348 492.263 41.9363 492.251 41.9363V44.1435C492.893 44.1435 493.45 43.8811 493.893 43.474L492.402 41.847ZM492.251 41.9363C492.093 41.9363 492.017 41.8968 491.957 41.8472L490.544 43.5428C491.036 43.953 491.626 44.1435 492.251 44.1435V41.9363ZM491.957 41.8472C492.045 41.9203 492.033 41.9676 492.002 41.8573C491.971 41.7487 491.94 41.5548 491.94 41.2465H489.733C489.733 41.674 489.772 42.0895 489.879 42.4636C489.985 42.8361 490.181 43.2398 490.544 43.5428L491.957 41.8472ZM491.94 41.2465V36.4528H489.733V41.2465H491.94ZM489.766 36.1851C489.46 37.4101 488.811 38.3898 487.793 39.1585L489.122 40.9203C490.54 39.8498 491.477 38.4385 491.908 36.7205L489.766 36.1851ZM487.785 39.1647C486.704 39.9957 485.435 40.6395 483.963 41.0874L484.605 43.199C486.306 42.6813 487.819 41.9226 489.13 40.9142L487.785 39.1647ZM483.963 41.0874C482.443 41.5498 480.916 41.857 479.381 42.0107L479.601 44.2069C481.284 44.0386 482.952 43.7022 484.605 43.199L483.963 41.0874ZM479.366 42.0124C477.783 42.1932 476.435 42.2811 475.318 42.2811V44.4883C476.545 44.4883 477.979 44.3923 479.616 44.2053L479.366 42.0124ZM475.318 42.4536C476.746 42.4536 478.282 42.3585 479.926 42.1707L479.676 39.9776C478.101 40.1576 476.648 40.2465 475.318 40.2465V42.4536ZM479.939 42.1689C481.641 41.9532 483.287 41.5811 484.875 41.052L484.177 38.958C482.729 39.4404 481.225 39.7812 479.662 39.9793L479.939 42.1689ZM484.875 41.052C486.501 40.5098 487.94 39.7504 489.179 38.7648L487.805 37.0378C486.789 37.8455 485.585 38.4886 484.177 38.958L484.875 41.052ZM489.181 38.763C490.514 37.6967 491.422 36.3155 491.898 34.6523L489.776 34.046C489.424 35.2797 488.768 36.2665 487.802 37.0395L489.181 38.763ZM491.94 34.3491V21.9337H489.733V34.3491H491.94ZM491.544 21.086C490.753 20.428 489.684 19.7953 488.377 19.1772L487.434 21.1726C488.656 21.7501 489.541 22.2899 490.13 22.7815L491.544 21.086ZM488.398 19.1878C487.039 18.5075 485.292 17.9658 483.193 17.5412L482.755 19.7047C484.749 20.1079 486.289 20.6007 487.412 21.162L488.398 19.1878ZM483.207 17.5442C481.079 17.085 478.443 16.8641 475.318 16.8641V19.0713C478.355 19.0713 480.821 19.2874 482.74 19.7018L483.207 17.5442ZM475.318 16.8641C470.783 16.8641 467.242 17.8381 464.964 20.0361L466.497 21.6244C468.174 20.0059 471.024 19.0713 475.318 19.0713V16.8641ZM464.964 20.0361C462.701 22.2188 461.695 25.61 461.695 29.9348H463.902C463.902 25.8905 464.85 23.2124 466.497 21.6244L464.964 20.0361ZM461.695 29.9348C461.695 32.9601 462.281 35.4896 463.572 37.4128L465.405 36.1826C464.443 34.7492 463.902 32.7032 463.902 29.9348H461.695ZM463.577 37.4186C464.833 39.2654 466.525 40.5829 468.628 41.3518L469.386 39.2789C467.716 38.6683 466.397 37.6408 465.401 36.1768L463.577 37.4186ZM468.631 41.3532C470.675 42.0919 472.907 42.4536 475.318 42.4536V40.2465C473.129 40.2465 471.155 39.9184 469.381 39.2775L468.631 41.3532ZM507.095 37.0391L506.12 37.5545L506.126 37.5676L507.095 37.0391ZM509.613 19.2092L510.294 20.0781L510.295 20.0773L509.613 19.2092ZM535.582 19.2092L534.897 20.0745L534.905 20.0808L535.582 19.2092ZM538.1 37.0391L537.128 36.5152L537.126 36.5192L538.1 37.0391ZM534.479 37.6599L533.649 36.9319L533.64 36.9417L534.479 37.6599ZM536.478 33.9353L537.548 34.2072L537.549 34.2029L536.478 33.9353ZM508.751 33.9353L507.68 34.2029L507.681 34.2072L508.751 33.9353ZM510.716 37.6599L509.879 38.3781L509.887 38.3878L510.716 37.6599ZM522.615 42.2811C518.462 42.2811 515.265 41.7369 512.954 40.7193L512.065 42.7394C514.766 43.929 518.306 44.4883 522.615 44.4883V42.2811ZM512.954 40.7193C510.628 39.6949 509.03 38.2816 508.064 36.5106L506.126 37.5676C507.368 39.843 509.38 41.5566 512.065 42.7394L512.954 40.7193ZM508.071 36.5237C507.091 34.6667 506.578 32.4254 506.578 29.7624H504.371C504.371 32.7092 504.939 35.3191 506.12 37.5545L508.071 36.5237ZM506.578 29.7624C506.578 25.0869 507.895 21.9565 510.294 20.0781L508.933 18.3405C505.813 20.7844 504.371 24.6894 504.371 29.7624H506.578ZM510.295 20.0773C512.79 18.118 516.826 17.0366 522.615 17.0366V14.8294C516.631 14.8294 512 15.9322 508.932 18.3412L510.295 20.0773ZM522.615 17.0366C528.405 17.0366 532.426 18.1184 534.897 20.0745L536.267 18.344C533.22 15.9317 528.597 14.8294 522.615 14.8294V17.0366ZM534.905 20.0808C537.324 21.9603 538.651 25.0899 538.651 29.7624H540.859C540.859 24.6863 539.403 20.7806 536.259 18.3377L534.905 20.0808ZM538.651 29.7624C538.651 32.4219 538.128 34.6601 537.128 36.5152L539.071 37.563C540.277 35.3257 540.859 32.7126 540.859 29.7624H538.651ZM537.126 36.5192C536.183 38.2845 534.6 39.6953 532.275 40.7193L533.164 42.7394C535.85 41.5562 537.855 39.8402 539.073 37.559L537.126 36.5192ZM532.275 40.7193C529.964 41.7369 526.767 42.2811 522.615 42.2811V44.4883C526.924 44.4883 530.463 43.929 533.164 42.7394L532.275 40.7193ZM522.615 42.4536C525.806 42.4536 528.46 42.1153 530.531 41.3917L529.803 39.3081C528.058 39.9179 525.678 40.2465 522.615 40.2465V42.4536ZM530.531 41.3917C532.56 40.683 534.186 39.6965 535.316 38.3781L533.64 36.9417C532.839 37.8764 531.592 38.6831 529.803 39.3081L530.531 41.3917ZM535.308 38.3878C536.403 37.1397 537.157 35.7444 537.548 34.2072L535.409 33.6633C535.11 34.8392 534.531 35.9268 533.649 36.9319L535.308 38.3878ZM537.549 34.2029C537.915 32.7371 538.1 31.2563 538.1 29.7624H535.892C535.892 31.0733 535.731 32.3745 535.408 33.6676L537.549 34.2029ZM538.1 29.7624C538.1 25.3141 536.914 21.8785 534.265 19.7909L532.898 21.5245C534.801 23.0236 535.892 25.6577 535.892 29.7624H538.1ZM534.265 19.7909C531.695 17.7666 527.734 16.8641 522.615 16.8641V19.0713C527.566 19.0713 530.915 19.9622 532.898 21.5245L534.265 19.7909ZM522.615 16.8641C517.496 16.8641 513.534 17.7666 510.965 19.7909L512.331 21.5245C514.314 19.9622 517.663 19.0713 522.615 19.0713V16.8641ZM510.965 19.7909C508.315 21.8785 507.13 25.3141 507.13 29.7624H509.337C509.337 25.6577 510.428 23.0236 512.331 21.5245L510.965 19.7909ZM507.13 29.7624C507.13 31.2563 507.314 32.7371 507.68 34.2029L509.821 33.6676C509.498 32.3745 509.337 31.0733 509.337 29.7624H507.13ZM507.681 34.2072C508.071 35.7381 508.809 37.1305 509.879 38.3781L511.555 36.9417C510.692 35.9361 510.12 34.8454 509.82 33.6633L507.681 34.2072ZM509.887 38.3878C511.037 39.6986 512.671 40.6833 514.698 41.3917L515.426 39.3081C513.637 38.683 512.373 37.8742 511.546 36.9319L509.887 38.3878ZM514.698 41.3917C516.769 42.1153 519.424 42.4536 522.615 42.4536V40.2465C519.552 40.2465 517.171 39.9179 515.426 39.3081L514.698 41.3917Z" fill="#D0972D"/>
</g>
</g>
<g clip-path="url(#clip1_1073_57)">
<path d="M682.868 90.7739H655.278L673.488 46.9062H695.007L682.868 90.7739Z" fill="url(#paint0_linear_1073_57)"/>
</g>
<g clip-path="url(#clip2_1073_57)">
<path d="M324.756 177.57C313.168 177.57 303.144 176.834 294.683 175.363C286.222 173.707 279.141 170.857 273.439 166.81C267.737 162.58 263.507 156.786 260.748 149.428C257.989 141.887 256.609 132.323 256.609 120.735C256.609 109.147 257.989 99.6749 260.748 92.3176C263.507 84.7765 267.737 78.9827 273.439 74.9361C279.141 70.7057 286.222 67.8547 294.683 66.3833C303.144 64.7279 313.168 63.9002 324.756 63.9002C336.16 63.9002 346 64.7279 354.277 66.3833C362.738 67.8547 369.727 70.7057 375.245 74.9361C380.763 78.9827 384.901 84.7765 387.66 92.3176C390.604 99.6749 392.075 109.147 392.075 120.735C392.075 132.323 390.604 141.887 387.66 149.428C384.901 156.786 380.671 162.58 374.969 166.81C369.451 170.857 362.462 173.707 354.001 175.363C345.724 176.834 335.976 177.57 324.756 177.57ZM324.756 153.567C328.986 153.567 332.297 152.647 334.688 150.808C337.263 148.968 339.103 145.75 340.206 141.151C341.494 136.369 342.137 129.564 342.137 120.735C342.137 111.906 341.494 105.101 340.206 100.319C339.103 95.5365 337.263 92.3176 334.688 90.6623C332.297 88.8229 328.986 87.9033 324.756 87.9033C320.709 87.9033 317.307 88.8229 314.548 90.6623C311.789 92.3176 309.674 95.5365 308.202 100.319C306.915 105.101 306.271 111.906 306.271 120.735C306.271 129.564 306.915 136.369 308.202 141.151C309.674 145.75 311.789 148.968 314.548 150.808C317.307 152.647 320.709 153.567 324.756 153.567ZM422.665 175.639C414.571 175.639 410.526 171.5 410.526 163.223V71.6254C416.227 69.97 424.964 68.4065 436.736 66.9351C448.507 65.4637 461.474 64.7279 475.637 64.7279C490.903 64.7279 502.951 65.5556 511.78 67.211C520.609 68.8664 527.137 71.7173 531.369 75.7638C535.599 79.8103 538.266 85.2362 539.37 92.0417C540.656 98.8472 541.301 107.492 541.301 117.976V157.429C541.301 162.211 540.932 165.982 540.197 168.741C539.645 171.316 537.99 173.155 535.231 174.259C532.655 175.363 528.425 175.914 522.54 175.914L492.191 175.639V106.112C492.191 100.595 490.536 96.732 487.225 94.5248C484.097 92.3176 480.235 91.2141 475.637 91.2141C473.982 91.2141 472.142 91.398 470.119 91.7658C468.095 92.1337 466.164 92.5935 464.326 93.1453C462.486 93.6971 461.015 94.4329 459.911 95.3525V175.639H422.665ZM610.529 176.742C599.126 176.742 590.297 175.639 584.043 173.431C577.79 171.224 573.376 167.453 570.8 162.12C568.225 156.786 566.937 149.428 566.937 140.048V90.9382H554.798V65.5556H566.937V53.6921C566.937 48.3581 567.306 44.4955 568.041 42.1044C568.777 39.5293 570.341 37.9659 572.731 37.4141C575.307 36.6784 579.169 36.3105 584.319 36.3105H616.599C616.599 37.2302 616.507 38.2418 616.323 39.3454C616.323 40.449 616.323 41.6445 616.323 42.9321V65.5556H643.637V90.9382H616.599V136.461C616.599 143.818 617.243 149.244 618.53 152.739C620.002 156.05 623.956 157.705 630.394 157.705C632.049 157.705 634.256 157.521 637.015 157.153C639.958 156.786 641.981 156.417 643.085 156.05V173.707C641.798 173.892 638.211 174.443 632.325 175.363C626.439 176.282 619.174 176.742 610.529 176.742Z" fill="url(#paint1_linear_1073_57)"/>
</g>
<g clip-path="url(#clip3_1073_57)">
<path d="M127.527 178.061L80.9307 12.5225H134.884L179.028 178.061H127.527Z" fill="url(#paint2_linear_1073_57)"/>
<path d="M254.807 178.061L208.211 12.5225H262.164L289.14 116.75L254.807 178.061Z" fill="url(#paint3_linear_1073_57)"/>
<path d="M51.5008 178.061L134.883 12.5225H80.9297L0 178.061H51.5008Z" fill="url(#paint4_linear_1073_57)"/>
<path d="M179.025 178.061L262.408 12.5225H208.455L127.525 178.061H179.025Z" fill="url(#paint5_linear_1073_57)"/>
</g>
<defs>
<linearGradient id="paint0_linear_1073_57" x1="679.281" y1="-35.311" x2="679.281" y2="240.586" gradientUnits="userSpaceOnUse">
<stop stop-color="#CF962C"/>
<stop offset="1" stop-color="#E1B448"/>
</linearGradient>
<linearGradient id="paint1_linear_1073_57" x1="450.123" y1="80.7035" x2="450.123" y2="177.57" gradientUnits="userSpaceOnUse">
<stop stop-color="#FCFCFC"/>
<stop offset="1" stop-color="#BFBFBE"/>
</linearGradient>
<linearGradient id="paint2_linear_1073_57" x1="129.979" y1="12.5225" x2="129.979" y2="178.061" gradientUnits="userSpaceOnUse">
<stop stop-color="#F1F1F1"/>
<stop offset="1" stop-color="#999999"/>
</linearGradient>
<linearGradient id="paint3_linear_1073_57" x1="248.675" y1="12.5225" x2="248.675" y2="178.061" gradientUnits="userSpaceOnUse">
<stop stop-color="#E4B94C"/>
<stop offset="1" stop-color="#CB8F25"/>
</linearGradient>
<linearGradient id="paint4_linear_1073_57" x1="67.4415" y1="12.5225" x2="67.4415" y2="178.061" gradientUnits="userSpaceOnUse">
<stop stop-color="#BBBBBB"/>
<stop offset="1" stop-color="white"/>
</linearGradient>
<linearGradient id="paint5_linear_1073_57" x1="194.967" y1="12.5225" x2="194.967" y2="178.061" gradientUnits="userSpaceOnUse">
<stop stop-color="#BBBBBB"/>
<stop offset="1" stop-color="white"/>
</linearGradient>
<clipPath id="clip0_1073_57">
<rect width="251.618" height="44.1435" fill="white" transform="translate(289.164)"/>
</clipPath>
<clipPath id="clip1_1073_57">
<rect width="40.8328" height="45.2471" fill="white" transform="translate(654.45 46.3545)"/>
</clipPath>
<clipPath id="clip2_1073_57">
<rect width="387.359" height="142.363" fill="white" transform="translate(256.609 35.4824)"/>
</clipPath>
<clipPath id="clip3_1073_57">
<rect width="289.14" height="165.538" fill="white" transform="translate(0 12.5225)"/>
</clipPath>
</defs>
</svg>
