<svg xmlns="http://www.w3.org/2000/svg" width="449" height="28" viewBox="0 0 449 28" fill="none"><g clip-path="url(#clip0_256_47)"><path d="M112.059 23.0016L114.159 10.8016H117.459L115.359 23.0016H112.059ZM127.359 11.1016C126.359 10.8016 125.359 10.6016 124.359 10.6016C121.059 10.6016 118.759 12.3016 118.759 14.6016C118.759 16.4016 120.359 17.3016 121.659 17.9016C122.959 18.5016 123.359 18.9016 123.359 19.4016C123.359 20.2016 122.359 20.6016 121.359 20.6016C120.259 20.6016 119.259 20.4016 118.259 20.0016L117.859 19.8016L117.359 22.5016C118.559 22.9016 119.759 23.2016 121.059 23.1016C124.559 23.1016 126.859 21.5016 126.859 18.9016C126.859 17.5016 125.959 16.5016 124.059 15.6016C122.859 15.0016 122.159 14.7016 122.159 14.1016C122.159 13.6016 122.759 13.1016 124.059 13.1016C124.959 13.1016 125.759 13.2016 126.559 13.6016L126.859 13.7016L127.359 11.1016ZM135.859 10.8016H133.259C132.559 10.7016 131.759 11.1016 131.559 11.8016L126.659 23.0016H130.159C130.159 23.0016 130.759 21.5016 130.859 21.2016H135.059C135.159 21.6016 135.459 23.0016 135.459 23.0016H138.559L135.859 10.8016ZM131.859 18.7016C132.159 18.0016 133.159 15.3016 133.159 15.3016C133.159 15.3016 133.459 14.6016 133.559 14.1016L133.759 15.2016L134.559 18.7016H131.859ZM109.259 10.8016L105.959 19.1016L105.659 17.4016C104.859 15.2016 103.159 13.4016 101.059 12.3016L104.059 22.9016H107.559L112.759 10.7016L109.259 10.8016Z" fill="#8A6E35"></path><path d="M102.959 10.0011H97.5586V10.3011C101.759 11.3011 104.459 13.7011 105.659 16.7011L104.459 11.0011C104.259 10.4011 103.659 9.90109 102.959 10.0011Z" fill="#8A6E35"></path><path d="M163.169 18.7437C163.169 18.3437 163.269 17.9437 163.369 17.5437C163.469 17.1437 163.869 14.5437 163.869 14.5437H164.569C165.069 12.3437 166.169 10.3438 167.769 8.74375C165.869 7.24375 163.469 6.34375 160.969 6.34375C155.169 6.34375 150.469 11.0437 150.469 16.8438C150.469 22.6438 155.169 27.3438 160.969 27.3438C163.469 27.3438 165.869 26.4438 167.769 24.8438C166.269 23.4438 165.269 21.6438 164.769 19.6438C164.569 19.7438 164.369 19.7437 164.169 19.7437C163.869 19.7437 163.669 19.6438 163.469 19.4438C163.169 19.3438 163.169 19.0437 163.169 18.7437ZM154.869 19.6438L155.569 15.4438L154.069 19.6438H153.269L153.169 15.5437L152.469 19.6438H151.369L152.269 14.2438H153.969V17.6438L155.069 14.2438H156.869L155.969 19.6438H154.869ZM158.769 19.6438V19.1438C158.469 19.5438 158.069 19.7438 157.569 19.6438C157.269 19.6438 156.969 19.5437 156.769 19.2437C156.569 19.0437 156.469 18.7438 156.469 18.4438C156.469 17.3438 157.169 16.7437 158.469 16.7437C158.669 16.7437 158.769 16.7437 158.969 16.7437C158.969 16.6437 158.969 16.5438 158.969 16.4438C158.969 16.1438 158.769 16.0437 158.269 16.0437C157.869 16.0437 157.469 16.1437 157.069 16.2437C157.069 16.1437 157.269 15.2437 157.269 15.2437C157.669 15.1437 158.169 15.0437 158.669 15.0437C159.669 15.0437 160.169 15.4438 160.169 16.3438C160.169 16.6438 160.169 16.9437 160.069 17.2437C159.969 17.8437 159.769 19.2437 159.769 19.5437L158.769 19.6438ZM162.169 17.0437C162.669 17.2437 163.069 17.7437 162.969 18.2437C162.969 19.2437 162.369 19.7437 161.169 19.7437C160.769 19.7437 160.369 19.7438 159.969 19.6438L160.169 18.6438C160.469 18.7438 160.869 18.8438 161.169 18.8438C161.669 18.8438 161.869 18.7438 161.869 18.4438C161.869 18.2438 161.769 18.1438 161.369 17.9438C160.869 17.7438 160.469 17.2437 160.469 16.7437C160.469 15.9437 160.869 15.2437 162.169 15.2437C162.469 15.2437 162.869 15.2437 163.169 15.3438L162.969 16.3438C162.669 16.3438 162.369 16.2437 162.169 16.2437C161.769 16.2437 161.569 16.3438 161.569 16.6438C161.669 16.7438 161.769 16.8437 162.169 17.0437Z" fill="#8A6E35"></path><path d="M157.668 18.3445C157.668 18.4445 157.668 18.5445 157.768 18.6445C157.868 18.7445 157.968 18.7445 158.068 18.7445C158.568 18.7445 158.868 18.3445 158.868 17.6445C158.768 17.6445 158.668 17.6445 158.568 17.6445C157.968 17.7445 157.668 17.9445 157.668 18.3445Z" fill="#8A6E35"></path><path d="M176.969 17.7437C176.269 17.7437 175.969 17.9437 175.969 18.4437C175.969 18.5437 175.969 18.6437 176.069 18.7437C176.169 18.8437 176.269 18.8437 176.369 18.8437C176.869 18.8437 177.169 18.4437 177.169 17.7437C177.069 17.7437 177.069 17.6437 176.969 17.7437Z" fill="#8A6E35"></path><path d="M175.57 6.34375C173.07 6.34375 170.67 7.24375 168.77 8.84375C170.57 10.5438 171.67 12.8437 172.07 15.2437C172.47 14.5437 173.27 14.1438 174.07 14.1438C174.47 14.1438 174.97 14.2438 175.37 14.4438L175.17 15.6438C174.87 15.4438 174.47 15.3438 174.17 15.3438C173.27 15.3438 172.67 16.1437 172.67 17.3438C172.67 18.1438 173.07 18.6438 173.77 18.6438C174.07 18.6438 174.47 18.5438 174.77 18.3438L174.47 19.5437C174.17 19.6437 173.77 19.7437 173.47 19.7437C172.87 19.7437 172.27 19.5437 171.97 19.0437C171.57 21.2437 170.37 23.2437 168.77 24.8438C170.67 26.4438 173.07 27.3438 175.57 27.3438C181.37 27.3438 186.07 22.6438 186.07 16.8438C186.07 11.0437 181.37 6.34375 175.57 6.34375ZM178.07 19.6438H177.07V19.1438C176.77 19.5438 176.37 19.7438 175.87 19.6438C175.57 19.6438 175.27 19.5437 175.07 19.2437C174.87 19.0437 174.77 18.7438 174.77 18.4438C174.77 17.3438 175.57 16.7437 176.77 16.7437C176.97 16.7437 177.07 16.7437 177.27 16.7437C177.27 16.6437 177.27 16.5438 177.27 16.4438C177.27 16.1438 177.07 16.0437 176.57 16.0437C176.17 16.0437 175.77 16.1437 175.37 16.2437L175.57 15.2437C175.97 15.1437 176.47 15.0437 176.97 15.0437C177.97 15.0437 178.47 15.4438 178.47 16.3438C178.47 16.6438 178.47 16.9437 178.37 17.2437C178.27 17.9437 178.07 19.3438 178.07 19.6438ZM179.57 19.6438H178.47V19.3438C178.67 17.9438 178.97 16.6437 179.07 15.2437H180.17C180.17 15.4437 180.17 15.6438 180.07 15.9438C180.47 15.4438 180.67 15.1437 181.17 15.2437C180.97 15.6437 180.77 16.0437 180.77 16.5437C180.07 16.4437 179.97 16.9438 179.57 19.6438ZM183.07 19.6438L183.17 19.2437C182.87 19.5437 182.47 19.7437 182.07 19.7437C181.27 19.7437 180.67 19.0438 180.67 17.9438C180.67 16.4438 181.57 15.2437 182.57 15.2437C182.97 15.2437 183.47 15.4437 183.67 15.8438L183.97 14.2438H185.07L184.17 19.6438H183.07Z" fill="#8A6E35"></path><path d="M182.769 16.3438C182.269 16.3438 181.869 16.9438 181.869 17.8438C181.869 18.4438 182.069 18.7437 182.469 18.7437C182.969 18.7437 183.369 18.1437 183.369 17.2437C183.369 16.6437 183.169 16.3438 182.769 16.3438Z" fill="#8A6E35"></path><path d="M167.268 16.1445C166.868 16.1445 166.668 16.4445 166.568 16.9445H167.868C167.868 16.8445 167.968 16.1445 167.268 16.1445Z" fill="#8A6E35"></path><path d="M171.469 16.7434C171.469 16.4434 171.469 16.0434 171.369 15.7434C171.269 16.0434 171.169 16.2434 171.169 16.5434C170.469 16.4434 170.369 17.0434 169.969 19.7434H168.769L168.869 19.4434C169.069 18.0434 169.369 16.7434 169.469 15.3434H170.569C170.569 15.5434 170.569 15.7434 170.469 16.0434C170.769 15.6434 170.969 15.3434 171.269 15.3434C170.869 13.0434 169.869 11.0434 168.169 9.44336C166.469 11.0434 165.369 13.1434 165.069 15.4434H165.469L165.269 16.3434H164.969C164.969 16.5434 164.969 16.7434 164.969 16.8434C164.969 19.7434 166.169 22.4434 168.169 24.4434C170.069 22.6434 171.169 20.2434 171.369 17.7434C171.369 17.6434 171.369 17.5434 171.369 17.4434C171.469 17.1434 171.469 16.9434 171.469 16.7434ZM167.469 18.7434C167.869 18.7434 168.269 18.6434 168.669 18.4434L168.469 19.5434C168.069 19.6434 167.669 19.7434 167.269 19.7434C166.769 19.8434 166.169 19.6434 165.769 19.2434C165.369 18.8434 165.169 18.3434 165.269 17.7434C165.269 16.2434 166.169 15.1434 167.269 15.1434C167.669 15.1434 168.069 15.2434 168.369 15.5434C168.669 15.8434 168.869 16.2434 168.769 16.7434C168.769 17.1434 168.669 17.4434 168.669 17.8434H166.469C166.369 18.4434 166.769 18.7434 167.469 18.7434Z" fill="#8A6E35"></path><path d="M333.758 13.1445H333.958H334.058H334.158L334.258 13.0445L334.358 12.9445L334.458 12.7445L334.558 12.5445V12.0445L334.458 11.9445L334.358 11.8445L334.258 11.7445L334.158 11.6445H333.758L333.658 11.7445L333.558 11.8445L333.458 11.9445L333.358 12.0445L333.258 12.1445V12.3445V12.5445V12.7445L333.358 12.8445L333.458 12.9445L333.558 13.0445L333.658 13.1445H333.758ZM359.458 19.5445H360.058V19.1445L360.158 18.7445C360.158 18.5445 360.258 18.1445 360.258 17.8445C360.258 17.5445 360.358 17.3445 360.358 17.2445C360.358 17.1445 360.458 16.8445 360.458 16.6445C360.458 16.4445 360.558 16.2445 360.558 16.1445C360.558 16.1445 360.558 16.0445 360.558 15.9445C360.558 15.8445 360.658 15.7445 360.658 15.6445L360.758 15.4445L360.858 15.2445L360.958 15.0445L361.158 14.9445C361.258 14.8445 361.358 14.8445 361.458 14.7445L361.658 14.6445H362.358H362.458H362.558V14.7445C362.558 14.6445 362.558 14.4445 362.658 14.3445L362.758 14.0445H362.658C362.558 14.0445 362.558 14.0445 362.458 13.9445H362.358H361.858L361.658 14.0445L361.458 14.1445L361.358 14.2445L361.258 14.3445L361.058 14.5445L360.858 14.7445L360.758 14.9445C360.758 15.0445 360.658 15.0445 360.658 15.0445C360.658 15.0445 360.658 14.8445 360.758 14.6445C360.858 14.4445 360.858 14.2445 360.858 14.2445V14.0445H359.858C359.858 14.0445 359.858 14.2445 359.758 14.4445C359.658 14.6445 359.658 15.0445 359.658 15.3445C359.558 15.6445 359.558 15.9445 359.458 16.3445C359.458 16.6445 359.358 16.9445 359.358 17.1445C359.358 17.3445 359.258 17.6445 359.258 17.9445C359.258 18.2445 359.158 18.5445 359.058 18.7445L358.958 19.3445V19.5445H359.458ZM346.058 19.5445H346.658V19.3445C346.658 19.2445 346.658 18.9445 346.758 18.7445C346.858 18.5445 346.858 18.1445 346.858 17.8445C346.958 17.5445 346.958 17.1445 347.058 16.8445C347.158 16.5445 347.158 16.2445 347.158 16.2445V16.1445C347.158 16.0445 347.258 15.9445 347.258 15.9445C347.358 15.8445 347.358 15.6445 347.458 15.5445L347.558 15.3445L347.758 15.1445L347.958 14.9445L348.158 14.8445L348.358 14.7445H348.958H349.158C349.258 14.7445 349.358 14.7445 349.358 14.7445C349.358 14.7445 349.358 14.7445 349.358 14.6445C349.358 14.5445 349.358 14.4445 349.458 14.2445C349.558 14.0445 349.558 13.9445 349.558 13.9445C349.458 13.9445 349.458 13.8445 349.358 13.8445C349.258 13.8445 349.158 13.7445 349.058 13.7445H348.958H348.758C348.658 13.7445 348.558 13.7445 348.458 13.8445C348.358 13.8445 348.258 13.9445 348.158 13.9445C348.058 14.0445 347.958 14.0445 347.858 14.1445C347.758 14.2445 347.658 14.3445 347.558 14.4445L347.358 14.6445C347.358 14.5445 347.358 14.3445 347.458 14.2445C347.558 14.1445 347.558 13.9445 347.558 13.8445H346.558V13.9445C346.558 13.9445 346.558 14.1445 346.458 14.4445C346.358 14.7445 346.358 15.0445 346.358 15.2445C346.358 15.4445 346.258 15.8445 346.258 16.1445C346.258 16.4445 346.158 16.7445 346.158 16.9445C346.058 17.4445 345.958 18.0445 345.858 18.5445C345.858 18.7445 345.758 19.0445 345.758 19.1445C345.758 19.2445 345.758 19.3445 345.758 19.3445L346.058 19.5445ZM332.658 19.5445H333.258V19.4445C333.258 19.3445 333.258 19.1445 333.358 18.8445C333.458 18.2445 333.558 17.6445 333.658 16.9445C333.658 16.6445 333.758 16.4445 333.758 16.1445C333.758 15.9445 333.858 15.5445 333.858 15.3445C333.858 15.1445 333.958 14.7445 334.058 14.5445C334.158 14.3445 334.158 14.0445 334.158 14.0445H333.558H332.958V14.3445C332.958 14.5445 332.858 14.9445 332.858 15.1445C332.858 15.3445 332.758 15.8445 332.758 16.0445C332.758 16.3445 332.658 16.6445 332.658 16.8445C332.658 17.0445 332.558 17.4445 332.558 17.6445C332.558 17.8445 332.458 18.1445 332.458 18.4445C332.458 18.7445 332.358 18.9445 332.358 19.1445C332.358 19.3445 332.258 19.4445 332.258 19.4445V19.5445H332.658ZM325.458 19.5445H326.058V19.2445C326.058 19.0445 326.158 18.7445 326.158 18.5445L326.258 17.6445C326.258 17.3445 326.358 16.9445 326.458 16.7445C326.558 16.5445 326.558 16.1445 326.558 15.9445C326.558 15.8445 326.558 15.7445 326.658 15.5445H330.158V15.7445C330.158 15.8445 330.058 16.0445 330.058 16.3445C330.058 16.6445 329.958 16.9445 329.858 17.2445C329.758 17.5445 329.758 17.7445 329.758 18.0445C329.758 18.2445 329.658 18.6445 329.558 18.9445C329.458 19.2445 329.458 19.4445 329.458 19.5445H330.758V19.3445C330.758 19.2445 330.758 19.0445 330.858 18.9445C330.958 18.8445 330.958 18.6445 330.958 18.4445C330.958 18.2445 331.058 17.9445 331.058 17.6445C331.058 17.3445 331.158 16.9445 331.258 16.7445C331.358 16.5445 331.358 16.0445 331.358 15.8445C331.358 15.5445 331.458 15.3445 331.458 15.0445C331.458 14.8445 331.558 14.4445 331.658 14.1445C331.758 13.8445 331.758 13.5445 331.758 13.3445C331.758 13.1445 331.858 12.7445 331.858 12.5445C331.858 12.3445 331.958 12.0445 331.958 11.9445V11.7445H330.658V11.8445C330.658 11.9445 330.658 12.1445 330.558 12.2445C330.458 12.3445 330.458 12.7445 330.458 12.9445C330.458 13.1445 330.358 13.5445 330.358 13.7445C330.358 13.9445 330.258 14.2445 330.258 14.5445V14.8445H329.258H328.258H327.458C327.058 14.8445 326.658 14.8445 326.658 14.8445C326.658 14.7445 326.658 14.6445 326.658 14.6445C326.658 14.4445 326.758 14.3445 326.758 14.1445C326.758 13.9445 326.858 13.7445 326.858 13.5445C326.858 13.3445 326.958 13.1445 326.958 13.0445C326.958 12.9445 326.958 12.7445 327.058 12.6445C327.158 12.5445 327.158 12.3445 327.158 12.1445C327.158 11.9445 327.258 11.8445 327.258 11.8445H325.958V12.0445C325.958 12.1445 325.858 12.3445 325.858 12.4445C325.858 12.5445 325.758 12.8445 325.758 13.1445C325.758 13.4445 325.658 13.8445 325.658 14.0445L325.558 14.9445C325.458 15.2445 325.458 15.5445 325.358 15.9445C325.358 16.2445 325.258 16.4445 325.258 16.7445C325.258 16.9445 325.158 17.2445 325.158 17.5445C325.158 17.8445 325.058 18.0445 325.058 18.3445C325.058 18.5445 324.958 18.7445 324.958 18.8445C324.958 18.9445 324.858 19.1445 324.858 19.3445C324.858 19.5445 324.758 19.7445 324.758 19.7445L325.458 19.5445ZM364.158 19.7445H364.458H364.658C364.758 19.7445 364.958 19.6445 365.058 19.6445C365.158 19.6445 365.258 19.5445 365.358 19.5445L365.558 19.4445L365.658 19.3445L365.758 19.2445L365.858 19.0445C365.958 18.9445 365.958 18.8445 366.058 18.8445V18.9445C366.058 19.0445 366.058 19.1445 366.058 19.2445C366.058 19.3445 366.058 19.4445 366.058 19.5445V19.7445H367.058V19.3445L367.158 18.6445C367.158 18.2445 367.258 17.7445 367.258 17.5445C367.258 17.3445 367.358 16.9445 367.358 16.8445C367.358 16.7445 367.458 16.3445 367.458 16.1445C367.458 15.9445 367.558 15.5445 367.558 15.3445C367.558 15.1445 367.658 14.7445 367.758 14.4445C367.858 14.1445 367.858 13.8445 367.858 13.6445C367.858 13.4445 367.958 13.0445 368.058 12.8445C368.158 12.6445 368.158 12.3445 368.158 12.1445C368.158 11.9445 368.258 11.8445 368.258 11.8445H367.158V12.0445C367.158 12.1445 367.058 12.4445 367.058 12.7445C366.958 13.0445 366.958 13.4445 366.858 13.7445C366.858 13.9445 366.758 14.1445 366.758 14.3445V14.4445C366.758 14.4445 366.558 14.4445 366.458 14.3445L366.158 14.2445H365.858H365.558H365.258H364.958L364.658 14.3445L364.358 14.4445L364.058 14.5445L363.858 14.3445L363.658 14.4445L363.458 14.5445L363.258 14.7445C363.158 14.8445 363.058 14.9445 362.958 15.0445V15.3445L362.858 15.6445C362.758 15.8445 362.658 16.0445 362.658 16.1445C362.658 16.2445 362.558 16.4445 362.458 16.6445L362.358 16.9445V17.3445V17.7445V18.0445V18.3445V18.4445C362.358 18.5445 362.458 18.6445 362.458 18.7445L362.558 18.8445L362.658 18.9445L362.758 19.0445L362.858 19.1445L362.958 19.2445L363.158 19.3445C363.258 19.4445 363.358 19.4445 363.458 19.4445C363.558 19.4445 363.658 19.5445 363.758 19.5445C363.858 19.7445 364.058 19.7445 364.158 19.7445ZM364.658 18.9445H364.458H364.358C364.258 18.9445 364.158 18.9445 364.058 18.8445L363.958 18.7445L363.858 18.6445L363.758 18.5445L363.558 18.3445V18.1445V17.9445V17.2445V16.9445V16.6445L363.658 16.4445C363.658 16.3445 363.658 16.2445 363.758 16.2445C363.758 16.1445 363.758 16.1445 363.858 16.0445C363.958 15.9445 363.958 15.8445 364.058 15.7445C364.158 15.6445 364.158 15.5445 364.258 15.4445C364.358 15.3445 364.358 15.2445 364.458 15.1445C364.558 15.0445 364.658 15.0445 364.658 14.9445L364.758 14.8445L364.958 14.7445L365.158 14.6445H366.058L366.358 14.7445C366.458 14.7445 366.658 14.8445 366.658 14.8445H366.758V14.9445C366.758 14.9445 366.758 15.1445 366.658 15.3445C366.558 15.5445 366.558 15.8445 366.558 16.0445C366.558 16.2445 366.458 16.6445 366.458 16.8445C366.458 17.0445 366.358 17.2445 366.358 17.4445C366.358 17.6445 366.258 17.6445 366.258 17.7445C366.258 17.8445 366.158 17.9445 366.158 18.0445C366.158 18.1445 366.058 18.2445 365.958 18.3445C365.858 18.4445 365.858 18.4445 365.758 18.5445C365.658 18.6445 365.558 18.6445 365.558 18.7445L365.458 18.8445L365.058 18.9445H364.658ZM355.158 19.7445H355.558L355.758 19.6445L355.958 19.5445L356.058 19.4445C356.158 19.3445 356.258 19.3445 356.358 19.2445C356.458 19.1445 356.558 19.1445 356.658 19.0445C356.758 18.9445 356.858 18.8445 356.858 18.7445L356.958 18.6445C356.958 18.7445 356.958 18.8445 356.958 18.9445C356.958 19.0445 356.958 19.2445 356.958 19.3445V19.5445H357.958V19.1445V18.7445L358.058 18.2445C358.058 17.9445 358.158 17.5445 358.158 17.3445C358.158 17.1445 358.258 16.7445 358.258 16.5445C358.258 16.3445 358.358 15.9445 358.358 15.7445L358.458 15.3445V14.7445L358.358 14.5445L358.258 14.3445H358.358L358.258 14.2445L358.058 14.1445L357.858 14.0445L357.358 13.9445H357.058H356.758H356.358C356.158 13.9445 355.758 13.9445 355.558 14.0445H355.258H354.858V14.2445C354.858 14.3445 354.758 14.5445 354.758 14.6445C354.758 14.7445 354.658 14.8445 354.658 14.9445C354.758 14.9445 354.858 14.9445 354.958 14.8445C355.058 14.8445 355.358 14.7445 355.558 14.7445L355.958 14.6445H356.358H356.758L357.258 14.7445L357.458 14.8445L357.658 14.9445L357.758 15.0445L357.858 15.1445V15.5445V15.7445V15.9445H355.958L355.658 16.0445C355.558 16.0445 355.358 16.1445 355.258 16.1445C355.258 16.1445 355.158 16.1445 355.158 16.2445C355.058 16.2445 354.958 16.3445 354.958 16.3445L354.758 16.4445L354.558 16.6445C354.458 16.7445 354.358 16.8445 354.358 16.9445C354.258 17.0445 354.258 17.1445 354.158 17.2445L354.058 17.4445V17.6445V17.8445V18.3445V18.5445V18.7445L354.158 18.8445C354.158 18.9445 354.258 19.0445 354.358 19.0445L354.458 19.1445L354.658 19.2445L354.858 19.3445L355.058 19.4445C355.158 19.4445 355.358 19.5445 355.358 19.5445H355.558L355.158 19.7445ZM355.558 18.9445H355.358H355.258C355.158 18.9445 355.058 18.8445 354.958 18.8445L354.858 18.7445L354.758 18.6445C354.758 18.5445 354.658 18.5445 354.658 18.4445L354.558 18.3445V18.0445V17.7445V17.5445C354.558 17.4445 354.658 17.3445 354.658 17.2445L354.758 17.0445L354.958 16.8445L355.158 16.6445L355.358 16.5445L355.558 16.4445L355.758 16.3445L355.958 16.2445H357.258V16.4445C357.258 16.5445 357.158 16.7445 357.158 16.9445C357.158 17.1445 357.058 17.2445 357.058 17.4445C357.058 17.6445 356.958 17.6445 356.958 17.6445C356.958 17.7445 356.858 17.7445 356.858 17.8445L356.758 18.0445L356.558 18.2445C356.458 18.3445 356.458 18.3445 356.358 18.4445C356.358 18.4445 356.258 18.4445 356.258 18.5445L356.158 18.6445L355.958 18.7445L355.758 18.8445L355.558 18.9445ZM350.858 19.7445H351.158H351.458C351.658 19.7445 351.858 19.6445 351.958 19.6445C352.058 19.6445 352.258 19.5445 352.358 19.5445C352.458 19.5445 352.558 19.5445 352.558 19.4445C352.558 19.3445 352.658 19.2445 352.658 19.1445C352.658 19.0445 352.758 18.8445 352.758 18.7445C352.758 18.6445 352.758 18.6445 352.758 18.5445C352.658 18.5445 352.558 18.6445 352.458 18.6445L352.158 18.7445L351.758 18.8445L351.358 18.9445H351.058H350.758L350.558 18.8445L350.358 18.7445L350.258 18.6445L350.158 18.5445L350.058 18.3445L349.958 18.1445V17.9445V17.7445V17.1445L350.058 16.8445L350.158 16.5445L350.258 16.3445C350.258 16.2445 350.358 16.1445 350.358 16.0445C350.358 15.9445 350.458 15.8445 350.458 15.7445C350.458 15.6445 350.558 15.4445 350.658 15.3445L350.758 15.1445L350.858 15.0445L350.958 14.9445L351.058 14.8445L351.158 14.7445L351.358 14.6445C351.458 14.6445 351.558 14.5445 351.758 14.5445H351.958H352.258H352.558L352.858 14.6445L353.158 14.7445L353.258 14.8445C353.358 14.8445 353.358 14.9445 353.358 14.9445C353.358 14.8445 353.358 14.8445 353.358 14.7445C353.358 14.6445 353.458 14.4445 353.458 14.3445C353.458 14.2445 353.458 14.1445 353.458 14.1445C353.358 14.1445 353.258 14.1445 353.258 14.1445C353.158 14.1445 352.858 14.1445 352.558 14.0445H352.058H351.658H351.258L350.958 14.1445L350.658 14.2445L350.458 14.3445C350.358 14.3445 350.258 14.4445 350.158 14.5445C350.058 14.5445 350.058 14.6445 349.958 14.6445C349.858 14.7445 349.758 14.8445 349.658 14.9445L349.458 15.1445L349.558 15.0445C349.458 15.1445 349.358 15.3445 349.358 15.4445L349.258 15.7445L349.158 16.0445C349.058 16.2445 349.058 16.4445 348.958 16.6445L348.858 16.9445V17.2445V17.5445V18.2445V18.4445V18.6445L348.958 18.8445L349.058 19.0445L349.158 19.1445L349.258 19.2445L349.358 19.3445L349.458 19.4445L349.658 19.5445L349.858 19.6445L350.058 19.7445C350.158 19.7445 350.258 19.8445 350.458 19.8445C350.458 19.7445 350.658 19.7445 350.858 19.7445ZM342.358 19.7445H342.658H342.958C343.158 19.7445 343.358 19.7445 343.558 19.6445C343.758 19.5445 343.958 19.5445 344.158 19.5445L344.458 19.4445V19.3445C344.458 19.2445 344.458 19.0445 344.558 18.9445L344.658 18.6445H344.558C344.458 18.6445 344.358 18.7445 344.158 18.7445L343.858 18.8445L343.558 18.9445L343.258 19.0445H342.358L342.158 18.9445C342.058 18.9445 341.958 18.8445 341.858 18.8445L341.758 18.7445L341.558 18.5445L341.458 18.4445L341.358 18.3445L341.258 18.1445L341.158 17.9445V17.2445V16.9445V16.6445H341.958H343.458H344.958V16.4445C344.958 16.3445 345.058 16.1445 345.058 15.9445V15.6445V15.1445V14.9445V14.7445L344.958 14.6445C344.958 14.5445 344.858 14.5445 344.858 14.4445C344.758 14.3445 344.758 14.3445 344.658 14.2445C344.558 14.2445 344.458 14.1445 344.458 14.1445L344.358 14.0445L344.158 13.9445L343.958 13.8445H343.658H343.358H343.058H342.758L342.558 14.0445L342.258 14.1445L342.058 14.2445C341.958 14.3445 341.758 14.3445 341.658 14.4445C341.558 14.5445 341.458 14.5445 341.358 14.6445C341.258 14.7445 341.158 14.8445 341.058 14.8445C340.958 14.9445 340.858 15.0445 340.858 15.1445C340.758 15.2445 340.758 15.3445 340.658 15.4445C340.558 15.5445 340.558 15.6445 340.558 15.7445C340.558 15.8445 340.458 15.9445 340.458 16.0445C340.458 16.1445 340.358 16.3445 340.358 16.5445C340.358 16.7445 340.258 16.9445 340.258 17.0445V17.3445V18.1445V18.3445C340.258 18.4445 340.358 18.5445 340.358 18.6445C340.358 18.7445 340.458 18.8445 340.458 18.9445C340.558 19.0445 340.558 19.1445 340.658 19.1445C340.758 19.2445 340.858 19.2445 340.858 19.3445C340.958 19.4445 341.058 19.4445 341.158 19.5445L341.358 19.6445L341.558 19.7445C341.658 19.7445 341.858 19.8445 341.958 19.8445C342.058 19.8445 342.158 19.7445 342.358 19.7445ZM342.858 15.9445C342.158 15.9445 341.558 15.9445 341.558 15.9445C341.558 15.9445 341.558 15.8445 341.658 15.7445C341.758 15.6445 341.758 15.4445 341.758 15.3445L341.858 15.1445L342.058 14.9445L342.258 14.7445L342.458 14.6445C342.558 14.6445 342.658 14.5445 342.758 14.5445C342.858 14.5445 342.958 14.5445 343.158 14.5445H343.458H343.658H343.858L343.958 14.6445L344.058 14.7445L344.158 14.8445C344.158 14.8445 344.258 14.9445 344.258 15.0445V15.1445V15.3445V15.5445V15.8445V16.1445L342.858 15.9445ZM334.958 22.0445C334.958 21.9445 334.958 21.9445 334.958 21.8445C334.958 21.8445 334.958 21.6445 334.958 21.4445C334.958 21.2445 335.058 20.9445 335.058 20.6445C335.058 20.3445 335.158 19.9445 335.158 19.7445C335.158 19.5445 335.258 19.3445 335.258 19.1445C335.258 19.0445 335.258 18.9445 335.258 18.9445L335.358 19.0445L335.458 19.1445L335.558 19.2445L335.658 19.3445L335.858 19.4445L336.058 19.5445H336.258H336.458H336.758H337.058L337.358 19.4445L337.658 19.3445L337.858 19.2445C337.958 19.1445 338.058 19.1445 338.158 19.0445L338.358 18.9445L338.558 18.7445C338.658 18.6445 338.758 18.5445 338.858 18.4445C338.858 18.3445 338.958 18.3445 338.958 18.2445C338.958 18.2445 338.958 18.1445 339.058 18.1445C339.158 18.0445 339.158 17.9445 339.258 17.7445C339.358 17.6445 339.458 17.3445 339.458 17.1445L339.558 16.8445L339.658 16.5445C339.658 16.3445 339.758 16.1445 339.758 15.9445V15.6445V15.4445V15.2445L339.658 15.0445L339.558 14.8445L339.458 14.6445H339.558L339.358 14.4445L339.158 14.2445L338.758 14.0445H338.558L338.358 13.9445H338.158H337.958H337.658H337.358L337.158 14.0445L336.958 14.1445L336.758 14.2445C336.658 14.3445 336.558 14.3445 336.458 14.4445C336.358 14.4445 336.358 14.5445 336.258 14.5445L336.158 14.6445H336.058V14.4445C336.058 14.3445 336.058 14.2445 336.058 14.1445H335.058L334.958 14.6445C334.958 14.9445 334.858 15.4445 334.758 15.6445C334.658 16.2445 334.558 16.8445 334.458 17.3445C334.458 17.6445 334.358 18.0445 334.258 18.2445C334.158 18.4445 334.158 18.8445 334.158 19.0445C334.158 19.2445 334.058 19.5445 334.058 19.8445C333.958 20.1445 333.958 20.4445 333.858 20.7445C333.758 21.0445 333.758 21.3445 333.658 21.5445C333.658 21.7445 333.558 21.9445 333.558 22.0445V22.1445L334.958 22.0445ZM336.558 19.0445H336.458H336.358L336.258 18.9445L336.158 18.8445L336.058 18.7445L335.958 18.6445L335.858 18.5445C335.858 18.4445 335.758 18.3445 335.758 18.2445V18.1445V17.9445V17.7445L335.858 17.3445C335.958 17.0445 335.958 16.8445 336.058 16.5445C336.058 16.2445 336.158 15.9445 336.258 15.7445L336.358 15.3445L336.558 15.2445C336.658 15.1445 336.758 15.1445 336.858 15.0445L336.958 14.9445L337.158 14.8445L337.358 14.7445H337.858H338.058H338.258L338.358 14.8445L338.458 14.9445L338.558 15.0445L338.658 15.1445L338.758 15.2445C338.758 15.3445 338.858 15.4445 338.858 15.5445V15.7445V16.2445V16.7445L338.758 17.0445C338.758 17.2445 338.658 17.4445 338.558 17.6445L338.458 17.9445L338.358 18.1445C338.258 18.2445 338.258 18.3445 338.158 18.4445C338.058 18.5445 338.058 18.6445 337.958 18.6445C337.858 18.7445 337.858 18.7445 337.758 18.8445L337.658 18.9445L337.158 19.1445L336.558 19.0445Z" fill="#8A6E35"></path><path d="M266.843 11.5109C267.443 11.3109 268.043 11.2109 268.643 11.2109C271.343 11.2109 273.643 13.1109 274.243 15.7109L278.143 14.9109C277.243 10.4109 273.243 7.21094 268.743 7.21094C267.743 7.21094 266.643 7.41094 265.643 7.71094L266.843 11.5109Z" fill="#8A6E35"></path><path d="M262.343 24.1113L264.943 21.1113C263.743 20.0113 263.043 18.5113 263.043 16.8113C263.043 15.2113 263.743 13.7113 264.943 12.6113L262.343 9.61133C260.243 11.5113 259.043 14.1113 259.043 16.9113C259.043 19.6113 260.243 22.2113 262.343 24.1113Z" fill="#8A6E35"></path><path d="M274.243 18.0117C273.743 20.6117 271.343 22.5117 268.643 22.5117C268.043 22.5117 267.443 22.4117 266.843 22.2117L265.543 26.0117C266.543 26.3117 267.543 26.5117 268.643 26.5117C273.243 26.5117 277.143 23.3117 278.143 18.8117L274.243 18.0117Z" fill="#8A6E35"></path><path d="M291.142 20.6113C290.442 21.2113 289.542 21.6113 288.642 21.6113C288.042 21.6113 287.342 21.4113 286.842 21.1113L285.542 23.2113C286.442 23.8113 287.542 24.1113 288.542 24.1113C290.142 24.1113 291.642 23.5113 292.742 22.4113L291.142 20.6113ZM288.742 12.3113C285.542 12.3113 282.842 14.8113 282.742 18.1113C282.742 19.3113 283.042 20.4113 283.742 21.4113L294.442 16.8113C293.742 14.2113 291.442 12.3113 288.742 12.3113ZM285.242 18.5113C285.242 18.4113 285.242 18.2113 285.242 18.1113C285.242 16.2113 286.842 14.7113 288.742 14.7113C289.742 14.7113 290.642 15.2113 291.342 15.9113L285.242 18.5113ZM297.742 9.61133V21.0113L299.742 21.8113L298.842 24.0113L296.842 23.2113C296.442 23.0113 296.142 22.7113 295.842 22.4113C295.542 22.0113 295.442 21.5113 295.442 21.0113V9.61133H297.742ZM304.842 14.9113C305.242 14.8113 305.542 14.7113 305.942 14.7113C307.542 14.7113 309.042 15.9113 309.342 17.5113L311.742 17.0113C311.142 14.3113 308.742 12.3113 305.942 12.3113C305.342 12.3113 304.642 12.4113 304.042 12.6113L304.842 14.9113ZM302.042 22.6113L303.642 20.8113C302.942 20.1113 302.442 19.2113 302.442 18.2113C302.442 17.2113 302.842 16.3113 303.642 15.6113L302.042 13.8113C300.742 14.9113 300.042 16.5113 300.042 18.2113C300.042 19.9113 300.842 21.5113 302.042 22.6113ZM309.342 18.9113C309.042 20.5113 307.642 21.7113 305.942 21.7113C305.542 21.7113 305.242 21.6113 304.842 21.5113L304.042 23.8113C304.642 24.0113 305.242 24.1113 305.942 24.1113C308.742 24.1113 311.142 22.1113 311.742 19.4113L309.342 18.9113Z" fill="#8A6E35"></path><path d="M390.897 7.10059H386.297C383.697 7.00059 381.097 8.10059 379.297 9.90059C377.497 11.8006 376.397 14.3006 376.497 16.9006C376.597 22.3006 380.897 26.6006 386.297 26.6006H390.897C396.197 26.6006 401.097 22.2006 401.097 16.9006C401.097 14.2006 399.997 11.7006 398.097 9.90059C396.097 8.00059 393.597 7.00059 390.897 7.10059ZM386.397 25.8006C381.497 25.8006 377.497 21.8006 377.497 16.9006C377.497 12.0006 381.497 8.00059 386.397 8.00059C391.297 8.00059 395.297 12.0006 395.297 16.9006C395.297 21.8006 391.297 25.8006 386.397 25.8006Z" fill="#8A6E35"></path><path d="M380.697 16.8C380.697 19.1 382.097 21.2 384.297 22.1V11.5C382.197 12.4 380.697 14.5 380.697 16.8Z" fill="#8A6E35"></path><path d="M388.396 11.6016V22.1016C390.596 21.3016 391.996 19.2016 391.996 16.8016C391.996 14.5016 390.596 12.4016 388.396 11.6016Z" fill="#8A6E35"></path><path d="M232.786 10.525L231.886 12.625H233.686L232.786 10.525ZM222.286 11.825C222.486 11.725 222.586 11.525 222.586 11.325C222.586 11.125 222.486 10.925 222.286 10.825C222.086 10.725 221.886 10.725 221.686 10.725H220.086V11.925H221.686C221.886 12.025 222.086 11.925 222.286 11.825ZM201.486 10.525L200.586 12.625H202.386L201.486 10.525ZM243.286 24.025H240.786V22.925H243.286C243.486 22.925 243.686 22.925 243.786 22.825C243.886 22.725 243.986 22.625 243.986 22.525C243.986 22.425 243.886 22.225 243.786 22.125C243.686 22.025 243.486 22.025 243.286 22.025C242.086 22.025 240.486 22.025 240.486 20.425C240.486 19.625 240.986 18.825 242.386 18.825H244.986V17.725H242.586C241.986 17.725 241.386 17.825 240.986 18.125V17.725H237.386C236.786 17.725 236.286 17.825 235.786 18.125V17.725H229.386V18.125C228.886 17.825 228.186 17.725 227.586 17.725H223.386V18.125C222.786 17.825 222.186 17.625 221.486 17.725H216.686L215.586 18.825L214.586 17.725H207.486V25.125H214.486L215.586 24.025L216.686 25.125H220.986V23.425H221.386C221.986 23.425 222.586 23.325 223.186 23.125V25.125H226.686V23.225H226.886C227.086 23.225 227.086 23.225 227.086 23.425V25.125H237.886C238.486 25.125 239.186 25.025 239.686 24.625V25.125H243.186C243.886 25.125 244.486 25.025 245.086 24.825V23.425C244.586 23.825 243.986 24.125 243.286 24.025ZM221.386 22.325H219.786V24.125H217.186L215.586 22.425L213.886 24.125H208.686V18.825H213.986L215.586 20.525L217.286 18.825H221.486C222.486 18.825 223.686 19.125 223.686 20.525C223.686 21.925 222.586 22.325 221.386 22.325ZM229.286 22.025C229.486 22.325 229.586 22.625 229.486 23.025V24.025H228.186V23.325C228.186 23.025 228.186 22.525 227.986 22.325C227.686 22.125 227.386 22.025 226.986 22.125H225.586V24.025H224.286V18.725H227.286C227.786 18.725 228.386 18.725 228.886 18.925C229.286 19.125 229.586 19.625 229.586 20.125C229.586 20.725 229.186 21.325 228.686 21.525C228.986 21.725 229.186 21.825 229.286 22.025ZM234.786 19.925H231.686V20.925H234.686V22.025H231.686V23.125H234.786V24.225H230.386V18.925H234.786V19.925ZM238.186 24.125H235.586V23.025H238.186C238.386 23.025 238.586 23.025 238.686 22.925C238.786 22.825 238.886 22.725 238.886 22.625C238.886 22.525 238.786 22.325 238.686 22.225C238.586 22.125 238.386 22.125 238.186 22.125C236.986 22.125 235.386 22.125 235.386 20.525C235.386 19.725 235.886 18.925 237.286 18.925H239.886V20.025H237.486C237.286 20.025 237.086 20.025 236.986 20.125C236.886 20.225 236.786 20.325 236.786 20.525C236.786 20.725 236.886 20.825 237.086 20.925C237.286 20.925 237.386 21.025 237.586 21.025H238.286C238.786 21.025 239.386 21.125 239.786 21.425C240.086 21.725 240.186 22.125 240.186 22.525C240.186 23.525 239.486 24.125 238.186 24.125ZM227.886 19.925C227.686 19.825 227.486 19.825 227.286 19.825H225.686V21.025H227.286C227.486 21.025 227.686 21.025 227.886 20.925C228.086 20.825 228.186 20.625 228.186 20.425C228.186 20.225 228.086 20.025 227.886 19.925ZM242.686 19.825C242.486 19.825 242.286 19.825 242.186 19.925C242.086 20.025 241.986 20.125 241.986 20.325C241.986 20.525 242.086 20.625 242.286 20.725C242.486 20.725 242.586 20.825 242.786 20.825H243.486C243.986 20.725 244.586 20.925 244.986 21.225L245.086 21.325V19.825H242.686ZM221.486 19.825H219.786V21.125H221.486C221.986 21.125 222.286 20.925 222.286 20.425C222.286 19.925 221.986 19.825 221.486 19.825ZM209.986 19.825V20.825H212.886V21.925H209.986V23.025H213.186L214.686 21.425L213.286 19.925L209.986 19.825ZM218.486 23.525V19.325L216.486 21.425L218.486 23.525ZM210.086 15.125V16.025H221.086V14.125H221.286C221.386 14.125 221.486 14.125 221.486 14.425V16.125H227.186V15.525C227.886 15.825 228.586 16.025 229.286 15.925H231.686L232.186 14.725H233.286L233.786 15.925H238.386V14.925L239.186 16.025H242.886V8.625H239.186V9.525L238.686 8.625H234.886V9.525L234.486 8.625H229.386C228.586 8.625 227.886 8.725 227.186 9.025V8.625H223.686V9.025C223.286 8.725 222.786 8.625 222.186 8.625H209.386L208.486 10.525L207.686 8.625H203.686V9.525L203.186 8.625H199.786L198.186 12.125V14.925L200.586 9.625H202.586L204.786 14.625V9.625H206.986L208.686 13.225L210.186 9.625H212.386V14.925H211.086V10.825L209.186 14.925H207.986L206.086 10.825V14.925H203.386L202.886 13.725H200.086L199.586 14.925H198.186V16.025H200.486L200.986 14.825H202.086L202.586 16.025H206.986V15.125L207.386 16.025H209.686L210.086 15.125ZM227.486 10.225C228.086 9.725 228.786 9.525 229.486 9.625H230.786V10.725H229.586C229.186 10.725 228.886 10.825 228.586 11.025C228.286 11.325 228.186 11.825 228.186 12.225C228.186 12.625 228.286 13.125 228.586 13.425C228.886 13.625 229.186 13.725 229.486 13.725H230.086L231.786 9.625H233.786L235.986 14.625V9.625H237.986L240.286 13.325V9.625H241.586V14.925H239.686L237.186 10.925V14.925H234.486L233.986 13.725H231.286L230.786 14.925H229.286C228.586 14.925 227.886 14.725 227.386 14.325C226.886 13.825 226.586 13.025 226.686 12.325C226.686 11.625 226.986 10.825 227.486 10.225ZM224.786 9.625H226.086V14.925H224.786V9.625ZM218.686 9.625H221.686C222.186 9.525 222.786 9.625 223.286 9.925C223.686 10.125 223.986 10.625 223.986 11.125C223.986 11.725 223.586 12.325 223.086 12.525C223.386 12.625 223.586 12.725 223.786 12.925C223.986 13.225 224.086 13.525 223.986 13.925V14.925H222.686V14.225C222.786 13.825 222.686 13.525 222.486 13.225C222.186 13.025 221.886 12.925 221.486 13.025H220.086V14.925H218.786L218.686 9.625ZM213.386 9.625H217.786V10.725H214.686V11.725H217.686V12.825H214.686V13.925H217.786V15.025H213.386V9.625Z" fill="#8A6E35"></path><path d="M24.6992 22.7008V10.4008C24.6992 10.3008 24.6992 10.3008 24.7992 10.3008H27.1992C27.2992 10.3008 27.2992 10.4008 27.2992 10.4008V14.8008C27.8992 14.0008 28.8992 13.6008 29.8992 13.7008C31.7992 13.7008 32.3992 14.9008 32.3992 16.5008V22.7008C32.3992 22.8008 32.2992 22.8008 32.2992 22.8008H29.8992C29.7992 22.8008 29.7992 22.7008 29.7992 22.7008V16.7008C29.7992 16.0008 29.0992 15.8008 28.5992 15.8008C27.8992 15.8008 27.2992 16.3008 27.2992 17.0008V22.7008C27.2992 22.8008 27.1992 22.8008 27.1992 22.8008H24.7992C24.6992 22.8008 24.6992 22.8008 24.6992 22.7008Z" fill="#8A6E35"></path><path d="M43.6004 20.3004V16.0004H42.5004C42.4004 16.0004 42.4004 15.9004 42.4004 15.9004V14.4004C42.4004 14.4004 42.4004 14.3004 42.5004 14.3004L44.0004 13.9004L44.8004 11.5004C44.8004 11.5004 44.8004 11.4004 44.9004 11.4004H46.0004C46.1004 11.4004 46.1004 11.4004 46.1004 11.5004V13.9004H48.0004C48.1004 13.9004 48.1004 14.0004 48.1004 14.0004V15.9004C48.1004 16.0004 48.1004 16.0004 48.0004 16.0004H46.1004V20.0004C46.1004 20.4004 46.3004 20.7004 46.9004 20.7004H48.0004C48.1004 20.7004 48.1004 20.8004 48.1004 20.8004V22.5004C48.1004 22.5004 48.1004 22.6004 48.0004 22.6004C47.4004 22.9004 46.8004 23.0004 46.2004 23.0004C44.9004 23.2004 43.7004 22.2004 43.5004 20.9004C43.5004 20.7004 43.5004 20.5004 43.6004 20.3004Z" fill="#8A6E35"></path><path d="M80.6004 20.3004V16.0004H79.5004C79.4004 16.0004 79.4004 15.9004 79.4004 15.9004V14.4004C79.4004 14.4004 79.4004 14.3004 79.5004 14.3004L81.0004 13.9004L81.8004 11.5004L81.9004 11.4004H83.2004C83.3004 11.4004 83.3004 11.4004 83.3004 11.5004V13.9004H85.2004C85.3004 13.9004 85.3004 14.0004 85.3004 14.0004V15.9004C85.3004 16.0004 85.3004 16.0004 85.2004 16.0004H83.3004V20.0004C83.3004 20.4004 83.5004 20.7004 84.1004 20.7004H85.2004C85.3004 20.7004 85.3004 20.8004 85.3004 20.8004V22.5004C85.3004 22.5004 85.3004 22.6004 85.2004 22.6004C84.6004 22.9004 84.0004 23.0004 83.3004 23.0004C82.0004 23.2004 80.7004 22.2004 80.6004 20.9004C80.6004 20.7004 80.6004 20.5004 80.6004 20.3004Z" fill="#8A6E35"></path><path d="M49.6992 22.7005V14.0005C49.6992 13.9005 49.7992 13.9005 49.7992 13.9005H51.9992C51.9992 13.9005 52.0992 13.9005 52.0992 14.0005L52.2992 14.9005C52.9992 14.0005 53.9992 13.6005 54.9992 13.7005C55.9992 13.6005 56.8992 14.2005 57.1992 15.2005H57.2992C57.8992 14.2005 58.9992 13.7005 60.0992 13.7005C61.9992 13.7005 62.5992 14.9005 62.5992 16.5005V22.7005C62.5992 22.8005 62.4992 22.8005 62.4992 22.8005H60.0992C59.9992 22.8005 59.9992 22.7005 59.9992 22.7005V16.8005C59.9992 16.2005 59.4992 15.8005 58.8992 15.8005C58.1992 15.8005 57.5992 16.3005 57.4992 16.9005V22.7005C57.4992 22.8005 57.4992 22.8005 57.3992 22.8005H54.9992C54.8992 22.8005 54.8992 22.7005 54.8992 22.7005V16.8005C54.8992 16.1005 54.1992 15.8005 53.6992 15.8005C52.9992 15.8005 52.3992 16.3005 52.3992 17.0005V22.7005C52.3992 22.8005 52.3992 22.8005 52.2992 22.8005H49.8992C49.7992 22.8005 49.6992 22.8005 49.6992 22.7005Z" fill="#8A6E35"></path><path d="M64.1 15.7992V14.1992C64.1 14.0992 64.1 14.0992 64.2 14.0992C65.3 13.8992 66.5 13.6992 67.7 13.6992C70 13.6992 71.3 14.2992 71.3 16.6992V22.6992C71.3 22.7992 71.2 22.7992 71.2 22.7992H68.9C68.8 22.7992 68.8 22.7992 68.8 22.6992L68.6 21.7992H68.7C68.1 22.5992 67.1 22.9992 66.1 22.8992C64.7 22.8992 63.5 21.6992 63.5 20.2992C63.5 20.1992 63.5 20.0992 63.5 19.9992C63.5 17.6992 65.2 17.1992 66.5 17.1992H68.7V16.5992C68.7 15.8992 68.2 15.6992 66.1 15.6992C65.2 15.6992 64.3 15.7992 64.2 15.7992C64.2 15.8992 64.1 15.8992 64.1 15.7992ZM68.7 18.9992H67.3C66.5 18.9992 66.1 19.2992 66.1 20.0992C66.1 20.9992 66.7 21.1992 67.3 21.1992C68.1 21.1992 68.7 20.6992 68.8 19.8992C68.8 19.8992 68.8 19.7992 68.8 19.6992L68.7 18.9992Z" fill="#8A6E35"></path><path d="M72.8008 22.7005V14.0005C72.8008 13.9005 72.8008 13.9005 72.9008 13.9005H75.0008C75.1008 13.9005 75.1008 13.9005 75.1008 14.0005L75.4008 15.4005C75.9008 14.4005 77.0008 13.7005 78.2008 13.8005C78.3008 13.8005 78.3008 13.9005 78.3008 13.9005V16.3005C78.3008 16.4005 78.2008 16.4005 78.2008 16.4005H77.6008C76.0008 16.4005 75.4008 17.1005 75.4008 17.9005V22.8005C75.4008 22.9005 75.4008 22.9005 75.3008 22.9005H73.0008C72.9008 22.8005 72.8008 22.8005 72.8008 22.7005Z" fill="#8A6E35"></path><path d="M33.5 18.2996C33.5 15.3996 34.6 13.5996 37.8 13.5996C41 13.5996 42.1 15.3996 42.1 18.2996C42.1 21.1996 40.9 22.9996 37.7 22.9996C34.5 22.9996 33.5 21.1996 33.5 18.2996ZM36.3 18.2996C36.3 19.7996 36.5 20.7996 37.8 20.7996C39.1 20.7996 39.3 19.8996 39.3 18.2996C39.3 16.6996 39.1 15.7996 37.8 15.7996C36.5 15.7996 36.3 16.7996 36.3 18.2996Z" fill="#8A6E35"></path><path d="M19.8 17.5C19.8 14.1 18.8 10.7 17 7.8C16.9 7.7 16.9 7.7 16.9 7.8C17 8.3 17.1 9.2 16.3 9.1C14.9 9 16.3 6 13.3 3.9H13.2C13.2 3.9 13.2 3.9 13.2 4C13.4 4.4 13.5 5.7 13 6.1C12.6 6.4 11.9 6.4 11.2 5.2C10.2 3.6 10.3 1.6 11.3 0.1C11.3 0 11.2 0 11.2 0C7 1.4 6.1 6.4 5.2 8.2C5.1 8.5 4.9 8.7 4.7 8.7C3.9 8.6 4.4 7 4.7 6.4V6.3H4.6C2.1 9 0.6 12.4 0.1 16.1C0.1 16 0.1 16.4 0 16.7C0 16.8 0 16.9 0 17V17.4C0 22.9 4.4 27.3 9.8 27.4C15.2 27.5 19.8 23 19.8 17.5ZM9.8 22.1C7.3 22.1 5.2 20 5.2 17.5C5.2 15 7.3 12.9 9.8 12.9C12.3 12.9 14.4 15 14.4 17.5C14.4 20 12.4 22.1 9.8 22.1Z" fill="#8A6E35"></path><path d="M413.387 7.27344H413.787V17.8734H413.387V7.27344ZM414.187 7.27344H414.587V17.8734H414.187V7.27344ZM416.587 7.27344H416.987V17.8734H416.587V7.27344ZM424.387 7.27344H424.787V17.8734H424.387V7.27344ZM426.987 7.27344H427.387V17.8734H426.987V7.27344ZM429.487 7.27344H429.887V17.8734H429.487V7.27344ZM430.087 7.27344H430.487V17.8734H430.087V7.27344ZM430.787 7.27344H431.187V17.8734H430.787V7.27344ZM431.487 7.27344H431.887V17.8734H431.487V7.27344ZM432.187 7.27344H432.587V17.8734H432.187V7.27344ZM434.287 7.27344H434.687V17.8734H434.287V7.27344ZM439.287 7.27344H439.687V17.8734H439.287V7.27344ZM444.487 7.27344H444.887V17.8734H444.487V7.27344ZM445.987 7.27344H446.387V17.8734H445.987V7.27344ZM446.987 7.27344H447.387V17.8734H446.987V7.27344ZM447.587 7.27344H447.987V17.8734H447.587V7.27344ZM419.187 7.27344H419.587V17.8734H419.187V7.27344ZM415.187 7.27344H415.887V17.8734H415.187V7.27344ZM419.987 7.27344H420.687V17.8734H419.987V7.27344ZM423.287 7.27344H423.987V17.8734H423.287V7.27344ZM424.987 7.27344H425.687V17.8734H424.987V7.27344ZM427.687 7.27344H428.387V17.8734H427.687V7.27344ZM435.287 7.27344H436.387V17.8734H435.287V7.27344ZM436.787 7.27344H437.687V17.8734H436.787V7.27344ZM438.287 7.27344H438.987V17.8734H438.287V7.27344ZM440.387 7.27344H441.587V17.8734H440.387V7.27344ZM442.687 7.27344H443.887V17.8734H442.687V7.27344ZM417.387 7.27344H418.787V17.8734H417.387V7.27344ZM421.087 7.27344H422.187V17.8734H421.087V7.27344Z" fill="#8A6E35"></path><path d="M413.887 27.2727V21.1727H416.187C416.587 21.1727 416.987 21.1727 417.287 21.3727C417.587 21.4727 417.787 21.6727 417.987 21.9727C418.187 22.1727 418.187 22.4727 418.187 22.7727C418.187 23.0727 418.087 23.2727 417.987 23.4727C417.787 23.6727 417.587 23.8727 417.387 24.0727C417.687 24.1727 417.987 24.3727 418.187 24.6727C418.387 24.9727 418.487 25.2727 418.487 25.5727C418.487 25.8727 418.387 26.0727 418.287 26.3727C418.187 26.5727 417.987 26.7727 417.887 26.9727C417.687 27.0727 417.487 27.1727 417.187 27.2727C416.887 27.2727 416.587 27.2727 416.187 27.2727H413.887ZM414.687 23.7727H415.987C416.287 23.7727 416.487 23.7727 416.787 23.6727C416.987 23.6727 417.087 23.4727 417.287 23.3727C417.387 23.2727 417.387 23.0727 417.387 22.8727C417.387 22.6727 417.387 22.4727 417.287 22.3727C417.187 22.1727 417.087 22.0727 416.887 22.0727C416.587 21.9727 416.287 21.9727 415.987 21.9727H414.687V23.7727ZM414.687 26.5727H416.187C416.387 26.5727 416.587 26.5727 416.687 26.5727C416.887 26.5727 416.987 26.4727 417.187 26.3727C417.387 26.2727 417.487 26.1727 417.487 25.9727C417.587 25.7727 417.587 25.6727 417.587 25.4727C417.587 25.2727 417.487 25.0727 417.387 24.8727C417.287 24.6727 417.087 24.5727 416.887 24.4727C416.587 24.3727 416.287 24.3727 415.987 24.3727H414.687V26.5727ZM419.687 24.2727C419.587 23.3727 419.887 22.5727 420.487 21.8727C420.987 21.2727 421.787 20.9727 422.587 20.9727C423.087 20.9727 423.687 21.0727 424.087 21.3727C424.487 21.6727 424.887 22.0727 425.087 22.4727C425.287 22.9727 425.487 23.5727 425.487 24.0727C425.487 24.6727 425.387 25.1727 425.087 25.6727C424.887 26.1727 424.487 26.4727 423.987 26.7727C423.487 26.9727 422.987 27.1727 422.487 27.1727C421.987 27.1727 421.387 27.0727 420.987 26.7727C420.587 26.4727 420.187 26.0727 419.987 25.6727C419.787 25.3727 419.687 24.8727 419.687 24.2727ZM420.487 24.3727C420.487 24.9727 420.687 25.6727 421.087 26.0727C421.887 26.8727 423.187 26.8727 423.987 26.1727C423.987 26.1727 423.987 26.1727 424.087 26.0727C424.487 25.5727 424.687 24.8727 424.687 24.2727C424.687 23.8727 424.587 23.3727 424.487 22.9727C424.287 22.5727 424.087 22.2727 423.787 22.0727C423.487 21.8727 423.087 21.7727 422.687 21.7727C422.187 21.7727 421.587 21.9727 421.187 22.3727C420.587 22.8727 420.387 23.5727 420.487 24.3727ZM426.787 27.2727V21.1727H427.587V26.4727H430.587V27.2727H426.787ZM431.787 27.2727V21.1727H436.187V21.8727H432.587V23.7727H435.987V24.4727H432.587V26.5727H436.387V27.2727H431.787ZM439.287 27.2727V21.9727H437.287V21.2727H442.087V21.9727H440.087V27.2727H439.287ZM442.887 24.2727C442.787 23.3727 443.087 22.5727 443.687 21.8727C444.187 21.2727 444.987 20.9727 445.787 20.9727C446.287 20.9727 446.887 21.0727 447.287 21.3727C447.687 21.6727 448.087 22.0727 448.287 22.4727C448.487 22.9727 448.687 23.5727 448.687 24.0727C448.687 24.6727 448.587 25.1727 448.287 25.6727C448.087 26.1727 447.687 26.5727 447.187 26.7727C446.687 26.9727 446.187 27.1727 445.687 27.1727C445.187 27.1727 444.587 27.0727 444.187 26.7727C443.787 26.4727 443.387 26.0727 443.187 25.6727C442.987 25.3727 442.887 24.8727 442.887 24.2727ZM443.687 24.3727C443.687 24.9727 443.887 25.6727 444.287 26.0727C445.087 26.8727 446.387 26.8727 447.187 26.1727C447.187 26.1727 447.187 26.1727 447.287 26.0727C447.687 25.5727 447.887 24.8727 447.887 24.2727C447.887 23.8727 447.787 23.3727 447.587 22.9727C447.387 22.5727 447.187 22.2727 446.887 22.0727C446.587 21.8727 446.187 21.7727 445.787 21.7727C445.287 21.7727 444.687 21.9727 444.287 22.3727C443.887 22.8727 443.587 23.6727 443.687 24.3727Z" fill="#8A6E35"></path></g><defs><clipPath id="clip0_256_47"><rect width="448.7" height="27.4" fill="white"></rect></clipPath></defs></svg>